<?xml version="1.0" standalone="no"?>
<!DOCTYPE svg PUBLIC "-//W3C//DTD SVG 1.1//EN" "http://www.w3.org/Graphics/SVG/1.1/DTD/svg11.dtd" >
<svg>
<metadata>
Created by FontForge 20090622 at Mon Sep 12 20:38:47 2016
 By deploy user
Copyright (c) Astigmatic (AOETI), 2006. All rights reserved.
</metadata>
<defs>
<font id="AlphaMackAOE" horiz-adv-x="530" >
  <font-face 
    font-family="AlphaMack AOE"
    font-weight="400"
    font-stretch="normal"
    units-per-em="2048"
    panose-1="2 0 6 6 2 0 0 2 0 3"
    ascent="1638"
    descent="-410"
    x-height="788"
    cap-height="1399"
    bbox="-465 -492 5577 1954"
    underline-thickness="41"
    underline-position="-232"
    unicode-range="U+0020-U+FB02"
  />
<missing-glyph horiz-adv-x="322" 
 />
    <glyph glyph-name=".notdef" horiz-adv-x="322" 
 />
    <glyph glyph-name=".null" horiz-adv-x="0" 
 />
    <glyph glyph-name="nonmarkingreturn" horiz-adv-x="322" 
 />
    <glyph glyph-name="space" unicode=" " horiz-adv-x="322" 
 />
    <glyph glyph-name="yacute" unicode="&#xfd;" horiz-adv-x="565" 
d="M500 508q0 34 -24 57t-58 23q-25 0 -60.5 -16t-73.5 -37.5l-74 -43.5t-60 -34q7 31 18.5 68t26 74.5t32 72t35.5 59.5q6 11 10 22t4 23q0 29 -21 51.5t-50 22.5q-27 0 -52.5 -26.5t-48 -68.5t-42 -93t-33 -100t-21.5 -90t-8 -62q0 -24 6 -45.5t19 -38t32 -26t45 -9.5
q23 0 48.5 8t51 20t49 25.5l42.5 24.5q-8 -17 -28 -56.5l-47.5 -93l-61 -116l-68.5 -125.5l-70 -121.5t-65.5 -103.5t-55.5 -72t-40 -27q-2 0 -6.5 4.5t-12 10t-18.5 10t-25 4.5q-29 0 -50 -22.5t-21 -51.5q0 -23 13 -42t33 -32t43.5 -20t43.5 -7q6 0 12 0.5t12 2.5
q41 7 77 32t66.5 59.5t55.5 73.5t43 74l54.5 97.5l77 138l85.5 156.5t79.5 153.5t58 129t22.5 83.5zM725 1336q-23 45 -68 45q-9 0 -18 -2t-19 -8q-34 -17 -62 -51t-51.5 -75t-43.5 -83.5t-39 -75.5q-6 -10 -9.5 -16.5t-5.5 -11t-4 -7t-4 -4.5q-3 -3 -8.5 -6.5t-19.5 -15.5
q-31 -22 -31 -58q0 -11 2.5 -21.5t7.5 -21.5q9 -17 24.5 -23.5t32.5 -6.5q13 0 23.5 2.5t21.5 7.5q24 12 44 37t38 57t34.5 68t34 69.5t37.5 61.5t44 45q18 8 31.5 27t13.5 40q0 15 -6 27z" />
    <glyph glyph-name="Thorn" unicode="&#xde;" horiz-adv-x="598" 
d="M586 881q0 -36 -6 -68t-22 -57t-42 -39.5t-67 -14.5q-26 0 -52.5 4t-52.5 9.5t-52 9.5t-52 4q-10 0 -20 -1t-19 -3l11 78.5t15.5 82.5t25.5 78.5t40.5 66.5t60.5 46t86 17q42 0 70 -20.5t45 -51.5t24 -68.5t7 -72.5zM385 1405q-27 14 -51 6t-44 -27.5t-36 -45t-27 -48.5
l-8 -14l-48.5 -96t-46.5 -107.5t-40.5 -143t-30.5 -202.5q-5 -53 -7.5 -90.5t-6.5 -65.5t-10.5 -51.5t-18.5 -49t-32.5 -56.5l-51.5 -76q-16 -19 -16 -45q0 -15 6 -28t16 -23.5t23.5 -16.5t28.5 -6t29.5 7.5t25.5 21.5q45 51 69 85.5t36.5 68.5t19 76l16.5 108q15 -6 33 -6
q6 0 12 2t13 2q26 0 52 -4.5t52.5 -10t53 -10t53.5 -4.5q72 0 125 25.5t88 69.5t52 103t17 126q0 68 -17 132.5t-53 115t-91 81.5t-130 31q-21 0 -41.5 -1.5t-40.5 -6.5q8 12 16 25.5t17 21.5q8 6 15 12.5t10 16.5q7 13 8 27t-3.5 27.5t-13.5 25t-22 18.5z" />
    <glyph glyph-name="thorn" unicode="&#xfe;" horiz-adv-x="565" 
d="M348 522q-12 -10 -29.5 -22.5t-37 -23.5t-39.5 -18t-35 -7q-10 0 -15 1.5t-8 4t-6 6.5t-10 8l28.5 73t34.5 72q14 -6 30.5 -17t33 -24t30.5 -27t23 -26zM379 1065q-27 14 -51 6t-44 -27.5t-36 -45t-27 -48.5l-6 -14l-50 -101t-39.5 -82.5l-33.5 -75.5t-33 -80.5
l-36.5 -97.5l-45 -126l-58.5 -166.5l-77 -218.5q-5 -15 0.5 -28t16.5 -23.5t26.5 -16.5t30.5 -6q33 0 55 27q8 8 20 35.5t26 64.5l29 80l28.5 83l24 73.5t16.5 50.5q20 -13 42.5 -18t45.5 -5q24 0 55 8t64 22t65 34t57 43t40.5 49t15.5 53q0 30 -17 63t-45 64t-63 57.5
t-70 44.5q7 19 10 33.5l6 28.5t8 30t17 37v5l18.5 32t22.5 29q16 10 25 29q14 26 4.5 55t-37.5 43z" />
    <glyph glyph-name="Zcaron" unicode="&#x17d;" horiz-adv-x="879" 
d="M817 387q0 29 -21.5 50.5t-50.5 21.5q-17 0 -32 -6l-6 -4l6 4q-21 -8 -60.5 -14.5t-88 -12.5t-102.5 -10.5t-103.5 -8t-90.5 -5t-65 -1.5l75 80.5l76 79.5q17 2 47.5 2.5t67 3.5t74.5 9t69 17.5t50.5 30t19.5 46.5q0 29 -21.5 50t-52.5 21q-18 0 -33 -8l-6 -4q2 2 3 2
t3 2q-18 -6 -37.5 -8l-37.5 -4l57.5 67.5t64 84t51.5 90.5t21 86q0 32 -13.5 57.5t-36 42.5t-51 26t-58.5 9q-38 0 -78 -9.5t-79 -24.5t-76.5 -33l-70.5 -34l-38.5 -19t-40.5 -15h6l-8 -2l2 2q-28 -4 -48 -24.5t-20 -49.5q0 -15 6 -28t16 -23.5t23.5 -16.5t28.5 -6
q31 0 78.5 21.5t100 48t104.5 48t91 21.5h8t7 -2q-4 -19 -21 -46.5t-41 -60t-53 -66.5l-56.5 -65l-51 -57l-37.5 -41q-58 -3 -121.5 -3t-120.5 -11q-28 -6 -45.5 -25.5t-17.5 -48.5q0 -27 20 -49t49 -22h4h11q18 2 36.5 3t36.5 3l-37.5 -39.5t-46 -52.5t-39 -55.5
t-16.5 -49.5q0 -34 18.5 -53t46 -28.5t59 -12t58.5 -2.5q8 0 14 1t11 1q24 0 71 2t105.5 5.5t121.5 9t118.5 13t98.5 16.5t60 20q35 21 35 63zM575 733q-2 -2 -3 -2t-3 -2zM663 1472q0 29 -21.5 51.5t-50.5 22.5t-50 -9.5t-40.5 -26.5t-41 -41t-52.5 -54l-24.5 31t-18 21.5
t-20 19t-31.5 24.5q-26 20 -40 29.5t-25 18t-23 19.5t-35 35q-12 13 -24.5 20t-30.5 7q-15 0 -28.5 -6t-23.5 -16.5t-16 -23.5t-6 -28q0 -25 16 -47q29 -39 65.5 -67l69 -51.5t56 -44t26.5 -44.5q-2 -2 -2 -10q0 -16 6.5 -31t17.5 -26t25.5 -18t30.5 -7q43 0 69.5 18
t50.5 45.5l53.5 60.5t78.5 64q17 10 28 27t11 37z" />
    <glyph glyph-name="zcaron" unicode="&#x17e;" horiz-adv-x="580" 
d="M528 213q0 54 -19.5 91.5t-52.5 61.5t-76 37t-89 19q19 27 52 68.5t65 86.5t55.5 89t23.5 75q0 20 -8 36.5t-21.5 28.5t-31.5 18.5t-37 6.5q-38 0 -74 -13.5t-70.5 -31l-69.5 -34t-71 -21.5q-15 6 -30 6q-31 0 -52.5 -21t-21.5 -50q0 -20 8.5 -35.5t22.5 -26t31.5 -15.5
t35.5 -5q22 0 44.5 5.5t44.5 13.5t43.5 17.5l41.5 18.5l-42.5 -54.5t-52 -70t-44 -72.5t-18.5 -63q0 -37 19.5 -57t49.5 -29.5t64 -13t64 -9.5t49.5 -18.5t19.5 -38.5q0 -25 -10 -60t-27.5 -74t-40 -78.5t-47.5 -73.5t-51 -60t-49 -37q-23 -6 -38.5 -26.5t-15.5 -43.5
q0 -31 21.5 -52t50.5 -21h9.5t9.5 2q37 9 74.5 39t73 72t66.5 92.5t55.5 101t40.5 97t21 81.5q2 11 3 20.5t1 20.5zM602 1164q0 29 -21.5 51.5t-50.5 22.5t-50 -9.5t-40.5 -26.5t-41 -41t-52.5 -54l-24.5 31t-18 21.5t-20 19t-31.5 24.5q-26 20 -40 29.5t-25 18t-23 19.5
t-35 35q-12 13 -24.5 20t-30.5 7q-15 0 -28.5 -6t-23.5 -16.5t-16 -23.5t-6 -28q0 -25 16 -47q29 -39 65.5 -67l69 -51.5t56 -44t26.5 -44.5q-2 -2 -2 -10q0 -16 6.5 -31t17.5 -26t25.5 -18t30.5 -7q43 0 69.5 18t50.5 45.5l53.5 60.5t78.5 64q17 10 28 27t11 37z" />
    <glyph glyph-name="onehalf" unicode="&#xbd;" horiz-adv-x="905" 
d="M401 1458q0 23 -16 40.5t-39 17.5q-22 0 -33.5 -11t-19.5 -28q-22 -48 -51 -89.5l-58 -84.5l-57.5 -82t-61 -93t-48 -97.5t-19.5 -94.5q0 -26 14 -47t43 -21q23 0 40.5 17.5t17.5 40.5q0 3 -1 6t-1 6q0 28 21.5 71.5t53.5 94.5t70 105l70 102.5t53.5 87.5t21.5 59z
M63 174q0 6 -1 12t-1 13q0 38 22 96.5t59.5 131.5t87.5 156.5l106.5 171.5l116 178l116 174.5l106.5 161l87.5 138.5t59.5 106.5t22 65.5q0 22 -16 37.5t-37 15.5q-22 0 -32 -12t-20 -31q-22 -52 -50.5 -104t-60.5 -103t-66 -100l-66 -96l-136 -205l-133 -205l-61.5 -95
t-67.5 -109t-62 -111.5t-46 -102.5q-14 -40 -23.5 -79.5t-9.5 -81.5q0 -28 10.5 -51t42.5 -23q22 0 37.5 15.5t15.5 35.5zM883 213q0 18 -9 30t-22.5 19t-30 9.5t-30.5 2.5q-63 0 -123.5 -17t-120.5 -36q32 30 76.5 75.5t86 97.5t70.5 104.5t29 97.5q0 32 -14 56.5t-36.5 41
t-51.5 25t-58 8.5q-28 0 -55 -8.5t-52.5 -18l-49.5 -18t-46 -8.5q-23 0 -40 -16.5t-17 -39.5t17 -39t40 -16q28 0 53.5 8t50 17.5t49 17.5t50.5 8h13t15.5 -1.5t13 -4.5t5.5 -10q0 -21 -19 -54.5t-48.5 -71.5t-66.5 -78l-73 -75.5l-67 -63.5t-49 -42q-16 -11 -26.5 -24
t-10.5 -33q0 -21 10.5 -34t26.5 -20t34.5 -9.5t34.5 -2.5q45 0 88.5 11.5t87 25.5t87.5 25.5t90 11.5q8 0 15.5 -3t16.5 -3q23 0 39.5 16.5t16.5 38.5z" />
    <glyph glyph-name="onequarter" unicode="&#xbc;" horiz-adv-x="1094" 
d="M401 1458q0 23 -16 40.5t-39 17.5q-22 0 -33.5 -11t-19.5 -28q-22 -48 -51 -89.5l-58 -84.5l-57.5 -82t-61 -93t-48 -97.5t-19.5 -94.5q0 -26 14 -47t43 -21q23 0 40.5 17.5t17.5 40.5q0 3 -1 6t-1 6q0 28 21.5 71.5t53.5 94.5t70 105l70 102.5t53.5 87.5t21.5 59z
M63 174q0 6 -1 12t-1 13q0 38 22 96.5t59.5 131.5t87.5 156.5l106.5 171.5l116 178l116 174.5l106.5 161l87.5 138.5t59.5 106.5t22 65.5q0 22 -16 37.5t-37 15.5q-22 0 -32 -12t-20 -31q-22 -52 -50.5 -104t-60.5 -103t-66 -100l-66 -96l-136 -205l-133 -205l-61.5 -95
t-67.5 -109t-62 -111.5t-46 -102.5q-14 -40 -23.5 -79.5t-9.5 -81.5q0 -28 10.5 -51t42.5 -23q22 0 37.5 15.5t15.5 35.5zM1094 918q0 23 -17.5 39t-40.5 16q-15 0 -25 -6t-20 -17q-25 -28 -41.5 -61t-36.5 -64l-93 -155l-93 -156l-55 -16.5t-63.5 -18t-64 -14.5t-55.5 -6
q-9 0 -16.5 0.5t-15.5 3.5q9 15 22.5 41t25.5 55t21 56.5t9 46.5q0 21 -13.5 40t-38.5 19q-26 0 -38.5 -12t-20.5 -35q-5 -18 -12.5 -41.5t-16.5 -47t-20.5 -44.5t-24.5 -35q-11 -14 -17.5 -25.5t-6.5 -29.5q0 -28 17 -47.5t42 -32.5t53.5 -19t50.5 -6q41 0 80.5 9t77.5 20
l-18.5 -33.5l-24 -44.5l-25.5 -50t-23.5 -50.5t-17 -45t-6.5 -34.5q0 -28 17.5 -48t46.5 -20q14 0 29.5 8t28.5 21t21.5 28t8.5 29q0 23 -16 39q31 63 65.5 123.5l69.5 122.5q15 3 33 7.5t33.5 13t26.5 21.5t11 32q0 15 -8.5 29t-24.5 20q8 14 27.5 44.5l44 68.5l51 80.5
l48 79.5t35.5 64.5t14 37.5z" />
    <glyph glyph-name="onesuperior" unicode="&#xb9;" horiz-adv-x="379" 
d="M401 1458q0 23 -16 40.5t-39 17.5q-22 0 -33.5 -11t-19.5 -28q-22 -48 -51 -89.5l-58 -84.5l-57.5 -82t-61 -93t-48 -97.5t-19.5 -94.5q0 -26 14 -47t43 -21q23 0 40.5 17.5t17.5 40.5q0 3 -1 6t-1 6q0 28 21.5 71.5t53.5 94.5t70 105l70 102.5t53.5 87.5t21.5 59z" />
    <glyph glyph-name="threequarters" unicode="&#xbe;" horiz-adv-x="1362" 
d="M330 174q0 6 -1 12t-1 13q0 38 22 96.5t59.5 131.5t88 156.5l106.5 171.5l116 178l116 174.5l106.5 161t88 138.5t59.5 106.5t22 65.5q0 22 -16 37.5t-37 15.5q-22 0 -32.5 -12t-18.5 -31q-47 -105 -113 -207l-131 -196l-136 -205l-134 -205l-61 -95l-67 -109t-62 -111.5
t-46 -102.5q-14 -40 -24.5 -79.5t-10.5 -81.5q0 -28 12 -51t44 -23q20 0 35.5 15.5t15.5 35.5zM1360 918q0 23 -16 39t-39 16q-16 0 -26 -6t-19 -17q-25 -28 -42.5 -61l-35.5 -64l-93.5 -155l-93.5 -156l-55 -16.5t-64 -18t-64.5 -14.5t-55.5 -6q-8 0 -15.5 0.5t-15.5 3.5
q9 15 22.5 41t26 55t21 56.5t8.5 46.5q0 21 -13.5 40t-37.5 19q-26 0 -40 -12t-20 -35q-5 -18 -12.5 -41.5t-16.5 -47t-20.5 -44.5t-24.5 -35q-12 -14 -18 -25.5t-6 -29.5q0 -28 17 -47.5t41.5 -32.5t53 -19t50.5 -6q42 0 81.5 9t77.5 20l-30.5 -55t-38 -73t-32 -73.5
t-13.5 -56.5q0 -28 16.5 -48t44.5 -20q14 0 29.5 8t28.5 21t21.5 28t8.5 29q0 25 -14 39q31 63 65 123.5l68 122.5q15 3 33.5 7.5t35 13t27.5 21.5t11 32q0 15 -9.5 29t-23.5 20q8 14 27.5 44.5l43.5 68.5l50 80.5l47 79.5t35 64.5t14 37.5zM604 1413q0 23 -12.5 41
t-31.5 30t-41.5 18.5t-43.5 6.5q-25 0 -49.5 -6.5t-49 -15t-49 -15t-48.5 -6.5h-13q-23 0 -40 -16t-17 -39q0 -29 20.5 -43t46.5 -14t51 7t49 15.5t48.5 15t50.5 5.5h2l-26.5 -31.5t-35 -39t-37 -35.5t-32.5 -23q-22 -10 -35.5 -23t-13.5 -39q0 -24 11 -36.5t26.5 -20.5
t33.5 -14t33 -15l2 -8q2 -32 -10.5 -61.5t-33.5 -54.5t-47.5 -44.5t-53.5 -31.5q-25 -11 -53.5 -22t-54.5 -9h-5q21 14 21 41q0 23 -17 39t-40 16q-17 0 -36.5 -8t-35.5 -21.5t-26.5 -31t-10.5 -35.5q0 -25 14.5 -46t36.5 -36t48 -23t48 -8q39 0 80 12t76 29q43 20 81.5 50
t67 68t45.5 83t17 94q0 34 -11 59.5t-42 42.5l39.5 39.5t47.5 53t39.5 57t16.5 49.5z" />
    <glyph glyph-name="threesuperior" unicode="&#xb3;" horiz-adv-x="565" 
d="M602 1413q0 23 -12.5 41t-31.5 30t-41.5 18.5t-43.5 6.5q-25 0 -49.5 -6.5t-49 -15t-49 -15t-49.5 -6.5h-12q-23 0 -39 -16t-16 -39q0 -29 19.5 -43t45.5 -14t51 7t49.5 15.5t49 15t49.5 5.5h2l-26.5 -31.5t-35 -39t-37 -35.5t-32.5 -23q-22 -10 -35.5 -23t-13.5 -39
q0 -24 11 -36.5t27 -20.5t34.5 -14t33.5 -15v-8q2 -32 -10 -61.5t-33 -54.5t-47.5 -44.5t-54.5 -31.5q-25 -11 -53 -22t-56 -9h-2q19 15 19 41q0 23 -17.5 39t-40.5 16q-17 0 -36 -8t-35 -21.5t-26.5 -31t-10.5 -35.5q0 -25 14.5 -46t36.5 -36t48 -23t48 -8q41 0 81.5 12
t74.5 29q43 20 81.5 50t68 68t46.5 83t17 94q0 34 -12 59.5t-43 42.5l39.5 39.5t47.5 53t39.5 57t16.5 49.5z" />
    <glyph glyph-name="twosuperior" unicode="&#xb2;" horiz-adv-x="575" 
d="M551 991q0 18 -9 30.5t-23 20t-30.5 10.5t-31.5 3q-63 0 -123 -18.5l-119 -37.5l48.5 47.5l56.5 59t56.5 66.5t49.5 70t35.5 69.5t13.5 64.5q0 32 -14 56t-36.5 40t-50.5 24.5t-57 8.5q-27 0 -54.5 -8t-53.5 -17.5t-50.5 -17.5t-45.5 -8q-23 0 -39.5 -17t-16.5 -40
t16.5 -39.5t39.5 -16.5q27 0 52.5 8t50 18t49 18t50.5 8h13t15.5 -1t13 -4.5t5.5 -9.5q0 -22 -19 -55.5t-48.5 -71.5t-66 -78.5t-72.5 -76t-67.5 -63.5t-49.5 -42q-16 -11 -25.5 -23t-9.5 -34q0 -21 10.5 -33.5t26 -20t34 -10t34.5 -2.5q46 0 89.5 11.5t87 25.5t87 25.5
t88.5 11.5q9 0 17 -3t16 -3q23 0 40 17t17 38z" />
    <glyph glyph-name="brokenbar" unicode="&#xa6;" horiz-adv-x="356" 
d="M360 1708q0 16 -6.5 30t-21.5 25q-10 8 -21 11.5t-22 3.5q-36 0 -60 -29q-21 -29 -30 -84.5t-12 -125.5t-2.5 -149t-2.5 -156.5t-12.5 -146.5t-32.5 -120q-2 -3 -3 -5t-1 -6q-5 -12 -4 -23t4 -22q13 -34 47 -47q28 -6 45 0q20 8 33.5 27t20.5 41q12 37 21 88.5
t16.5 110.5t13.5 122.5t10 124.5q11 143 16 299l2 12q1 5 1.5 10t0.5 9zM258 664q0 15 -6.5 29.5t-22.5 25.5q-9 8 -20.5 11t-22.5 3q-17 0 -32.5 -7t-26.5 -21q-21 -29 -30 -84.5t-12 -125.5t-2.5 -149.5t-2.5 -156.5t-13 -146.5t-32 -120.5q-2 -3 -3 -5t-1 -5
q-5 -12 -4 -23t4 -22q12 -35 47 -47q27 -6 45 0q20 8 33.5 27t19.5 40q12 37 21.5 88.5t17 111t13.5 123t10 124.5q11 143 16 299q1 6 2 11t1.5 10.5t0.5 9.5z" />
    <glyph glyph-name="minus" unicode="&#x2212;" 
d="M481 741q0 29 -15 46t-37 25.5t-48 10.5t-47 2q-29 0 -58.5 -1t-58.5 -3q-23 -2 -45.5 -3t-44.5 -1q-5 0 -10 2t-8 2t-3 -2q-5 2 -9.5 2h-10.5q-28 0 -50 -20t-22 -51q0 -25 10.5 -40.5t27 -24t37 -11t40.5 -2.5q51 0 102.5 4t104.5 4q20 0 36.5 -5t35.5 -5q31 0 52 21
t21 50z" />
    <glyph glyph-name="multiply" unicode="&#xd7;" horiz-adv-x="500" 
d="M268 551v2v2v-4zM367 733h-5h5zM434 887q-18 18 -45 18q-22 0 -46.5 -11t-48 -27.5t-44 -34.5t-35.5 -33q-8 5 -15.5 10.5l-17.5 13.5q-3 5 -7 8.5t-7 8.5q-9 18 -26.5 28.5t-37.5 10.5q-14 0 -27 -6t-24 -15q-12 -12 -17 -24.5t-5 -24.5q0 -23 15 -46.5t34 -41.5
l23.5 -23.5l17.5 -17.5q-6 -6 -12.5 -14t-14.5 -19l-8 -8t-15.5 -14.5l-16 -14t-9.5 -8.5q-22 -11 -35.5 -36.5t-13.5 -51.5q0 -11 4 -22t12 -19q10 -11 21 -15.5t22 -4.5q15 0 30 5.5t29 14.5t27 20t23 21q21 20 34 33.5t20.5 23t11 15.5t6.5 10l18 -22.5t14 -20.5
q2 -9 6.5 -18t12.5 -17q20 -20 53 -20q12 0 25 4.5t24 13.5q13 12 18 24.5t5 26.5q0 19 -8.5 38.5t-20.5 38t-26.5 35t-26.5 28.5q9 9 18 16t19 10q5 2 14 8.5t19 14.5l19 15.5t13 10.5q11 11 17 25.5t6 28.5t-6 27t-15 24z" />
    <glyph glyph-name="Yacute" unicode="&#xdd;" horiz-adv-x="741" 
d="M727 993l1 1q1 1 1 3q0 28 -23 48t-51 20t-51 -21q-14 -12 -24 -28.5t-21 -30.5l-42 -58.5t-55 -71.5t-64 -73.5t-69 -65.5t-70.5 -47t-68.5 -18q-11 0 -20 2.5t-18 5.5q-5 8 -7 18t-2 19q0 35 10 78t25.5 88t33.5 88l33.5 78l25.5 59.5t10 30.5q0 31 -21.5 52.5
t-52.5 21.5q-20 0 -33.5 -8.5t-26.5 -24.5q-16 -20 -33.5 -55.5t-33.5 -78t-30.5 -90t-25.5 -92t-17.5 -83t-6.5 -64.5q0 -91 49.5 -140.5t140.5 -49.5q50 0 97.5 18.5t91 48t82 66t69.5 72.5l-23 -126.5t-29.5 -137t-43.5 -132t-66.5 -112t-98 -78t-136.5 -29.5h-14
q-16 0 -34 -1.5t-33 -8t-24.5 -19t-9.5 -34.5q0 -28 9.5 -44.5t25 -25t36.5 -10.5t44 -2q99 0 179.5 36.5t141 98t101.5 142.5t61 171q22 100 41 201l37 201q10 45 19 90t14 90v12zM787 1582q-23 45 -68 45q-9 0 -18 -2t-19 -8q-34 -17 -62 -51t-51.5 -75t-43.5 -83.5
t-39 -75.5q-6 -10 -9.5 -16.5t-5.5 -11t-4 -7t-4 -4.5q-3 -3 -8.5 -6.5t-19.5 -15.5q-31 -22 -31 -58q0 -11 2.5 -21.5t7.5 -21.5q9 -17 24.5 -23.5t32.5 -6.5q13 0 23.5 2.5t21.5 7.5q24 12 44 37t38 57t34.5 68t34 69.5t37.5 61.5t44 45q18 8 31.5 27t13.5 40q0 15 -6 27z
" />
    <glyph glyph-name="exclam" unicode="!" horiz-adv-x="489" 
d="M143 360l-9 3.5t-7 3.5q10 0 16 -7zM260 356q0 25 -7 51.5t-20.5 48.5t-34.5 36t-48 14q-31 0 -58 -11.5t-47.5 -31t-32.5 -46t-12 -57.5q0 -26 9 -51t25.5 -44.5t39.5 -31.5t51 -12t52.5 10.5t43 29t29 43t10.5 52.5zM524 1442q0 31 -21 53.5t-52 22.5
q-34 0 -51.5 -21.5t-20.5 -52.5q-1 -10 -10 -38t-21 -60l-23 -61.5t-16 -41.5l-29 -78.5l-35.5 -97l-36.5 -106.5t-32.5 -107t-23.5 -98.5t-9 -81.5q0 -18 4 -35.5t12.5 -31t22.5 -21.5t35 -8q31 0 52.5 21t21.5 52q0 62 16 132t39.5 141.5t50.5 140l49 127.5q6 18 19 52.5
l26 72.5t23 72.5t10 52.5z" />
    <glyph glyph-name="quotedbl" unicode="&#x22;" horiz-adv-x="438" 
d="M23 1360v-2v2zM322 1360l-3 -2zM23 1360v-2v2zM322 1360l-3 -2zM172 1444q-2 12 -2 20v15v22q0 6 -0.5 20.5t-5.5 51.5q0 2 -1 3.5t-1 4.5t1 6t1 6q2 5 2 8.5v8.5q0 29 -21.5 51t-52.5 22h-2q-23 -1 -37 -10.5t-22 -24.5t-10.5 -34t-2.5 -37v-12q2 -53 2 -75v-30v-2v-2
q1 0 2 -3q1 -2 2 -7t3 -14q0 -7 1 -14t1 -13q0 -12 -1.5 -25t-4.5 -22q-5 -8 -7 -17t-2 -18v-2q0 -29 21.5 -49.5t50.5 -20.5h2q28 1 44.5 16t25.5 37.5t11.5 49t2.5 51.5v39zM469 1444q0 12 -1 21t-1 14q0 9 1 13t1 9q0 6 -1.5 20.5t-6.5 51.5v8v12q2 5 2 9.5v7.5
q0 29 -20.5 51t-51.5 22h-4q-23 -1 -37 -10.5t-22 -24t-10.5 -33t-2.5 -36.5v-12q2 -54 2 -76.5v-28.5v-4v-2q2 0 2.5 -2t4.5 -22q2 -7 2 -13v-14q0 -12 -1.5 -25t-5.5 -22q-5 -8 -6.5 -17t-1.5 -18v-2q2 -29 23.5 -49.5t50.5 -20.5h2q27 1 43.5 16t25.5 37.5t12 49t3 51.5
q0 11 -1 20.5t-1 18.5z" />
    <glyph glyph-name="numbersign" unicode="#" horiz-adv-x="874" 
d="M672 492h-2l-2 2zM573 809l-34 -51l-38 -62l-36 -61q-29 -3 -61 -6l-64 -6l57 85.5l58 84.5q29 5 58 8t60 8zM829 815h-2l-2 2zM938 879q0 38 -27.5 57t-64.5 27q25 42 41.5 76.5t19.5 60.5v8q0 28 -22 47t-49 19q-28 0 -46 -15.5t-26 -40.5q-9 -26 -33 -66.5t-55 -86.5
l-55 -6.5t-62 -6.5q29 50 47.5 89t18.5 65q0 31 -21.5 52.5t-52.5 21.5q-26 0 -44 -15.5t-26 -40.5q-11 -31 -42 -82.5t-68 -107.5l-65 -5.5t-50 -4.5h-6h-17q-5 2 -9 3t-9 1q-15 0 -28 -6t-23.5 -16t-16.5 -23.5t-6 -28.5q0 -25 11 -40t27.5 -23t37 -10.5t39.5 -2.5h8
l-8 -14l-48 -80t-44 -80l-66 -6h-6h-8t-8 2t-9.5 2h-9.5q-29 0 -51 -20.5t-22 -51.5q0 -23 9 -37.5t23.5 -23t33 -12t36.5 -4.5l-8 -21q-19 -38 -27 -81t-8 -87q0 -18 3.5 -35t12.5 -30t23 -21t35 -8q29 0 51 21.5t22 50.5q0 3 -1 6t-1 6q0 5 -1 9.5t-1 10.5q0 39 17 87
t43 102q35 3 70 8l69 10l-12 -27l-13 -28l-37.5 -82t-19.5 -88q0 -18 4 -34.5t12.5 -29t22.5 -20.5t35 -8q29 0 51.5 21.5t22.5 50.5q0 3 -1 5.5t-1 4.5v2q11 59 37 122t61 128h51h8q16 0 33.5 -0.5t30.5 -5.5q19 -11 37 -11q31 0 52 21.5t21 52.5q0 26 -14 43t-35 26.5
t-46.5 13.5t-49.5 5q29 47 60.5 92l60.5 88h8q15 0 33 -1.5t30 -6.5q10 -5 19 -7.5t18 -2.5q15 0 28.5 6t23.5 16.5t16 23.5t6 28z" />
    <glyph glyph-name="dollar" unicode="$" horiz-adv-x="842" 
d="M428 788l-56 -114.5l-53 -116.5h-6q-24 0 -49.5 3t-48.5 9q29 60 62 118.5l65 115.5zM641 737q-20 -44 -60 -78.5t-81 -56.5l36.5 80t38.5 78l34 -10t32 -13zM537 999l-41 -73l-72 12l27 43q39 12 86 18zM877 1014q0 20 -10.5 36.5t-26.5 29.5t-34.5 23t-33.5 17v17
q0 31 -20 52t-52 21q-15 0 -26.5 -5t-20.5 -13t-16 -18.5t-14 -22.5h-21h-43l40 58.5t42 58.5q16 19 16 45q0 29 -21 50t-52 21q-17 0 -31 -7t-27 -19q-23 -27 -45.5 -59t-44 -66l-42 -67.5l-40.5 -63.5q-25 -10 -60 -26t-67 -37t-54.5 -48t-22.5 -59q0 -56 49 -84
l-51 -90.5t-58.5 -109.5t-58 -120t-50.5 -122t-35.5 -116t-13.5 -102q0 -18 3.5 -36t12.5 -32.5t23.5 -23t36.5 -8.5q29 0 50.5 21.5t21.5 50.5q0 46 3.5 79t12 62.5t22 60.5l32.5 74q27 -8 55 -13.5t57 -8.5l-15.5 -46l-19 -58.5t-16 -58.5t-6.5 -46q0 -31 21.5 -52.5
t52.5 -21.5q27 0 46.5 18t24.5 46q11 58 30 114.5t42 112.5q35 7 75.5 22.5t81.5 38t79.5 51.5t68 62.5t47 71t17.5 77.5q0 31 -13.5 54.5t-34.5 41.5t-47.5 30.5t-52.5 21.5l55 98q15 -4 27.5 -12.5l25 -17t25 -15t27.5 -6.5t28 6t23.5 16.5t16.5 23.5t6 28z" />
    <glyph glyph-name="percent" unicode="%" horiz-adv-x="918" 
d="M715 373q0 -17 -9 -37t-23.5 -37.5t-33 -29t-37.5 -11.5q-23 0 -44 15.5t-33 33.5v4v2q0 15 9 38.5t22.5 48t29 45t27.5 28.5q18 0 34.5 -9.5t29 -24t20.5 -32t8 -34.5zM336 1071q0 -18 -9.5 -38t-24 -37t-33 -28.5t-36.5 -11.5q-23 0 -44 15t-33 35v4q0 15 8.5 37.5
t21 46t27.5 43.5t27 30q8 0 15 -1t15 -1q14 -6 26 -16.5t21 -23.5t14 -27t5 -27zM860 373q0 47 -19 91.5t-51.5 79.5t-75.5 56t-91 21q-46 0 -88.5 -33.5t-74.5 -82t-51.5 -102.5t-19.5 -96q0 -40 21 -75.5t53 -62.5t72 -42.5t77 -15.5q49 0 94 23t79 60.5t54.5 84
t20.5 94.5zM872 1257q0 32 -19.5 56t-53.5 24q-37 0 -74 3t-74 3q-16 0 -48 -2l-72.5 -4.5t-84 -5.5l-84 -6l-72.5 -5.5t-48 -2.5q-46 0 -88 -33t-74 -81t-51 -102t-19 -95q0 -40 21 -76t53 -63t72 -42.5t77 -15.5q50 0 94.5 23t79 60.5t54.5 84t20 94.5q0 31 -8.5 61
t-23.5 58q60 0 119.5 4.5t119.5 7.5q-42 -72 -89 -141.5l-95 -138.5q-39 -57 -90.5 -112l-105 -110.5l-105.5 -113t-92.5 -119t-65.5 -128.5t-25 -142q0 -19 4 -36t12.5 -30t22.5 -21t35 -8q29 0 51.5 21.5t22.5 50.5q0 46 18.5 96t49 101t69.5 102l78.5 98l77 89l65.5 75
q16 18 47.5 57.5l70 90l79 107.5t73.5 109t54.5 94t21.5 64z" />
    <glyph glyph-name="ampersand" unicode="&#x26;" horiz-adv-x="1692" 
d="M1522 1151q0 -93 -27 -197t-76 -205t-117.5 -193.5t-151 -162.5t-177 -111.5t-195.5 -41.5q-78 0 -155 20t-147.5 56.5t-131.5 88.5t-105.5 116t-70 138.5t-25.5 155.5q0 22 2 43t7 43q25 -110 85.5 -210t146.5 -175.5t192 -120.5t221 -45q130 0 230 44t175 119.5
t128 175.5t89 212q14 42 22.5 83.5t8.5 86.5q0 74 -24 137.5t-64.5 117.5t-93.5 100t-111 85q-34 22 -71.5 32.5t-75.5 10.5q-43 0 -95 -15.5t-105.5 -42t-105.5 -62.5t-95.5 -76.5t-75 -84t-44.5 -85.5q-12 -43 -12 -90q0 -48 11.5 -99.5t33 -100.5t52.5 -93t70.5 -77.5
t86.5 -53t100 -19.5q62 0 122 25t107.5 68t77 100t29.5 121q0 46 -19.5 98.5t-52.5 97t-77.5 74t-95.5 29.5q-37 0 -78.5 -17.5t-82 -42.5t-77 -53l-63.5 -49q1 32 21.5 67.5t54 69.5t76 65t85.5 54t83 37t69 14q36 0 65 -20q42 -26 83.5 -60t74.5 -74.5t53.5 -87.5
t20.5 -100q0 -32 -7 -64t-16 -61q-29 -90 -69.5 -172t-98 -144.5t-135.5 -100t-182 -37.5q-70 0 -136 22.5t-124.5 61.5t-106.5 92t-83 114.5t-54 129t-19 135.5q0 95 36.5 177t98 150t143 121t171 89.5t181.5 55.5t175 19q32 0 67 -3t69.5 -11.5t66 -22.5t55.5 -37
q93 -83 138 -197t45 -239v2zM1026 971q0 -34 -18 -65.5t-46.5 -55t-63 -37.5t-67.5 -14q-34 0 -63.5 17t-52.5 42.5t-40.5 57t-29.5 59.5q2 0 4 -1t4 -1q27 0 61 23.5t69.5 52t71 52t65.5 23.5q18 0 37 -18t34.5 -42.5t25 -50.5t9.5 -42zM1663 1149q0 76 -14 150.5
t-42.5 144.5t-71 133t-99.5 115q-36 32 -78 53.5t-88 34t-94 17.5t-95 5q-96 0 -198.5 -20.5t-201.5 -59.5t-189.5 -96.5t-163 -131.5t-122 -163.5t-65.5 -193.5q-25 0 -45.5 -18.5t-36.5 -47.5t-27 -65.5t-18 -72.5t-10.5 -67.5t-3.5 -50.5q0 -102 30.5 -194.5t84.5 -172.5
t128 -145t160.5 -111t182 -71t192.5 -25q122 0 234.5 47t211 126.5t179.5 184.5t138.5 222t89.5 239t32 234z" />
    <glyph glyph-name="quotesingle" unicode="'" horiz-adv-x="160" 
d="M23 1360v-2v2zM23 1360v-2v2zM172 1444q-2 12 -2 20v15v22q0 6 -0.5 20.5t-5.5 51.5q0 2 -1 3.5t-1 4.5t1 6t1 6q2 5 2 8.5v8.5q0 29 -21.5 51t-52.5 22h-2q-23 -1 -37 -10.5t-22 -24.5t-10.5 -34t-2.5 -37v-12q2 -53 2 -75v-30v-2v-2q1 0 2 -3q1 -2 2 -7t3 -14
q0 -7 1 -14t1 -13q0 -12 -1.5 -25t-4.5 -22q-5 -8 -7 -17t-2 -18v-2q0 -29 21.5 -49.5t50.5 -20.5h2q28 1 44.5 16t25.5 37.5t11.5 49t2.5 51.5v39z" />
    <glyph glyph-name="parenleft" unicode="(" horiz-adv-x="453" 
d="M438 1096q2 5 2 9v7q0 25 -15 45.5t-40 26.5q-5 2 -9 2h-9q-17 0 -32 -8.5t-26 -22.5q-48 -59 -97 -108.5t-91 -100t-75 -106.5t-50 -129q-5 -20 -6.5 -39t-1.5 -37q0 -56 22 -103t64 -98q49 -62 111 -100.5t141 -38.5h2q24 0 43.5 15t25.5 40v17q0 24 -15 44.5t-40 26.5
h-6h-4q-6 0 -8 2q-41 20 -63.5 34.5t-37.5 30.5t-27 36.5l-32 52.5q-1 2 -5 11.5t-8 20t-8.5 19.5t-7.5 10v9v9t2 9q10 44 35.5 87.5t57.5 84t67.5 77.5l65.5 68.5t51 56t24 40.5z" />
    <glyph glyph-name="parenright" unicode=")" horiz-adv-x="479" 
d="M432 659q0 75 -19 138t-49 122t-66 118t-71 126q-19 45 -67 45q-29 0 -50.5 -21t-21.5 -50q0 -17 15 -46t37 -66.5l48.5 -81.5t48.5 -90.5t37 -95t15 -93.5q0 -7 -1 -14t-3 -13q-3 -1 -9 -8.5t-12.5 -16.5t-12 -17.5t-7.5 -10.5l-43.5 -44t-34.5 -29t-43 -21t-70 -19
l-2 -2q-5 0 -9 2t-7 2q-31 0 -52.5 -21.5t-21.5 -52.5q0 -24 15.5 -43.5t39.5 -25.5q16 -5 32 -6.5t32 -1.5q59 0 112 23.5t103 62.5q34 26 59.5 52t43 56t26 65t8.5 78z" />
    <glyph glyph-name="asterisk" unicode="*" horiz-adv-x="862" 
d="M924 1237q0 29 -21.5 50.5t-50.5 21.5q-25 0 -63.5 -6t-80.5 -14l-82 -16l-67 -13l54.5 80.5t62.5 74.5q11 11 17.5 24.5t6.5 30.5q0 29 -21 50.5t-50 21.5q-23 0 -39.5 -11.5t-30.5 -27.5q6 31 15.5 65.5t9.5 65.5t-21.5 52.5t-50.5 21.5q-28 0 -46.5 -16.5t-25.5 -42.5
q-20 -78 -34 -157.5l-29 -160.5l-67.5 132.5t-59.5 135.5q-9 23 -27 36.5t-43 13.5q-29 0 -50 -21.5t-21 -50.5q0 -11 10.5 -39t27 -65l36 -78l38 -78l33 -65.5t20.5 -41.5l-223 -39q-26 -5 -42.5 -25t-16.5 -46q0 -15 6 -28t15.5 -22.5t22.5 -15.5t27 -6q41 0 87.5 10.5
t87.5 18.5l-22 -31l-31.5 -44l-37 -49.5l-38 -47.5t-34.5 -38t-26 -22q-17 -11 -28 -28t-11 -37q0 -15 6 -28t16 -23.5t23.5 -16.5t28.5 -6q26 0 56.5 24t59.5 57t54 66.5l39 51.5l-19 -106t-10 -107q0 -29 21.5 -50.5t50.5 -21.5q31 0 52.5 21.5t21.5 50.5q0 55 11.5 115
t20.5 114l21.5 -37.5t30.5 -50.5l36 -54.5t39 -50t40 -37t38 -14.5q15 0 28 6t23.5 16t16.5 23.5t6 28.5q0 16 -7 29t-18 24q-23 23 -50.5 64.5t-55 88l-52 91l-40.5 74.5l366 63q26 5 43 25.5t17 46.5z" />
    <glyph glyph-name="plus" unicode="+" horiz-adv-x="524" 
d="M369 631l-2 2zM307 827h-2v-2zM477 694q0 30 -17.5 47.5t-43.5 26.5t-56 11.5t-55 2.5h-6q2 13 2.5 24.5t3.5 20.5q3 4 5 15.5t3 25t1.5 25.5t0.5 16q0 29 -21 51.5t-50 22.5q-31 0 -49 -24t-27 -58.5t-11.5 -72t-2.5 -64.5q-10 -2 -19.5 -3t-21.5 -3h-4q-5 0 -8.5 1
t-8.5 1q-5 2 -9 2h-9q-29 0 -51.5 -20.5t-22.5 -51.5q0 -25 10.5 -40.5t27.5 -23.5t37.5 -11t39.5 -3q20 0 34 1t25 1q2 -9 2 -19t2 -24v-12v-53q-2 -5 -3 -9.5t-1 -11.5q0 -16 6 -33t16 -30.5t23.5 -22t28.5 -8.5q24 0 39 14t23.5 35t11 45t2.5 43q0 30 -1 49.5t-2.5 31.5
t-3.5 18t-4 10q14 0 29.5 -0.5t26.5 -5.5q17 -10 37 -10q29 0 50 21t21 52z" />
    <glyph glyph-name="comma" unicode="," horiz-adv-x="326" 
d="M262 100v31q0 33 -2.5 71t-13 70.5t-32.5 54t-60 21.5q-29 0 -50.5 -21.5t-21.5 -52.5q0 -11 5.5 -18.5t12 -23t12 -45.5t5.5 -87q0 -38 -8 -70t-26 -55t-47 -36t-71 -13h-6q-19 0 -38 -1.5t-34 -8t-24.5 -21t-9.5 -40.5q0 -25 10.5 -39.5t27 -22t36.5 -10t38 -2.5
q73 0 128.5 24t93 67t56.5 101.5t19 126.5z" />
    <glyph glyph-name="hyphen" unicode="-" horiz-adv-x="518" 
d="M473 700q0 30 -18 47.5t-44.5 26.5t-56.5 11.5t-55 2.5h-16q-29 0 -45.5 -2.5t-32.5 -6t-37 -7.5t-59 -8h-7q-5 0 -8 1t-8 1q-5 2 -9 2h-9q-29 0 -51.5 -20.5t-22.5 -51.5q0 -24 10.5 -39.5t26.5 -24t36 -11.5t39 -3h3q34 0 54.5 4t38 8.5t36.5 8.5t49 4h2h36.5t36.5 -6
q18 -10 37 -10q29 0 51.5 21t22.5 52z" />
    <glyph glyph-name="period" unicode="." horiz-adv-x="272" 
d="M209 334q0 18 -6.5 35t-18.5 29.5t-28 20t-35 7.5q-25 0 -47.5 -14t-38.5 -35t-25.5 -46t-9.5 -48q0 -19 6.5 -37t18.5 -31t28 -21t35 -8q26 0 48.5 14t38.5 36t25 48t9 50z" />
    <glyph glyph-name="slash" unicode="/" horiz-adv-x="864" 
d="M926 1579q0 15 -6 28t-16 23.5t-23.5 16.5t-28.5 6q-26 0 -44 -15.5t-26 -40.5q-6 -19 -23 -51t-39.5 -70.5l-48.5 -79.5l-50.5 -79.5l-45.5 -70l-34 -50.5l-70.5 -104l-94.5 -142.5l-105.5 -161.5l-102 -163.5t-83.5 -147.5t-52 -112q-16 -41 -25.5 -83t-9.5 -85
q0 -19 3.5 -36t12.5 -30t23 -21t35 -8q29 0 51 21.5t22 50.5q0 3 -1 6t-1 6v13q0 36 22 93.5t59.5 129t87.5 155l106.5 171.5l116 178l116 175l106.5 162.5l87.5 140.5t59.5 108.5t22 66.5z" />
    <glyph glyph-name="zero" unicode="0" horiz-adv-x="1108" 
d="M915 942q0 -120 -42 -216.5t-113 -172.5t-165 -132.5t-198 -94.5l-90.5 -34t-91.5 -20h-20h-2q-15 0 -24.5 7.5t-15 18.5t-7 25t-1.5 27q0 24 17.5 62.5t47.5 86.5t69 102l81.5 108.5l85.5 108l81 99.5l68.5 82.5l47.5 57.5q8 9 13.5 21t5.5 26q0 17 -9 33q49 -4 96 -13
t84 -30t59.5 -57t22.5 -95zM1061 942q0 96 -36.5 161.5t-97.5 105.5t-140 57.5t-164 17.5q-36 0 -62 -17t-26 -59q0 -22 16 -43q-9 -5 -31 -29l-50.5 -57.5l-60.5 -72.5l-60.5 -74.5l-50.5 -63l-30 -37.5l-45 -60l-57 -78.5t-59.5 -89t-53 -91.5t-38.5 -87t-15 -75
q0 -46 12.5 -86.5t37 -71t62 -48t87.5 -17.5q51 0 111 14.5t122.5 39t125.5 57t120.5 69t105.5 75t82 73.5q96 100 145.5 224t49.5 263z" />
    <glyph glyph-name="one" unicode="1" horiz-adv-x="688" 
d="M737 1264q0 31 -21 52t-52 21q-26 0 -44 -15t-26 -40q-7 -19 -22.5 -48t-36.5 -63l-44.5 -70l-46.5 -70l-42.5 -62.5l-32.5 -46.5l-88.5 -128.5l-96 -142.5t-87.5 -146t-64 -140q-16 -41 -25.5 -83t-9.5 -85q0 -19 3.5 -36t12.5 -30t23 -21t35 -8q29 0 51 21.5t22 50.5
q0 3 -1 6t-1 6v15q0 44 25.5 107.5t67.5 138t95 156.5l109 164l109 160l95 144t67.5 116t25.5 77z" />
    <glyph glyph-name="two" unicode="2" horiz-adv-x="1090" 
d="M1038 311q0 29 -15 45.5t-37 25t-48 11t-47 2.5q-51 0 -99.5 -6.5t-95 -17t-93.5 -24l-95 -28.5l-52 -17t-76 -24t-75 -21t-49 -9h-4l111 105.5l135.5 134t140 152t124.5 159t89.5 155.5t34.5 140q0 56 -25 98t-65.5 70.5t-91 42.5t-101.5 14q-48 0 -106 -17t-115 -37.5
l-108 -37.5t-87 -17q-31 0 -52 -21t-21 -52q0 -29 21 -50.5t52 -21.5q48 0 101.5 16.5t107.5 36.5t106.5 36.5t98.5 16.5q16 0 39.5 -3.5t45 -12t37 -22.5t15.5 -35q0 -47 -24 -99.5t-59 -103.5t-74 -96.5l-68 -77.5l-62 -67.5l-76.5 -81l-83.5 -86.5l-84.5 -84t-79 -72.5
t-67.5 -53.5q-21 -15 -37 -34.5t-16 -48.5q0 -34 17.5 -52.5t44 -27t56.5 -10t54 -1.5q95 0 183 23t175 51t175 51t182 23h4q9 0 18 -0.5t17 -3.5t15.5 -5.5t17.5 -2.5q29 0 50 22t21 51z" />
    <glyph glyph-name="three" unicode="3" horiz-adv-x="1069" 
d="M518 1354h-2h2zM1147 1286q0 36 -22 65t-55.5 50t-72 32t-71.5 11q-26 0 -61 -6.5t-73 -16.5t-77.5 -22l-75.5 -22t-66 -16.5t-49 -6.5h-8q-5 2 -9 2h-9q-29 0 -51.5 -21t-22.5 -53q0 -20 8 -34t21.5 -23t30 -13t34.5 -4q50 0 102.5 14t105 31t103.5 31t97 14
q18 0 35.5 -3.5t31.5 -18.5q-11 -19 -33.5 -48t-51 -62.5l-60.5 -68t-63.5 -64t-59.5 -51.5t-47 -30q-31 -12 -53.5 -31.5t-22.5 -54.5q0 -26 11.5 -44t30 -30.5t42 -21.5l47 -17.5t44.5 -17.5t36 -22q3 -10 3.5 -20t0.5 -21q0 -71 -27 -137t-72 -122t-102.5 -100
t-117.5 -71q-25 -12 -55 -24t-61 -21.5t-62 -16t-60 -6.5t-54.5 8.5t-45.5 30.5q18 12 41 18q21 8 35 27.5t14 42.5q0 15 -6 28t-16 23.5t-23.5 16.5t-28.5 6q-26 0 -57.5 -14t-58.5 -36.5t-45.5 -50t-18.5 -55.5q0 -42 27.5 -77t67.5 -60t85 -39t80 -14q37 0 76 6.5
t77.5 18t76 26t71.5 29.5q81 36 154.5 93.5t130 131t90 159.5t33.5 179q0 43 -8.5 73.5t-26 54t-45 41t-66.5 33.5q21 16 53 45.5t68.5 66.5t73.5 78.5t66.5 82t48 77t18.5 62.5z" />
    <glyph glyph-name="four" unicode="4" horiz-adv-x="1380" 
d="M1479 1729q0 30 -21.5 51.5t-52.5 21.5q-22 0 -35.5 -9t-26.5 -26q-19 -23 -39 -54t-39.5 -64.5l-38 -66.5l-34.5 -60l-155.5 -252.5l-151.5 -253.5l-82 -144q-27 -7 -68.5 -19l-90.5 -25.5l-101 -27t-100 -24t-89 -17.5t-67 -7q-32 0 -66 6.5t-63 21.5q14 18 32.5 50.5
t39 72.5t40 84.5t35.5 86t25.5 76.5t9.5 56q0 14 -4 28t-12 25.5t-20 19t-28 7.5q-34 0 -53.5 -14.5t-27.5 -48.5q-6 -30 -23.5 -82.5t-40.5 -108t-48 -103t-46 -67.5q-20 -18 -31.5 -38t-11.5 -48q0 -32 15 -57t39.5 -43.5t55.5 -32t63.5 -21.5t64 -12t55.5 -4q48 0 101 9
t106.5 22t105.5 28t98 27l-39 -68.5l-57 -102.5l-63.5 -120t-59.5 -121.5t-44 -107t-17 -76.5q0 -19 6 -36.5t17 -30.5t27 -21t36 -8t44 14t44.5 34.5t34.5 44t14 42.5t-10 37.5t-29 26.5q65 143 142 279l155 272q21 6 55.5 13.5t66.5 20t55.5 32t23.5 48.5t-22.5 50.5
t-51.5 21.5h-9t-9 -2l230 378.5l228 377.5q13 17 13 39z" />
    <glyph glyph-name="five" unicode="5" horiz-adv-x="1229" 
d="M1210 1194h-2l-2 2zM1317 1260q0 30 -18.5 47.5t-44.5 26t-55.5 10.5t-51.5 2q-65 0 -129 -5.5t-127 -11.5q-60 -6 -121 -11t-121 -5q-22 0 -57 -16.5t-76 -42t-84 -56.5l-82 -61l-70 -55l-47 -38q-13 -11 -21.5 -28t-13.5 -36.5t-7.5 -39t-2.5 -35.5q0 -99 51 -175
t142 -114q17 -6 45.5 -20.5t55.5 -33.5t47 -41.5t20 -45.5q0 -27 -21.5 -55t-55.5 -54.5t-76.5 -49.5t-84.5 -40.5t-79.5 -27.5t-61.5 -10q-8 0 -15 0.5t-14 3.5v4q0 12 4.5 24.5t4.5 26.5q0 29 -21.5 50.5t-52.5 21.5q-25 0 -41 -12t-25 -30.5t-12.5 -40t-3.5 -40.5
q0 -39 14.5 -68t38.5 -48t56.5 -28.5t68.5 -9.5q45 0 101 14.5t114 40t113.5 61t98.5 78t69 90.5t26 99t-25 95t-63.5 79t-85 61.5t-88.5 43.5q-48 20 -73 59.5t-25 91.5q0 10 1 18.5t3 16.5l35 27.5l57 44l68.5 51.5l68.5 49.5t56.5 38t33.5 16.5q59 8 122.5 9.5t123.5 7.5
l124 10.5t124 5.5h12q13 0 23.5 -0.5t21.5 -5.5q8 -3 17 -5.5t18 -2.5q15 0 28 6t23.5 16t16.5 23.5t6 28.5z" />
    <glyph glyph-name="six" unicode="6" horiz-adv-x="631" 
d="M403 240q0 -11 -15 -17t-34 -9t-37 -4t-24 -1q-28 0 -51 3.5t-40 13.5t-27 28.5t-13 48.5q25 12 50.5 19.5t53.5 7.5q20 0 44 -5t44.5 -15.5t34.5 -28t14 -41.5zM676 1196q0 15 -6 28t-16.5 23.5t-23.5 16.5t-28 6q-30 0 -51 -23q-27 -24 -67 -65.5l-85 -91l-91.5 -104.5
l-87 -106.5t-71 -97t-43.5 -75.5q-32 -78 -57 -161.5t-33 -166.5q-6 -8 -9 -18t-3 -21q0 -20 10 -37q10 -123 84.5 -181.5t194.5 -58.5q43 0 88.5 7.5t82.5 27.5t61 54.5t24 87.5q0 57 -24.5 101t-64.5 74t-90.5 45t-103.5 15q-21 0 -43.5 -2.5t-44.5 -7.5q13 48 29 96
t35 94q11 26 39.5 66t67 87l83 97l87 96l78.5 84l58 60q21 23 21 51z" />
    <glyph glyph-name="seven" unicode="7" horiz-adv-x="821" 
d="M18 129l-4 -2l2 2h2zM881 1241q0 32 -16.5 50t-41 27t-52.5 11t-52 2q-62 0 -124.5 -7.5t-124.5 -16t-124.5 -16t-124.5 -7.5q-8 0 -16.5 0.5t-16.5 3.5q-6 2 -13 3t-15 1q-29 0 -50.5 -21t-21.5 -50q0 -28 13.5 -44t34 -24.5t44 -11t43.5 -2.5q60 0 119.5 6.5t118.5 15
t117.5 16t117.5 9.5q-55 -84 -117 -162.5l-124 -157.5l-105 -131.5t-96 -138.5q-15 -24 -35.5 -64.5l-43 -88.5l-46.5 -98.5l-45.5 -94l-39 -76.5t-28.5 -45q-12 -11 -19 -25.5t-7 -29.5q0 -31 21.5 -52.5t51.5 -21.5q13 0 24 4t22 12q15 11 37 46t46.5 82.5l51 103
l51.5 108l47 97t37 69.5q40 66 91 129l99 125l42.5 53l63 79l71.5 93t67 95t49 84.5t19 60.5z" />
    <glyph glyph-name="eight" unicode="8" horiz-adv-x="883" 
d="M602 422q0 -51 -28 -83.5t-69.5 -52t-89 -27t-87.5 -7.5q-17 0 -47.5 3t-60.5 11t-52.5 22.5t-22.5 37.5q0 13 20.5 42.5t52.5 66.5t70 77l73 76l62 62.5l36 35.5q24 -24 49.5 -54.5t46.5 -65t34 -71t13 -73.5zM799 1161q0 -30 -19 -60t-49 -58.5t-68 -55t-76 -49.5
l-71.5 -41.5t-56.5 -32.5q-15 8 -33.5 19.5t-35.5 25.5t-28.5 31t-11.5 35q0 30 20 59.5t52 56.5t72.5 50.5t82 40.5t80.5 27t68 10q34 0 54 -10t20 -48zM946 1157q0 51 -16 90t-45.5 65.5t-70 40t-89.5 13.5q-47 0 -104 -14t-115 -39.5t-112 -61.5t-96 -79.5t-67.5 -93
t-25.5 -103.5q0 -34 10.5 -64t28 -56t41.5 -47.5t51 -39.5l-56 -54.5l-71 -71l-74.5 -81t-67.5 -85t-48.5 -83t-18.5 -74.5q0 -60 32.5 -101t81.5 -66t106 -35.5t106 -10.5q73 0 148 17.5t136 55.5t99.5 98t38.5 145q0 49 -14 96.5t-36.5 91.5t-52 84t-61.5 74l115 67.5
t118 87t92 107t37 127.5z" />
    <glyph glyph-name="nine" unicode="9" horiz-adv-x="758" 
d="M627 1116q0 -18 -1.5 -31.5t-5 -26t-8.5 -25l-12 -29.5q-31 -16 -64.5 -38.5t-68.5 -43.5t-71 -35.5t-72 -14.5q-20 0 -45 8t-47 22.5t-37 33.5t-15 41q0 19 10.5 43.5t26 49t32.5 46t30 33.5q43 45 99 70.5t118 25.5q69 0 100 -30.5t31 -98.5zM774 1116q0 65 -19 116
t-55 86t-87.5 54t-116.5 19q-69 0 -132.5 -20.5t-117.5 -57t-97.5 -87.5t-74.5 -112q-16 -31 -27.5 -66.5t-11.5 -70.5q0 -54 25.5 -99.5t66 -79t91 -52.5t101.5 -19q45 0 88.5 13t84.5 30q-44 -82 -92 -158t-103.5 -145t-120.5 -130t-143 -112q-19 -12 -28 -27t-9 -36
q0 -31 21.5 -52.5t50.5 -21.5q16 0 36 10q99 56 184.5 140.5t158.5 183.5t132.5 205.5t106.5 208.5l39.5 86.5t34.5 91.5q8 25 11 50.5t3 51.5z" />
    <glyph glyph-name="colon" unicode=":" horiz-adv-x="299" 
d="M209 334q0 18 -6.5 35t-18.5 29.5t-28 20t-35 7.5q-25 0 -47.5 -14t-38.5 -35t-25.5 -46t-9.5 -48q0 -19 6.5 -37t18.5 -31t28 -21t35 -8q26 0 48.5 14t38.5 36t25 48t9 50zM254 897q0 18 -6.5 35t-18.5 29.5t-28 20t-35 7.5q-25 0 -47.5 -14t-38.5 -35t-25.5 -46
t-9.5 -48q0 -19 6.5 -36.5t18.5 -30.5t28 -21t35 -8q26 0 48.5 14t38.5 36t25 47.5t9 49.5z" />
    <glyph glyph-name="semicolon" unicode=";" horiz-adv-x="326" 
d="M262 100v31q0 33 -2.5 71t-13 70.5t-32.5 54t-60 21.5q-29 0 -50.5 -21.5t-21.5 -52.5q0 -11 5.5 -18.5t12 -23t12 -45.5t5.5 -87q0 -38 -8 -70t-26 -55t-47 -36t-71 -13h-6q-19 0 -38 -1.5t-34 -8t-24.5 -21t-9.5 -40.5q0 -25 10.5 -39.5t27 -22t36.5 -10t38 -2.5
q73 0 128.5 24t93 67t56.5 101.5t19 126.5zM276 897q0 37 -24.5 64.5t-63.5 27.5q-25 0 -47 -14t-38 -35t-25.5 -46t-9.5 -48q0 -19 6.5 -36.5t18 -30.5t28 -21t35.5 -8q26 0 48 14t38 36t25 47.5t9 49.5z" />
    <glyph glyph-name="less" unicode="&#x3c;" horiz-adv-x="610" 
d="M557 899q6 9 8 18.5t2 20.5q0 19 -7.5 34.5t-24.5 26.5q-19 13 -37 13q-11 0 -22.5 -3t-20.5 -10l-124 -74l-111 -70t-103.5 -72.5t-100.5 -82.5q-23 -21 -34 -45t-11 -47q0 -40 28 -78t73 -67l97 -61.5t81 -46t86 -37.5t110 -35q7 -3 12 -3.5t11 -0.5q19 0 34.5 7.5
t26.5 24.5q7 10 9 19t2 20q0 40 -33 62q-3 3 -7 4.5l-9 3.5l-102 36t-76.5 32.5t-72.5 40l-91 57.5q-13 6 -21 14q2 6 3.5 13t6.5 12q27 21 65.5 45.5l82 50.5l87.5 52l81.5 49.5t65 43t36.5 33.5z" />
    <glyph glyph-name="equal" unicode="=" horiz-adv-x="553" 
d="M109 682l-5 2h2zM504 641q0 15 -6 28.5t-16.5 23.5t-23.5 16t-28 6q-12 0 -24 -6q-22 -7 -55 -12.5t-68 -9t-68 -5.5t-57 -2h-11q-9 0 -20 0.5t-21 3.5q-8 5 -16 6.5t-16 1.5q-31 0 -52.5 -21t-21.5 -50q0 -31 18 -48.5t44.5 -26t55.5 -10t50 -1.5q26 0 65 2.5t81 7.5
t80.5 12t62.5 16q20 8 33.5 26.5t13.5 41.5zM504 809q0 29 -15 46t-37.5 25.5t-48 10.5t-47.5 2q-29 0 -58 -1t-58 -3q-23 -2 -46 -3t-44 -1q-5 0 -10.5 2t-8.5 2q-2 0 -2 -2q-5 2 -9.5 2h-10.5q-28 0 -50 -20.5t-22 -51.5q0 -25 10.5 -40.5t27 -23.5t37 -11t40.5 -3
q51 0 102.5 4.5t103.5 4.5q20 0 37 -5.5t35 -5.5q31 0 52.5 21.5t21.5 50.5z" />
    <glyph glyph-name="greater" unicode="&#x3e;" horiz-adv-x="659" 
d="M557 582q45 41 45 92q0 40 -27.5 77t-72.5 66l-97.5 62t-81.5 46.5t-85.5 38t-110.5 35.5q-5 2 -10.5 3.5t-12.5 1.5q-18 0 -34 -9t-27 -24q-10 -22 -10 -39q0 -40 33 -64q5 -2 8 -4t8 -4q61 -20 102 -35t76.5 -32.5t72.5 -39.5t91 -57q6 -3 10.5 -7t9.5 -9
q-2 -6 -3.5 -12.5t-6.5 -10.5q-26 -21 -65 -46l-82.5 -51l-87.5 -51.5l-81.5 -49t-65 -43t-36.5 -33.5q-10 -20 -10 -39t8.5 -35.5t24.5 -25.5q17 -13 39 -13t41 13l124.5 72.5t111.5 70t103 73.5t99 83z" />
    <glyph glyph-name="question" unicode="?" horiz-adv-x="733" 
d="M209 379q0 18 -6.5 35t-18.5 29.5t-28 20t-35 7.5q-25 0 -47.5 -14t-38.5 -35t-25.5 -46t-9.5 -48q0 -19 6.5 -37t18.5 -31t28 -21t35 -8q26 0 48.5 14t38.5 36t25 48t9 50zM784 1237q0 45 -17 76.5t-45.5 51.5t-65 29t-76.5 9q-27 0 -67 -4.5t-83.5 -14.5t-87 -25.5
t-78.5 -37t-56.5 -49t-21.5 -62.5q0 -31 16.5 -57t42.5 -45t57 -29t60 -10t50.5 22.5t21.5 51.5q0 25 -15 44.5t-40 24.5q46 19 98.5 32t100.5 13q14 0 32 -2t29 -10v-6q0 -45 -39 -96t-97.5 -104.5t-126.5 -107.5t-126.5 -105t-97.5 -96.5t-39 -82.5q0 -15 6 -28t16 -23.5
t23 -16.5t28 -6q23 0 42.5 14.5t27.5 37.5q7 21 33.5 48t65 59l85.5 68l94.5 76t92.5 83t80 88.5t56 93t21 96.5z" />
    <glyph glyph-name="at" unicode="@" horiz-adv-x="1409" 
d="M813 993q-25 -6 -39 -25.5t-14 -43.5q0 -18 -2.5 -48.5t-8 -66.5t-15 -72t-23.5 -66t-33 -48.5t-43 -18.5q-34 0 -44.5 19.5t-10.5 48.5q0 26 7.5 63.5t22 78.5t35 81.5t45.5 73t54.5 52t62.5 19.5h4zM1364 748q0 30 -21.5 51.5t-50.5 21.5q-26 0 -45.5 -15t-25.5 -40
q-12 -42 -32.5 -87.5t-45.5 -90t-53 -86t-54 -74.5q-21 -27 -55 -47t-75 -33.5t-87 -22t-91 -13t-86 -6t-73 -1.5q-123 0 -204.5 19.5t-130 69t-69 133.5t-20.5 212q0 105 29 203t81.5 184t125 156.5t159.5 121.5t185.5 79t202.5 28q55 0 100.5 -11.5t78.5 -36.5t51 -65.5
t18 -99.5q0 -56 -17.5 -127t-46.5 -141.5t-66 -133.5t-77 -103q-5 20 -6.5 42.5t-1.5 45.5t1 47t1 47q0 41 -4.5 79.5t-20.5 68t-46.5 47.5t-82.5 18q-63 0 -118 -26.5t-97 -74.5q-29 -34 -58 -87t-51.5 -111.5t-36.5 -116.5t-14 -102q0 -45 14 -84t40 -67t63.5 -44
t85.5 -16q46 0 82.5 18t65 48t48.5 68.5t33 78.5q35 -41 88 -41q36 0 70.5 22t66 57t60 79.5t52 89.5t40.5 86t27 69q23 63 37 129.5t14 132.5q0 91 -29 158.5t-81 112.5t-124 67.5t-157 22.5q-124 0 -241 -33.5t-220.5 -93.5t-189.5 -144t-148 -186t-96.5 -218t-34.5 -241
q0 -166 33 -277.5t103.5 -179.5t181.5 -97t266 -29q68 0 148 7t158.5 26.5t148 55t114.5 91.5l34 48.5t44.5 68.5l47 79.5t42.5 81.5t31 74.5t12 57.5z" />
    <glyph glyph-name="A" unicode="A" horiz-adv-x="1112" 
d="M721 1104q0 -81 -3 -159t-9 -159q-88 -45 -177.5 -85l-179.5 -78l41 90.5l55.5 117l65 128l68.5 124t66.5 104.5t58.5 70q5 -21 8 -37.5t4.5 -31.5t1.5 -30v-34v-20zM1067 872q0 15 -6 28t-16.5 23.5t-23.5 16.5t-28 6q-12 0 -29.5 -10t-36.5 -23l-37 -26.5t-30 -20.5
q3 57 5.5 114t2.5 114v32q0 41 -3.5 91.5t-18 95t-44 74.5t-81.5 30q-45 0 -88 -28.5t-80.5 -69t-66.5 -85.5t-46 -77h-2q-21 0 -36 -10t-27 -29q-16 -24 -40.5 -69l-53.5 -102.5l-61.5 -124.5l-63.5 -136l-59.5 -136t-50 -124t-34 -101t-12.5 -67q0 -40 22 -68t64 -28
q22 0 42 16.5t39 42.5t35.5 58t30.5 63t24.5 58l16.5 42h5q14 0 46.5 11t74.5 28.5l88 38.5l87.5 40.5l73.5 34.5l45 21q-3 -30 -7.5 -62.5l-9 -65.5t-8 -65t-3.5 -61q0 -30 21 -51.5t50 -21.5t48.5 17.5t25.5 45.5q9 40 14.5 83t9 86.5t6.5 87t7 83.5q13 8 34.5 19.5
l46 25.5t49 30t44.5 33.5t32.5 35.5t12.5 36z" />
    <glyph glyph-name="B" unicode="B" horiz-adv-x="803" 
d="M639 1337q-12 -28 -39 -65t-59 -74l-64 -71l-53 -56q5 11 15 27l20 33.5t17 33.5t7 27q0 25 -16 45t-39 27l48 20.5t55.5 22.5t56.5 19.5t51 10.5zM788 1362q0 30 -10.5 52.5t-28.5 38t-42 23t-52 7.5q-45 0 -101.5 -15.5t-114.5 -38.5t-111.5 -50t-91.5 -50
q-17 -11 -27 -27t-10 -36q0 -31 21 -52.5t52 -21.5q19 0 35 9.5l33 19.5q-9 -14 -28.5 -52l-45 -90.5l-55.5 -116.5l-59.5 -130l-57 -130t-48.5 -118t-33.5 -93t-12.5 -55q0 -28 23 -47.5t51 -19.5q23 0 47 16q12 11 17.5 22.5t8.5 28.5q4 20 15 49.5l25 64l30.5 72l32 72.5
l29 65l22.5 50q21 -6 62.5 -7t87.5 -3.5t88.5 -10.5t66.5 -28q-8 -38 -39.5 -89t-72 -102.5t-82 -97t-70.5 -72.5q2 7 2 11.5v9.5q0 29 -21 50.5t-53 21.5q-24 0 -50.5 -23t-48.5 -55t-36 -66.5t-14 -58.5q0 -50 33.5 -76.5t81.5 -26.5q42 0 96.5 31.5t112 82.5t113 114.5
t99 128t70.5 123.5t27 100q0 47 -26 78.5t-64.5 51.5t-82.5 30.5t-81 15.5q35 33 84 84t94.5 109t77.5 117.5t32 109.5z" />
    <glyph glyph-name="C" unicode="C" horiz-adv-x="752" 
d="M705 1018q0 9 1 21t1 24q0 40 -3.5 86.5t-17 87t-40.5 67.5t-73 27q-48 0 -104 -28.5t-113 -75.5t-111.5 -106t-99.5 -119.5t-77.5 -117.5t-44.5 -100q-23 -72 -23 -147q0 -78 28 -133t75.5 -89t110 -49.5t132.5 -15.5q31 0 68.5 3t76 9t75.5 14.5t67 18.5
q22 10 36.5 27.5t14.5 42.5q0 15 -6 28.5t-16.5 23.5t-23.5 16t-28 6q-6 0 -11 -1t-11 -3q-60 -17 -121.5 -27t-124.5 -10q-37 0 -72.5 5t-63.5 20t-44.5 43t-16.5 73q0 26 5.5 53t11.5 53q10 34 33.5 75.5t56 85t70.5 86.5t77.5 80t78 65t71.5 43q8 -44 9 -87.5t1 -86.5
q0 -19 1.5 -39t9 -36t22 -26t39.5 -10q28 0 43 11t22 28.5t8 39t1 42.5v2z" />
    <glyph glyph-name="D" unicode="D" horiz-adv-x="662" 
d="M614 926q0 49 -7 97.5t-22.5 94.5t-39.5 88t-58 78q-23 25 -53 49t-64 43t-70 31t-71 12q-34 0 -59 -19t-25 -54q0 -15 6 -28t16 -23.5t23.5 -16.5t28.5 -6q3 0 6 1t6 1q16 -2 35 -9.5t33 -15.5l-23.5 -55l-39 -92l-48.5 -116.5l-52.5 -129.5l-51 -129.5t-43 -116.5
t-30 -92t-11.5 -55q0 -31 22.5 -51.5t51.5 -20.5q32 0 49 20.5t22 49.5q5 25 14 52t20 54l22 53t20 50l95 237l96 236q31 -50 44 -106t13 -113q0 -126 -34.5 -231.5t-100.5 -187t-163 -137t-222 -81.5q-25 -5 -41.5 -25.5t-16.5 -46.5q0 -29 21.5 -50.5t50.5 -21.5h14
q90 16 179 54.5t166 96t137 131.5t92 161q29 80 46 166.5t17 173.5z" />
    <glyph glyph-name="E" unicode="E" horiz-adv-x="535" 
d="M483 483q0 29 -22 50.5t-51 21.5q-17 0 -45.5 -9l-62 -20.5t-69 -20.5t-67.5 -9h-9.5t-9.5 2q3 28 17.5 59.5t35 64.5l43.5 67t42 66.5t32 62.5t13 56q0 40 -20 61t-48 34t-59 22t-53 25q11 21 39 47.5t61 52.5t65.5 48.5l53.5 37.5q32 24 32 62q0 29 -21 50t-50 21
q-19 0 -51 -16.5t-68.5 -43.5t-74 -61.5t-68 -70.5t-49.5 -71t-19 -62q0 -36 15.5 -62.5t40 -45t54.5 -31t58 -21.5q-21 -37 -50 -81.5t-54.5 -92t-43.5 -95t-18 -89.5q0 -38 13.5 -65t36.5 -44t53.5 -25t64.5 -8q30 0 65 5.5t70.5 14.5t69 21t61.5 25q22 9 34.5 26.5
t12.5 40.5z" />
    <glyph glyph-name="F" unicode="F" horiz-adv-x="786" 
d="M963 1290q0 29 -14 45t-35 24.5t-45.5 10.5t-45.5 2q-41 0 -91.5 -7.5t-105.5 -20t-112.5 -29t-111.5 -35t-102.5 -38t-86.5 -38.5q-39 -14 -45 -59q-16 -103 -28 -205.5t-29 -204.5q-17 8 -37 8q-31 0 -52.5 -21t-21.5 -50q0 -18 7 -31.5t18.5 -23.5t26.5 -16t30 -11
q-5 -26 -13.5 -64t-19.5 -77.5t-24.5 -75t-28.5 -56.5q-8 -11 -13.5 -22t-5.5 -25q0 -15 6 -28t16.5 -23t23.5 -16t28 -6q27 0 49.5 23t41 59.5t33 81t25 87t18 79l11.5 55.5q29 4 65 13.5t75 22l79 26t76 24.5t65.5 18.5t49.5 7.5q3 0 5 -1t5 -1q15 0 28 6t23.5 16
t16.5 23.5t6 28.5q0 35 -25 54.5t-57 19.5q-46 0 -94.5 -12.5t-97.5 -30l-97.5 -35t-93.5 -27.5q16 88 28 175.5t23 176.5q48 20 115 44t139 45.5t140.5 36t119.5 14.5q17 0 33.5 -4t32.5 -4q31 0 52.5 21t21.5 50z" />
    <glyph glyph-name="G" unicode="G" horiz-adv-x="922" 
d="M938 1315q0 31 -21.5 52.5t-52.5 21.5q-34 0 -85.5 -34t-113.5 -90.5t-130.5 -131.5l-136.5 -156.5l-131.5 -164.5t-115 -157t-87 -133.5t-48.5 -93.5q-11 -26 -15.5 -54.5t-4.5 -56.5q0 -43 14.5 -81t40.5 -65.5t62.5 -43.5t81.5 -16q46 0 113 14t140.5 39.5t147 62
t131.5 81t94.5 96t36.5 108.5q0 35 -13 57.5t-35 36.5t-50 19.5t-58 5.5q-37 0 -84.5 -6.5t-96.5 -17.5t-94.5 -25t-80.5 -29q-23 -9 -37 -26.5t-14 -43.5q0 -29 22.5 -50t51.5 -21q17 0 56 11l87.5 24.5t99 25t90.5 12.5q-16 -26 -51 -53.5t-80.5 -53t-97.5 -48t-102.5 -39
t-95.5 -26t-76 -9.5q-29 0 -43.5 17t-14.5 44q0 30 26 83.5t69.5 120.5t100.5 143.5l119.5 153.5t127 149t122 130t104.5 97.5t75 50.5q23 9 38 26.5t15 43.5z" />
    <glyph glyph-name="H" unicode="H" horiz-adv-x="918" 
d="M756 989l-6 -4l4 2zM874 934q0 29 -21 50.5t-50 21.5q-27 0 -49 -19q-24 -12 -52 -18q4 18 15.5 63.5l25.5 103.5l29.5 121l28.5 117l21.5 91t8.5 44q0 31 -22 52.5t-51 21.5q-25 0 -44.5 -16t-25.5 -41l-74 -297l-71 -297q-71 -13 -141.5 -24t-141.5 -19q8 27 24.5 75
l36.5 106.5l40.5 121l37.5 117.5t28 96.5t11 58.5q0 31 -21 52.5t-52 21.5t-52.5 -21.5t-21.5 -50.5v-2q-4 -29 -12.5 -60t-19 -61.5t-22.5 -60.5l-22 -57l-56.5 -171.5t-54.5 -170.5q-6 0 -14 3t-16 3q-31 0 -52.5 -21.5t-21.5 -50.5t18.5 -48.5t44.5 -27.5
q-20 -75 -38.5 -156t-18.5 -161q0 -17 3.5 -34t12 -31t22 -22.5t34.5 -8.5q15 0 28.5 5.5t24 15t17 22.5t6.5 28q0 88 18 171.5t43 168.5q74 5 148.5 16l148.5 23q-3 -16 -8 -48l-11 -71l-13 -81t-15 -79t-16.5 -65t-16.5 -39q-11 -12 -17.5 -23t-6.5 -30q0 -29 22 -50.5
t51 -21.5q33 0 58 32.5t44 83t32 113t22.5 122.5t16 110.5t12.5 77.5q22 5 57.5 14t69 23t57.5 35.5t24 52.5z" />
    <glyph glyph-name="I" unicode="I" horiz-adv-x="928" 
d="M852 1210h-2h2zM969 1268q0 34 -22.5 53t-54.5 28.5t-66 12t-58 2.5q-103 0 -206.5 -10.5t-207.5 -10.5h-4q-13 0 -33.5 0.5t-41 2.5t-37.5 6.5t-25 13.5q-11 15 -26.5 24t-32.5 9q-15 0 -28.5 -6t-23.5 -16.5t-16 -23.5t-6 -28q0 -29 15.5 -49.5t40 -35t55.5 -23
t62 -13.5t59.5 -6.5t47.5 -1.5q45 0 88 2.5t87 5.5q-27 -94 -63 -191.5t-76.5 -195l-83.5 -193.5l-83 -186l-36 -2l-19 2q0 29 -21.5 49.5t-50.5 20.5q-19 0 -37.5 -10.5t-32.5 -26.5t-23 -35t-9 -37q0 -38 21 -60t52 -32.5t65.5 -13t62.5 -2.5q37 0 88 4t108.5 11.5
t118 18.5t115.5 25t101.5 30.5t76.5 35.5q17 11 27 27t10 36q0 15 -6 28t-16 23.5t-23.5 16.5t-28.5 6q-9 0 -18 -2.5t-19 -7.5q-39 -20 -81 -34.5t-85 -24.5t-87 -17t-87 -12l77.5 176l86 201.5t77.5 203.5t52 181q22 0 43 1t41 1h10q17 0 36.5 -1t33.5 -8q19 -16 45 -16
q29 0 50.5 21.5t21.5 52.5z" />
    <glyph glyph-name="J" unicode="J" horiz-adv-x="983" 
d="M1004 1374v35q0 22 -2.5 43.5t-11 38t-25 27t-45.5 10.5q-16 0 -28 -7.5t-20 -19t-12 -25.5t-4 -28q0 -115 -10.5 -236.5t-37.5 -239t-73.5 -226t-117.5 -196.5t-170.5 -151t-231.5 -90h-8h-2q-12 0 -21.5 16t-16 41t-11 55t-7 57.5t-3.5 49.5t-1 31q0 48 8.5 96.5
t8.5 85.5q0 29 -21.5 50.5t-50.5 21.5q-31 0 -49 -22.5t-27 -56.5t-11.5 -72t-2.5 -70v-37q0 -34 2.5 -76t10.5 -85.5t22.5 -84.5t37.5 -73.5t56.5 -52t79.5 -19.5h15.5t15.5 2q141 26 252.5 90t196.5 156t145 206t97.5 239.5t55 257.5t17.5 259z" />
    <glyph glyph-name="K" unicode="K" horiz-adv-x="1122" 
d="M1202 1190q0 29 -21.5 50.5t-50.5 21.5q-27 0 -41 -12.5t-26 -32.5q-10 -15 -41 -39t-76.5 -53.5t-101.5 -62.5l-115 -66l-117.5 -64.5l-109.5 -58l-90.5 -46.5l-59.5 -30l20.5 88t25.5 115l26.5 128.5t24.5 127.5t17.5 112.5t6.5 83.5q0 29 -21.5 51.5t-50.5 22.5
q-31 0 -51 -22.5t-22 -51.5q-2 -63 -16 -128.5t-25 -127.5q-23 -121 -49 -239.5l-52 -237.5q-10 -4 -24.5 -10.5t-30.5 -13t-31 -11t-26 -6.5q-31 -3 -52.5 -20t-21.5 -52q0 -32 22.5 -53t53.5 -21q18 0 35 5t32 10q-4 -20 -14.5 -61t-23.5 -85t-26.5 -83t-25.5 -54
q-11 -14 -17.5 -23.5t-6.5 -29.5q0 -29 22 -50.5t51 -21.5t54.5 29t47 74.5t39 100t30.5 105.5t21.5 91.5l12.5 58.5q18 -35 48 -78t68 -86.5t82 -85t90 -73t92 -51t89 -19.5q15 0 29 5t25 14t17.5 22t6.5 28q0 34 -19.5 52.5t-50.5 23.5q-29 5 -63.5 23.5t-70.5 45.5
t-71 60.5t-64.5 68t-51 68t-31.5 60.5l76 37.5l105 53l123 64.5l128.5 72t122 75t105 73t76 66.5t34.5 56.5v16z" />
    <glyph glyph-name="L" unicode="L" horiz-adv-x="893" 
d="M829 451q0 29 -21 51t-52 22q-5 0 -9.5 -1t-9.5 -3l-134 -34t-146 -35.5t-146.5 -27.5t-136.5 -11q-8 0 -14 1t-13 1q-3 6 -3.5 13t-0.5 13q0 46 21.5 111t54.5 138t70.5 146.5l70.5 136.5t54.5 108.5t21.5 62.5q0 31 -21.5 52.5t-52.5 21.5q-23 0 -39.5 -13t-27.5 -33
l-53 -103.5l-63.5 -123.5l-64.5 -133.5t-57.5 -135t-41 -128t-15.5 -111.5q0 -88 44.5 -128t131.5 -40q66 0 144 10t158 26.5t157 36.5t141 40q23 6 38 25t15 45z" />
    <glyph glyph-name="M" unicode="M" horiz-adv-x="1294" 
d="M1247 303q0 31 -21.5 52.5t-51.5 21.5q-16 0 -29.5 -6.5t-24.5 -16.5l-2 -2q-10 19 -12 50t-2 53q0 136 24 271t52 269q0 3 1 7.5t1 9.5q0 29 -21.5 50t-52.5 21q-26 0 -44 -14t-26 -39q-14 -41 -48 -94t-81 -109t-103.5 -109.5t-114 -95.5t-112.5 -68t-100 -26
q-10 0 -14 2q-8 10 -9 22t-1 23q0 46 13.5 103.5t33.5 118.5t43 120.5l43 109l33.5 84.5t13.5 46q0 15 -6 28t-16 23.5t-23.5 16.5t-28.5 6q-18 0 -35 -9.5t-26 -25.5l-121 -195l7 23.5t7 27t5.5 27t2.5 23.5q0 14 -4.5 28t-13.5 25t-22 18t-29 7q-32 0 -52.5 -19t-23.5 -51
q-5 -41 -26 -108t-49.5 -144.5l-60 -158l-58.5 -149.5t-44.5 -118t-17.5 -63q0 -29 21.5 -50.5t52.5 -21.5q18 0 34 9t27 26l178 286q-2 -9 -2 -18v-18q0 -39 8 -75t27 -63.5t50.5 -44t78.5 -16.5q67 0 137 29.5t136.5 74.5t125 98t101.5 99q-8 -54 -12.5 -107.5
t-4.5 -107.5q0 -38 5 -85t21 -87.5t47 -68t83 -27.5q32 0 62.5 15t52.5 40q9 9 13.5 22t4.5 25z" />
    <glyph glyph-name="N" unicode="N" horiz-adv-x="1053" 
d="M1094 1327q0 15 -6 28t-16 23.5t-23.5 16.5t-28.5 6q-28 0 -47 -18t-25 -44t-15 -72t-21.5 -103l-28 -122t-33.5 -130t-39 -126t-44 -110t-48.5 -83t-52.5 -44q-28 -12 -62 -12q-38 0 -68.5 23t-54.5 61.5t-41.5 89.5t-30.5 107t-22 113.5t-15 109.5t-9.5 94.5t-6.5 68.5
q-2 31 -20.5 51.5t-50.5 20.5q-26 0 -42.5 -13t-27.5 -36q-7 -14 -20 -51.5t-29.5 -90.5l-35 -116.5l-37 -129.5l-35.5 -129.5l-30 -116t-20.5 -90t-7.5 -50.5q0 -31 21.5 -52.5t52.5 -21.5q29 0 49 21.5t22 50.5q2 36 14.5 89t29 109.5l33.5 109.5l28 89q9 -45 23 -96.5
t34.5 -102.5t48 -98t64 -83t82 -57.5t102.5 -21.5q65 0 115.5 25t90.5 67t70 96.5t53 113t40 117l31 107.5l15 53.5l19 71.5l20 80.5t18 80t13 72t5 54.5z" />
    <glyph glyph-name="O" unicode="O" horiz-adv-x="817" 
d="M623 829q0 -70 -31 -137t-82.5 -119.5t-118 -84t-137.5 -31.5q-31 0 -51.5 5t-33.5 17t-18.5 32t-5.5 50q0 33 5.5 68.5t14.5 71t20.5 70t23.5 65.5q9 -17 26 -27t37 -10q43 0 64 35l28 46.5t31.5 50t34.5 47.5t37 40h8q44 0 72.5 -14.5t45.5 -40t23.5 -60t6.5 -74.5z
M768 831q0 70 -17 130.5t-53 105.5t-91.5 70.5t-131.5 25.5q-12 0 -25.5 -0.5t-25.5 -3.5q0 3 1 5t1 5q0 29 -21 51.5t-53 22.5q-45 0 -89 -39t-83 -101t-72 -139t-57 -152.5t-37.5 -142.5t-13.5 -108q0 -122 66 -186t188 -64q102 0 195 43t164 115t113 166t42 196z" />
    <glyph glyph-name="P" unicode="P" horiz-adv-x="598" 
d="M641 1083q0 -35 -6 -67.5t-22 -57.5t-42 -40t-67 -15q-27 0 -53 4.5t-52 10t-52 10t-52 4.5q-11 0 -20.5 -1t-18.5 -3l10.5 78.5t15.5 82.5t25.5 78.5t40.5 66t61 45.5t87 17q41 0 69 -20t45 -51.5t24 -69t7 -72.5zM786 1081q0 67 -17 132t-53 116t-90.5 82t-129.5 31
q-48 0 -92.5 -13t-83.5 -36t-72 -55.5t-58 -71.5q-19 -31 -32 -74t-22 -89.5t-15.5 -91.5l-11.5 -81q-11 -79 -23.5 -156.5t-32 -152t-50 -145.5t-77.5 -138q-16 -19 -16 -45q0 -15 6 -28t16 -23.5t23.5 -16.5t28.5 -6t29.5 7.5t25.5 21.5q45 51 77 117t55 138t38.5 145.5
t26.5 139.5q15 -6 30 -6q8 0 14.5 2t12.5 2q26 0 52 -4.5l52.5 -9.5t53 -9.5t53.5 -4.5q72 0 125 25.5t88 69.5t52 102.5t17 125.5z" />
    <glyph glyph-name="Q" unicode="Q" horiz-adv-x="807" 
d="M520 618q-28 -31 -61.5 -58.5t-70.5 -48t-78 -32.5t-85 -12q-29 0 -45.5 7t-24 20t-9 32t-1.5 43v15q0 36 3 77t9.5 82.5t16.5 81.5t25 74q4 -32 23 -60t47.5 -52.5t62.5 -47t68.5 -43l66 -40t53.5 -38.5zM655 928q0 -50 -14.5 -97.5t-36.5 -91.5q-21 16 -60 40.5
l-80.5 50t-75.5 50t-44 40.5q7 27 22 54.5t36 49.5t48 35.5t58 13.5q69 0 108 -38t39 -107zM801 926q0 66 -21.5 120t-60 92.5t-93 59.5t-120.5 21q-38 0 -74.5 -10.5t-71.5 -30.5l25.5 34.5l33.5 48t29.5 50.5t12.5 41q0 29 -21.5 50t-52.5 21q-22 0 -40 -11.5t-28 -31.5
q-9 -20 -22.5 -38.5l-26.5 -36.5q-64 -94 -114 -175t-84.5 -163.5t-53 -174t-18.5 -206.5q0 -59 10.5 -108t36 -83.5t68.5 -53.5t108 -19q84 0 160.5 29t142.5 77q0 -19 -2 -48.5t-2 -64.5q0 -37 3.5 -76t14.5 -71t30.5 -52t50.5 -20q29 0 51 21.5t22 52.5q0 14 -5 23.5
l-11 21.5q-3 5 -4.5 18.5t-2.5 29t-1 29.5v21q0 63 4 127t4 127v15q54 74 88.5 162.5t34.5 181.5z" />
    <glyph glyph-name="R" unicode="R" horiz-adv-x="905" 
d="M662 1032q-3 -16 -23 -37t-46.5 -41.5t-52 -37.5t-38.5 -25l30.5 37.5l38.5 45t40.5 41.5t37.5 27zM856 526q0 29 -21.5 50.5t-52.5 21.5q-21 0 -41 -8t-43 -8q-32 0 -65.5 10.5t-65.5 27t-61 37t-53 39.5l66 35t76.5 45t77.5 54.5t67.5 62.5t48 68.5t18.5 72.5
q0 29 -13.5 57t-35 50.5t-49 36.5t-56.5 14t-61.5 -17t-65 -44t-64 -61t-59.5 -68.5l-52 -66t-40 -54.5q6 23 16 57.5t19.5 71t16 71.5t6.5 58q0 29 -21.5 50t-50.5 21t-51.5 -19.5t-22.5 -47.5v-4v-11v5q0 -25 -14 -80t-35 -125l-46.5 -148l-49.5 -149.5l-44 -129.5
l-30 -87q-2 -6 -3 -12.5t-1 -12.5q0 -29 21.5 -50.5t52.5 -21.5q18 0 34 10t27 25q45 68 86.5 137.5t87.5 135.5q39 -35 84.5 -69t95 -60.5t102.5 -43t107 -16.5q22 0 49.5 3.5t51.5 13.5t40.5 27.5t16.5 45.5z" />
    <glyph glyph-name="S" unicode="S" horiz-adv-x="786" 
d="M727 1096h-6h6zM807 1167q0 32 -23 53t-55 21q-25 0 -69.5 -10t-96 -28t-104.5 -42.5t-96 -53.5t-70 -61t-27 -65q0 -34 23 -57t57.5 -39.5t75.5 -29.5t77 -27t61 -31.5t28 -44.5q2 -8 2 -17v-18q0 -57 -21.5 -96t-57 -63.5t-82 -35t-97.5 -10.5q-22 0 -51 3t-57.5 9.5
t-54.5 17t-44 25.5q-12 11 -24 17t-27 6t-28.5 -6t-23.5 -16.5t-16 -23.5t-6 -28q0 -28 19 -50t49 -38.5t67 -28t74 -19t69 -10.5t52 -3q82 0 155.5 21.5t129 65t88 109.5t32.5 156q0 68 -22 112.5t-59 75t-86.5 51t-104.5 39.5q19 10 54.5 26t75 32t76.5 28t58 13
q2 -2 6 -2q31 0 52.5 21t21.5 52z" />
    <glyph glyph-name="T" unicode="T" horiz-adv-x="487" 
d="M86 1085h-8h8zM977 1149q0 26 -12 42t-30 25t-39.5 12t-41.5 3q-84 0 -168.5 -17l-165.5 -34q-3 29 -24 48t-50 19q-21 0 -36 -10t-25.5 -25t-18 -33l-14.5 -34q-32 -8 -66.5 -17.5l-69.5 -18.5t-70 -15.5t-68 -8.5q-2 2 -4 2q-29 0 -51.5 -20.5t-22.5 -52.5t23 -53
t55 -21q49 0 102 14t101 25l-26.5 -63.5l-35.5 -86l-38.5 -96.5t-35 -96t-25 -83.5t-9.5 -59.5q0 -31 20.5 -54.5t52.5 -23.5q14 0 27 5.5t23.5 14.5t17 21.5t6.5 27.5q0 18 12 58.5t31 92.5l42 110l44.5 111.5l40 96.5l27.5 64q47 10 97 22t101 22.5t101 17.5t98 7
q14 0 26 -5t27 -5q29 0 50.5 21.5t21.5 50.5z" />
    <glyph glyph-name="U" unicode="U" horiz-adv-x="596" 
d="M573 1044q0 31 -21 52.5t-52 21.5q-26 0 -47 -18q-17 -13 -32 -57t-31.5 -102.5t-37 -123t-48.5 -118.5t-65.5 -90t-88.5 -36q-7 15 -7 35q0 43 10.5 96t27 107t36 105.5t37.5 91.5q8 13 8 32q0 29 -21.5 50.5t-50.5 21.5q-43 0 -65 -39q-15 -24 -30 -60t-29 -78
t-26 -87.5t-21 -88.5t-14 -81t-5 -66q0 -37 7.5 -70t25 -58.5t46.5 -40.5t71 -15q62 0 111 24t88.5 64.5t69.5 92.5t52.5 108.5t39.5 113t30 105.5q2 8 7.5 24l11 33t9.5 31.5t4 19.5z" />
    <glyph glyph-name="V" unicode="V" horiz-adv-x="612" 
d="M631 1047l-4 -3zM655 1102q0 31 -21 52.5t-50 21.5q-14 0 -24 -4.5t-21 -10.5q-12 -8 -39 -46t-62 -93l-74 -119l-75 -124l-66 -109l-45 -72l-3 73.5l-4.5 108.5t-5.5 124t-6.5 120t-8 97t-9.5 53q-9 23 -26 37t-41 14q-31 0 -52.5 -21.5t-21.5 -52.5q0 -5 1 -10.5
t3 -10.5q7 -30 9.5 -63t3 -67t0.5 -67.5t1 -64.5q1 -19 2.5 -56.5t4 -83l5.5 -96t7 -95t9.5 -80t12.5 -51.5q11 -25 29.5 -38.5t46.5 -13.5q25 0 54 24.5t61.5 66t67 95.5l69 113l68.5 119l65.5 113t59.5 95.5t51 66.5q24 21 24 55z" />
    <glyph glyph-name="W" unicode="W" horiz-adv-x="829" 
d="M889 1020q0 29 -21.5 50.5t-50.5 21.5h-10t-10 -2q-21 -6 -44.5 -35t-47.5 -71t-47.5 -92l-44.5 -97.5l-39 -88t-31 -63.5v41v53q0 45 -2.5 96t-13.5 94t-32.5 71t-60.5 28q-27 0 -54.5 -24t-53 -62t-48.5 -84.5t-43 -91.5t-35.5 -83.5t-25.5 -59.5q-1 23 -2.5 63
t-3.5 88.5l-4 100t-5.5 97t-7.5 80t-10 48.5q-9 21 -26.5 34t-40.5 13q-31 0 -52.5 -21.5t-21.5 -50.5q0 -6 1 -12t3 -12q7 -23 9.5 -65t3.5 -95t2 -113t4.5 -119.5t10 -113.5t19.5 -96t32.5 -66.5t49.5 -24.5h12q25 1 50.5 24.5t49.5 60t46 81.5t41 89l34 81t25 58
q1 -23 1 -55.5t3 -68t10 -70.5t20.5 -63t36 -45.5t56.5 -17.5q40 0 75 34.5t66.5 87.5t59.5 117l52.5 122.5t45.5 104t39 62.5q14 14 22.5 26.5t8.5 35.5z" />
    <glyph glyph-name="X" unicode="X" horiz-adv-x="696" 
d="M651 993q0 31 -22.5 52.5t-53.5 21.5q-27 0 -65 -21.5t-77 -50.5t-73.5 -58.5l-52.5 -45.5q-8 15 -22 43.5l-31 63l-35.5 72.5t-36 70.5t-32 57t-23.5 33.5q-11 11 -24.5 17.5t-28.5 6.5q-31 0 -52.5 -21t-21.5 -52q0 -13 5 -24.5t13 -22.5q20 -26 44 -71t48 -95.5
l46 -99.5t39 -83l-29.5 -27l-40 -37.5l-44 -43t-40.5 -43.5t-29.5 -39.5t-11.5 -30.5q0 -31 21.5 -52t52.5 -21q18 0 44 19.5t54 46t52.5 53t39.5 40.5l29 -54.5l40.5 -75t49.5 -82.5t56 -75.5t58.5 -55t57.5 -21.5q15 0 28 6t22.5 16t15.5 23.5t6 27.5q0 28 -14.5 43.5
t-37.5 26.5q-11 5 -28 27.5t-37 54l-41.5 68.5l-40 71.5l-32.5 62l-21 40.5q15 15 42.5 39.5l57.5 50t59 47t48 29.5q29 2 49 23t20 50z" />
    <glyph glyph-name="Y" unicode="Y" horiz-adv-x="741" 
d="M727 993l1 1q1 1 1 3q0 28 -23 48t-51 20t-51 -21q-14 -12 -24 -28.5t-21 -30.5l-42 -58.5t-55 -71.5t-64 -73.5t-69 -65.5t-70.5 -47t-68.5 -18q-11 0 -20 2.5t-18 5.5q-5 8 -7 18t-2 19q0 35 10 78t25.5 88t33.5 88l33.5 78l25.5 59.5t10 30.5q0 31 -21.5 52.5
t-52.5 21.5q-20 0 -33.5 -8.5t-26.5 -24.5q-16 -20 -33.5 -55.5t-33.5 -78t-30.5 -90t-25.5 -92t-17.5 -83t-6.5 -64.5q0 -91 49.5 -140.5t140.5 -49.5q50 0 97.5 18.5t91 48t82 66t69.5 72.5l-23 -126.5t-29.5 -137t-43.5 -132t-66.5 -112t-98 -78t-136.5 -29.5h-14
q-16 0 -34 -1.5t-33 -8t-24.5 -19t-9.5 -34.5q0 -28 9.5 -44.5t25 -25t36.5 -10.5t44 -2q99 0 179.5 36.5t141 98t101.5 142.5t61 171q22 100 41 201l37 201q10 45 19 90t14 90v12z" />
    <glyph glyph-name="Z" unicode="Z" horiz-adv-x="879" 
d="M817 387q0 29 -21.5 50.5t-50.5 21.5q-17 0 -32 -6l-6 -4l6 4q-21 -8 -60.5 -14.5t-88 -12.5t-102.5 -10.5t-103.5 -8t-90.5 -5t-65 -1.5l75 80.5l76 79.5q17 2 47.5 2.5t67 3.5t74.5 9t69 17.5t50.5 30t19.5 46.5q0 29 -21.5 50t-52.5 21q-18 0 -33 -8l-6 -4q2 2 3 2
t3 2q-18 -6 -37.5 -8l-37.5 -4l57.5 67.5t64 84t51.5 90.5t21 86q0 32 -13.5 57.5t-36 42.5t-51 26t-58.5 9q-38 0 -78 -9.5t-79 -24.5t-76.5 -33l-70.5 -34l-38.5 -19t-40.5 -15h6l-8 -2l2 2q-28 -4 -48 -24.5t-20 -49.5q0 -15 6 -28t16 -23.5t23.5 -16.5t28.5 -6
q31 0 78.5 21.5t100 48t104.5 48t91 21.5h8t7 -2q-4 -19 -21 -46.5t-41 -60t-53 -66.5l-56.5 -65l-51 -57l-37.5 -41q-58 -3 -121.5 -3t-120.5 -11q-28 -6 -45.5 -25.5t-17.5 -48.5q0 -27 20 -49t49 -22h4h11q18 2 36.5 3t36.5 3l-37.5 -39.5t-46 -52.5t-39 -55.5
t-16.5 -49.5q0 -34 18.5 -53t46 -28.5t59 -12t58.5 -2.5q8 0 14 1t11 1q24 0 71 2t105.5 5.5t121.5 9t118.5 13t98.5 16.5t60 20q35 21 35 63zM575 733q-2 -2 -3 -2t-3 -2z" />
    <glyph glyph-name="bracketleft" unicode="[" horiz-adv-x="5487" 
d="M5104 1399q0 29 -21.5 50t-52.5 21q-29 0 -50.5 -21t-21.5 -50q0 -31 21.5 -52.5t50.5 -21.5q31 0 52.5 21.5t21.5 52.5zM5249 1397q0 -35 -12.5 -55t-33 -31t-47 -15l-54.5 -8q-61 -7 -111 -19t-92.5 -34.5t-79 -58t-70.5 -91.5q-58 -96 -124 -193.5t-141 -187.5
t-160.5 -168.5t-182.5 -136.5t-207 -91.5t-235 -33.5q-91 0 -150.5 24t-97 63.5t-59.5 90t-38 103.5l-32 103.5t-42 90t-67.5 63.5t-109.5 24q-60 0 -120.5 -25.5t-124 -67.5t-131 -96l-140 -110t-151 -110t-164.5 -96t-180.5 -67.5t-199.5 -25.5q-101 0 -180.5 30
t-144 78.5t-118 111t-102.5 127.5l-97 127.5t-102 111t-117 78.5t-142 30h-8h-17q-54 -1 -92 -16.5t-66.5 -41.5t-52.5 -61.5l-51 -77.5l-33 -54t-44 -67t-51.5 -69.5t-56 -62.5t-57 -45t-55.5 -17q-37 0 -66.5 23.5t-50.5 57.5t-32 72.5t-11 69.5q0 35 15 66
q20 46 50.5 88.5l59.5 83.5q33 44 75.5 94.5t92.5 101.5t105.5 98.5t114 83.5t118.5 58t119 22q79 0 141 -36t114.5 -95t99.5 -134.5l94.5 -154t100.5 -154t117 -134.5t144 -95t182 -36q83 0 159.5 20t148 54.5t138 81t127.5 100.5t117.5 112l108.5 115q75 85 170 133.5
t211 48.5q52 0 90 -11t68.5 -32t57.5 -50.5t58 -67.5q28 -35 43.5 -75.5t25.5 -82t18 -83t21 -79.5t34 -70.5t57.5 -56.5t92 -37.5t136.5 -13.5q98 0 186 22t166.5 61.5t148 94.5t132 120.5t117.5 139.5t104 152q23 36 39.5 78l32.5 84t34 82t44 71q21 26 58.5 44.5t80 30.5
t85.5 17.5t75 5.5q29 0 60 -4t56.5 -16t42.5 -34t17 -58zM5577 909q0 19 -8.5 34.5t-22.5 25.5q-8 7 -23.5 32t-34.5 59l-39.5 73t-37 73.5t-27 59t-10.5 30.5q0 8 3 20t7 25.5t7 28.5t3 29q0 69 -27.5 117.5t-73 79.5t-103.5 45t-119 14q-50 0 -108 -8.5t-114 -26.5
t-105.5 -47t-82.5 -70q-34 -42 -54.5 -90.5l-39.5 -97.5l-28.5 -70t-34.5 -69q-63 -100 -138.5 -194.5t-166.5 -168t-198 -118t-233 -44.5q-19 0 -44 2t-49.5 8.5t-46.5 18.5t-34 31q-12 23 -19 55.5t-14 58.5q-15 72 -35 137t-65 123q-40 54 -80.5 96t-86 71t-100.5 44
t-126 15q-149 0 -271.5 -61.5t-218.5 -170.5l-92 -99t-102.5 -99t-111.5 -91t-120 -75t-128 -51t-136 -19q-81 0 -145.5 36t-118.5 95t-102 134.5l-96 154.5t-99.5 154.5t-114.5 134.5t-140 95t-175 36q-82 0 -169 -33t-172 -88.5t-165.5 -128.5t-149.5 -152t-123.5 -159
t-88.5 -150q-16 -31 -22.5 -63t-6.5 -66q0 -62 22 -128t61.5 -120t95.5 -88.5t124 -34.5q48 0 91.5 18.5t83 49t75 70.5t67 82.5t58.5 84.5l49 78q15 24 27.5 47t28 41t36 29t51.5 12h11q59 1 108.5 -28t95.5 -77.5t92 -111l97 -128t111 -128t134 -112t165.5 -79.5
t205.5 -30q113 0 215.5 25.5t195.5 67.5t177 95.5t159 109.5l141 109.5t124.5 95.5t108.5 67.5t92 25.5q11 0 21 -0.5t20 -5.5q18 -9 29.5 -37.5t23.5 -69l26.5 -89t38 -98.5t58 -96.5t86.5 -82.5t123.5 -58t169.5 -22q140 0 263 35.5t232 97t204 146t179 182.5t158 206
t139 216q26 44 55 68.5t60 37t64 17.5t67.5 9t71 11.5t73.5 24.5l31 -68q-23 -6 -39.5 -31t-27.5 -57.5t-16 -65t-5 -53.5q0 -26 7 -49t21 -40.5t35.5 -27.5t49.5 -10q32 0 57 18.5t25 55.5q0 22 -14 41t-36 27l15 53q9 -17 23 -40t31.5 -44t38.5 -36t44 -15q29 0 50.5 21
t21.5 50z" />
    <glyph glyph-name="backslash" unicode="\" horiz-adv-x="975" 
d="M926 197q0 43 -10 85t-25 83q-16 45 -52.5 112.5t-84 147l-101.5 163.5l-105.5 161.5l-94.5 142.5l-70 104l-34 50.5l-45.5 70l-50.5 79.5l-48.5 79.5t-39.5 70.5t-24 51q-9 25 -26.5 40.5t-44.5 15.5q-29 0 -50.5 -22.5t-21.5 -51.5q0 -27 33.5 -90.5t88.5 -151.5
l125.5 -194l143.5 -217.5l143.5 -222t125.5 -207.5t88.5 -174.5t33.5 -122.5v-13q-2 -4 -2 -12q0 -29 22.5 -50.5t51.5 -21.5q21 0 35 8t22.5 21t12.5 30t4 36z" />
    <glyph glyph-name="bracketright" unicode="]" horiz-adv-x="3762" 
d="M412 840l-4 -2h-2zM848 1092l-2 -2h2v2zM977 1049q0 14 -6 27t-15.5 23t-22.5 15.5t-28 5.5q-17 0 -32.5 -7.5t-24.5 -22.5q-17 -16 -50 -27t-75 -19.5t-90 -15.5l-95 -14.5t-90.5 -16.5t-77 -22.5t-53.5 -31.5t-20 -44q0 -29 21.5 -50.5t50.5 -21.5q19 0 39 11
q28 12 80.5 21l116 19.5t129.5 23.5t120 32.5t88.5 47.5t34.5 67zM1837 942q-23 -9 -33 -28t-10 -42q0 -9 3.5 -18.5t8.5 -17.5q-32 -58 -91.5 -102t-134.5 -76.5t-160 -54t-169 -34.5t-161 -18.5t-136 -5.5q-67 0 -151.5 6t-169.5 22.5t-163 44.5t-132 72q9 -6 40.5 -10.5
t75 -7.5t93.5 -5t95.5 -3t81 -1.5t50.5 -0.5h6q22 0 43 1t38 8.5t27.5 23t10.5 44.5q0 16 -7 28.5t-18 20.5t-25 12.5t-28 4.5q-111 0 -221 7t-219 7q-28 0 -52 -17t-24 -48q0 -16 4 -28.5t15 -23.5q-13 10 -23.5 22.5t-24.5 20.5v13q0 32 -9 64t-23 61l24 24q23 40 54.5 79
t68 74.5t76 66.5t78.5 55q2 1 15 6l29.5 11.5l31 12t18.5 7.5q11 5 21 12t16 18q93 41 191 60.5t200 19.5h10h27q89 -1 184 -14t185 -42.5t169.5 -79t137.5 -124.5l18 -25.5t18 -30t14 -31.5t7 -30v-10zM3703 498q0 29 -21.5 50t-50.5 21q-8 0 -16.5 -1.5t-16.5 -6.5
q-5 -2 -10 -2h-10q-45 0 -90 10t-89.5 22t-89.5 22t-90 10q-70 0 -140.5 -10.5t-140.5 -22.5t-140.5 -22.5t-141.5 -10.5q-69 0 -112.5 16t-73 42.5t-50 60.5l-42 70t-49.5 71t-72.5 63t-111.5 47t-167 23q1 42 -16.5 86t-45 85t-60.5 76.5t-64 59.5q-72 61 -158.5 102
t-179.5 66.5t-189 36.5t-188 11q-118 0 -233.5 -22t-225.5 -69l-30.5 36.5t-33.5 46t-27 49.5t-11 45q0 18 -1.5 35.5t-8 31.5t-20 22.5t-37.5 8.5q-22 0 -36 -8.5t-22.5 -22t-12 -30.5t-3.5 -35v-2q-19 12 -41 12q-32 0 -52 -22.5t-20 -53.5q0 -27 16.5 -60t39.5 -65
t48 -61t42 -47q-14 -10 -40.5 -32t-57 -50.5t-62 -61.5t-57 -65t-42 -61t-16.5 -50q-28 -5 -52.5 -21t-42.5 -39t-28 -51t-10 -57t11 -55t29.5 -45.5t44.5 -31t56 -11.5q24 0 45 6q30 -37 70.5 -66t85.5 -51.5t93 -39t93 -27.5l-20.5 -46.5t-21 -54t-16.5 -55t-7 -49.5
q0 -29 21.5 -50.5t50.5 -21.5q14 0 27 6t23 15.5t15.5 22.5t5.5 28q0 18 8 41.5t19.5 48l23 47.5t17.5 39l61 -8q-1 -14 -2.5 -49.5t-4.5 -75t-7 -73.5t-10 -44q-10 -12 -14.5 -23t-4.5 -26q0 -29 21.5 -49.5t50.5 -20.5q30 0 50 21.5t32.5 55t19 74.5t9 80t2.5 71.5v48.5
h81q53 0 106 2t105 8q-7 -12 -19.5 -30.5l-25.5 -38.5t-22.5 -39.5t-9.5 -31.5q0 -29 21 -50t50 -21q32 0 56 26q10 12 29 39.5t38.5 59t34 61.5t14.5 45v2l29 6v-12q0 -14 1 -27.5t1 -25.5q0 -8 -0.5 -25.5t-2 -36t-3.5 -35t-6 -22.5q-8 -12 -13.5 -22t-5.5 -27
q0 -29 21.5 -49.5t50.5 -20.5q36 0 56.5 26.5t30.5 63.5t12.5 75.5t2.5 62.5v10v25t-1 28t-2.5 26t-4.5 19q65 20 133.5 49t129.5 69t110.5 92.5t77.5 119.5q23 0 59 -2.5t73.5 -9t70 -18t47.5 -29.5q15 -20 29 -41t26 -41q38 -62 76 -109t83.5 -78.5t102.5 -47t135 -15.5
q72 0 142.5 10t141 21.5t141 21.5t140.5 10q45 0 89 -10t89 -21.5t90 -21.5t91 -10q19 0 41 3.5t40.5 12.5t31 25t12.5 41z" />
    <glyph glyph-name="asciicircum" unicode="^" horiz-adv-x="1223" 
d="M1311 1100q0 25 -17 47q-16 23 -51.5 51.5t-81.5 60.5l-99.5 66.5l-107 69.5l-103 70t-87.5 67.5t-61 62t-23 54.5v10q0 16 -6 31t-17 26t-25.5 18t-31.5 7q-21 0 -51 -19.5t-66 -51.5t-76 -74l-81 -87.5l-82 -91l-78 -85t-69.5 -70t-57.5 -45.5q-17 -11 -28 -28.5
t-11 -37.5q0 -29 21.5 -50.5t52.5 -21.5q20 0 58 29t86 74.5l101 100l101 106.5l87.5 94.5l59.5 62.5q22 -34 57 -70.5t78 -72.5t91.5 -71l95.5 -67l90.5 -60l77.5 -50l41 -27t24.5 -17.5t22.5 -20.5l35 -35q14 -13 26 -20t31 -7q29 0 51.5 21.5t22.5 50.5z" />
    <glyph glyph-name="underscore" unicode="_" horiz-adv-x="614" 
d="M549 -90l-2 2zM657 -27q0 30 -17.5 47.5t-43.5 26.5t-56 11.5t-55 2.5h-16q-30 0 -74.5 -2.5t-94 -6t-99 -7.5t-88.5 -8h-4q-5 0 -8.5 1t-8.5 1q-5 2 -9 2h-9q-29 0 -51.5 -20.5t-22.5 -51.5q0 -25 10.5 -40.5t27.5 -23.5t37.5 -11t39.5 -3q44 0 75.5 2t57 4.5t47.5 6
t47.5 6t57 4.5t75.5 2h10q16 0 33.5 -0.5t30.5 -5.5q17 -10 37 -10q29 0 50 21t21 52z" />
    <glyph glyph-name="grave" unicode="`" horiz-adv-x="438" 
d="M371 1292q12 23 12 43q0 36 -33 58q-14 12 -19.5 16t-9 7.5t-7.5 11t-15 26.5q-18 33 -38 75.5t-43 83.5t-51 75t-63 51q-9 6 -18.5 8t-17.5 2q-46 0 -68 -45q-6 -12 -6 -27q0 -21 12.5 -40t32.5 -27q24 -17 44 -45t37.5 -61.5t34 -69.5t34 -68t37.5 -57t44 -37
q22 -10 43 -10q19 0 34.5 6.5t23.5 23.5z" />
    <glyph glyph-name="a" unicode="a" 
d="M317 627q-15 -3 -28 -17t-26 -33l-26.5 -40.5t-28.5 -41.5t-32.5 -35t-38.5 -20q4 16 14 39t23.5 49t30.5 52.5t34 49.5t33.5 40t30.5 24q6 -8 10 -19.5t4 -21.5v-26zM453 649q0 32 -9.5 66t-28 62t-46 46.5t-64.5 18.5q-35 0 -71.5 -23t-70.5 -60.5t-64 -84t-52.5 -93
t-35.5 -89.5t-13 -72q0 -59 36 -93t95 -34q40 0 76 19t65 46q6 -15 17 -34.5t24.5 -36t30.5 -28t35 -11.5q15 0 27.5 6.5t21.5 17t14.5 23.5t5.5 27q0 24 -9 35.5l-19.5 24.5t-19.5 32.5t-9 58.5q0 19 4 38t4 38v6v10q31 6 43.5 30.5t12.5 53.5z" />
    <glyph glyph-name="b" unicode="b" horiz-adv-x="567" 
d="M514 682q0 22 -7 43t-20.5 37.5t-32 26.5t-42.5 10q-32 0 -64.5 -14t-60.5 -29l13 35l20.5 53.5l23.5 62l22 60.5t16.5 49t6.5 28q0 29 -19.5 51.5t-50.5 22.5q-21 0 -38 -13.5t-25 -33.5l-25 -70.5l-30 -86l-33 -93l-34 -91.5t-34 -82t-32 -64q-13 -19 -13 -43
q0 -14 5 -27t14 -23.5t21.5 -17t27.5 -6.5q12 0 23 5t22 13l92 79t100 69q-9 -17 -24.5 -39.5t-35 -48t-41.5 -51t-44 -48t-42 -41t-36 -28.5l-6 10q-8 19 -25 32t-38 13q-15 0 -27.5 -6.5t-21.5 -17t-14 -23.5t-5 -27q0 -24 12 -47t31.5 -41t43.5 -29.5t48 -11.5
q31 0 71.5 24.5t82.5 64.5t82.5 90t72 100t51 96t19.5 78z" />
    <glyph glyph-name="c" unicode="c" horiz-adv-x="508" 
d="M453 678q0 9 -2 18t-7 19q-20 38 -54 63t-81 25q-36 0 -73 -17.5t-71.5 -47t-64.5 -67.5t-52 -79t-35 -82t-13 -76q0 -39 16.5 -72.5t44 -57.5t63 -38t73.5 -14q24 0 60 7.5t69 23t56.5 38t23.5 52.5q0 28 -19.5 49.5t-48.5 21.5q-14 0 -29 -7t-31.5 -15.5t-36 -15.5
t-42.5 -7q-19 0 -35.5 8t-26.5 25l-2 4q0 16 8.5 38t22.5 46.5t32.5 49t37.5 44t38 31.5t35 12q6 0 11.5 -8t13.5 -17.5t20 -17.5t31 -8q29 0 48.5 22t19.5 50z" />
    <glyph glyph-name="d" unicode="d" horiz-adv-x="659" 
d="M330 569q-18 -21 -38 -49.5t-41 -53.5t-42.5 -42.5t-42.5 -17.5h-6q5 21 17.5 45.5t32 47t47 41.5t62.5 29h11zM678 948q0 20 -4 41t-13.5 38.5t-25 28.5t-39.5 11q-28 0 -53 -25t-45.5 -64t-37.5 -86.5t-30 -93.5t-21 -84.5l-12 -58.5q-6 28 -28 46t-50 18
q-29 0 -64 -19.5t-70.5 -51t-68.5 -71.5t-59 -80.5t-41.5 -78.5t-15.5 -66q0 -23 7.5 -44.5t21 -38t33.5 -26.5t44 -10q36 0 75 20t76.5 48.5t70 60.5l55.5 56q2 -21 8 -51.5t18 -58.5t31.5 -48t46.5 -20q29 0 48.5 22.5t19.5 50.5q0 14 -6.5 28.5t-14 33t-14 42.5t-6.5 56
q0 29 2.5 59.5t7.5 59.5q26 35 53 78.5t49.5 90t37 94.5t14.5 93z" />
    <glyph glyph-name="e" unicode="e" horiz-adv-x="522" 
d="M354 735q-15 -18 -37 -32.5t-47 -25t-51 -17.5t-47 -11q15 18 35.5 33.5t44.5 27t50 18.5t50 7h2zM498 760q0 32 -12.5 54.5t-33 37.5t-47 22t-55.5 7q-67 0 -130 -25.5t-112 -70t-78.5 -104.5t-29.5 -128q0 -63 20 -126t58 -114t92.5 -82.5t122.5 -31.5q20 0 39.5 3
t35.5 11.5t25.5 23.5t9.5 39q0 28 -19 51t-50 23q-3 0 -7 -1t-8 -1q-6 -2 -13 -3t-13 -1q-32 0 -56.5 13.5t-42.5 35.5t-30.5 49.5t-20.5 55.5q54 5 116 22.5t115.5 49t88.5 79t35 111.5z" />
    <glyph glyph-name="f" unicode="f" horiz-adv-x="565" 
d="M606 1049q0 27 -19 50t-48 23q-56 0 -104 -30t-85 -76t-62 -100.5t-34 -102.5q-8 -38 -18.5 -76t-22.5 -75l-59 7t-56 15q-15 6 -30 6q-29 0 -48.5 -22.5t-19.5 -51.5t16 -46t39.5 -26t50 -13t48.5 -7q-9 -20 -24 -48t-32 -56.5t-35.5 -53.5t-35.5 -40q-27 -27 -27 -60
q0 -28 19.5 -50.5t48.5 -22.5q21 0 44 19t46 48.5t45.5 66t41 71l33 64l21.5 44.5q12 0 26 -1t29 -1q20 0 39.5 3t35 11.5t25 23.5t9.5 40q0 27 -19.5 49t-48.5 22q-11 0 -20.5 -2t-22.5 -2q11 34 20 68t15 69q11 58 31.5 92.5t45 54.5t50 30t46 20t33.5 24t13 42z" />
    <glyph glyph-name="g" unicode="g" horiz-adv-x="514" 
d="M469 668q0 22 -9.5 38.5t-25.5 27t-35 15.5t-39 5q-32 0 -71.5 -13t-79.5 -36t-77.5 -53.5t-67 -65.5t-47 -72t-17.5 -72q0 -29 12 -55.5t32.5 -47t47 -32.5t55.5 -12q23 0 46 6.5t45 17.5q-5 -19 -16.5 -55t-28 -79t-37 -88.5t-43 -82.5t-47 -60.5t-48.5 -23.5
q-11 0 -22.5 0.5t-22.5 3.5q10 23 24.5 48.5t14.5 50.5q0 28 -19 50.5t-50 22.5q-24 0 -44 -21.5t-34.5 -51.5t-22.5 -61.5t-8 -51.5q0 -40 16.5 -66t42.5 -41.5t59 -21.5t66 -6q52 0 100 35t89.5 91t75.5 127t58.5 143t38 139t13.5 114q0 18 -4 36.5t-13 33.5t-23.5 25
t-35.5 10q-23 0 -45 -15.5t-43 -34t-40.5 -34t-36.5 -15.5q-9 0 -15 6q9 22 35.5 50t59.5 53t66.5 42t57.5 17h1q1 0 1 -2h7q17 -10 36 -10q29 0 48.5 22t19.5 50z" />
    <glyph glyph-name="h" unicode="h" horiz-adv-x="606" 
d="M520 557q0 21 -4.5 43.5t-15 41t-27.5 30.5t-43 12q-24 0 -59 -16t-70.5 -38t-68 -45t-52.5 -36l22 54.5l34.5 81.5l41 93.5l42 91.5t37.5 75t28 44q12 13 18.5 25.5t6.5 32.5q0 27 -19.5 49t-48.5 22q-14 0 -31 -6q-13 -6 -33 -35t-44 -73t-51 -99.5t-53 -114.5
l-49.5 -117.5t-41.5 -108.5t-28.5 -88.5t-10.5 -57.5q0 -34 21.5 -59t56.5 -25q24 0 65 21.5t85.5 50.5l85.5 58t65 44l-4 -43t-2 -43q0 -18 4 -38.5t13 -37.5t24 -28t37 -11q29 0 48 22.5t19 51.5q0 9 -2 19.5t-8 19.5v2q0 34 6 67.5t6 67.5z" />
    <glyph glyph-name="i" unicode="i" horiz-adv-x="377" 
d="M229 711q0 31 -21 52t-52 21q-29 0 -49.5 -21t-22.5 -50q-4 -39 -17.5 -76.5l-28.5 -75.5t-26.5 -76.5t-11.5 -78.5q0 -35 19.5 -62t56.5 -27q15 0 28 6t23.5 16t16.5 23.5t6 28.5q0 42 12.5 81.5t27 79t27 79t12.5 80.5zM403 901q0 29 -21 50.5t-50 21.5
q-6 0 -12.5 -0.5t-12.5 -3.5q-23 26 -57 26q-29 0 -50.5 -21t-21.5 -50q0 -22 12 -42.5t30 -36.5t40 -26t43 -10q18 0 35.5 7t32 19.5t23.5 29.5t9 36z" />
    <glyph glyph-name="j" unicode="j" horiz-adv-x="281" 
d="M193 580q0 31 -22.5 52t-51.5 21q-23 0 -41.5 -12.5t-26.5 -34.5q-11 -25 -17.5 -75t-12 -112.5t-10.5 -131.5t-13.5 -131.5t-21 -112t-31.5 -74.5q-20 -26 -49 -41.5t-64 -15.5q-43 0 -69.5 13.5t-43 33.5t-27 43l-20.5 43t-23 33.5t-36 13.5q-15 0 -29 -4.5t-25 -13.5
t-17.5 -22t-6.5 -29q0 -55 27.5 -102t71 -82t96.5 -55t104 -20q80 0 135 32.5t90.5 86t56 122t31 140.5t15.5 142.5t10 126.5q3 34 5 71.5t11 71.5q2 5 3.5 10.5t1.5 12.5zM236 850q0 28 -19 49t-47 23q0 31 -21.5 52t-52.5 21q-19 0 -33.5 -8t-24 -20.5t-14 -29t-4.5 -34.5
q0 -26 10 -49.5t27 -41t39.5 -28t48.5 -10.5q36 0 63.5 19t27.5 57z" />
    <glyph glyph-name="k" unicode="k" horiz-adv-x="590" 
d="M532 756q0 29 -21 50t-52 21q-8 0 -30 -6l-48 -13.5t-49.5 -15.5l-34.5 -12l16 40l22.5 59t20.5 58.5t9 37.5q0 29 -21.5 50.5t-52.5 21.5q-22 0 -41 -13t-27 -35l-15 -39l-29 -75.5l-38 -98.5l-42.5 -109l-41.5 -107.5l-36 -93.5l-25.5 -66t-9.5 -27q0 -29 21 -50.5
t52 -21.5q26 0 45 19t33.5 45t24.5 54.5t18 47.5q25 -17 55.5 -33.5t63.5 -30t66.5 -22t64.5 -8.5q32 0 56 19t24 53q0 29 -20.5 51t-51.5 22q-24 0 -49 7t-49.5 18t-47.5 25t-42 28q57 26 116 42t117 38q22 8 35.5 26.5t13.5 43.5z" />
    <glyph glyph-name="l" unicode="l" horiz-adv-x="375" 
d="M336 993v2q0 15 -7 27.5t-18 21t-25 13t-28 4.5q-26 0 -45 -19.5t-23 -44.5q-5 -38 -21 -87.5t-37 -105l-44.5 -113t-43 -112t-32 -102.5t-12.5 -84q0 -13 5 -26.5t14 -24.5t21.5 -18t27.5 -7q14 0 27.5 4.5t24.5 13.5t18 21.5t7 28.5v12v-2q2 32 15.5 78t33.5 99
l43 110.5l43.5 112t36 103t19.5 83.5v12z" />
    <glyph glyph-name="m" unicode="m" horiz-adv-x="797" 
d="M739 365l-2 6zM748 332q0 9 -3 17l-6 16q-7 22 -11 58t-8 77.5t-11 83.5t-20.5 76t-35 55.5t-55.5 21.5q-18 0 -36.5 -7t-36 -18t-33.5 -24l-29 -24v12q0 43 -21 72.5t-71 29.5q-19 0 -36 -5.5t-34 -14.5q0 29 -21.5 49t-50.5 20q-31 0 -48 -17.5t-23 -45.5
q-5 -19 -18.5 -43t-31.5 -51l-38 -56t-36.5 -58.5t-27 -59.5t-10.5 -58q0 -35 22.5 -60.5t59.5 -25.5q16 0 34 11t37.5 28.5t38.5 39l36.5 43l32.5 41t26 32.5q-4 -13 -10.5 -32l-13 -39t-11 -38.5t-4.5 -31.5q0 -31 21 -52.5t52 -21.5q32 0 56 26l92 103t98 98
q3 -18 5 -47.5t6 -63t10.5 -67t17.5 -60.5t28.5 -44t43.5 -17q31 0 52.5 21.5t21.5 50.5z" />
    <glyph glyph-name="n" unicode="n" horiz-adv-x="645" 
d="M600 618q0 26 -6.5 50t-19.5 42t-33.5 29t-48.5 11q-25 0 -52 -9t-53 -22t-50.5 -28l-43.5 -27q6 9 10 19.5t4 23.5q0 29 -21.5 50t-52.5 21q-34 0 -57 -26q-5 -7 -21 -34.5l-36 -64.5l-42 -79l-40.5 -79t-30.5 -63.5t-12 -32.5q0 -29 21.5 -50t50.5 -21q26 0 47 16
l163.5 131t174.5 113q-6 -30 -23 -73.5t-36 -87l-33.5 -79.5t-14.5 -51q0 -29 21.5 -50.5t50.5 -21.5q25 0 44 14t25 37l37 80.5t37.5 87t29 89t11.5 85.5z" />
    <glyph glyph-name="o" unicode="o" horiz-adv-x="549" 
d="M340 492q0 -22 -9.5 -36t-24.5 -21.5t-34 -10t-39 -2.5q-21 0 -42.5 3t-43.5 11q15 23 34 45.5t40.5 43.5l43.5 41l42 38q13 -26 23 -54.5t10 -57.5zM485 492q0 19 -5.5 48.5t-15.5 62.5t-25 66t-33.5 59.5t-41 43t-47.5 16.5q-15 0 -45 -20t-66 -52.5t-73.5 -73
t-68.5 -81t-50.5 -77.5t-19.5 -62q0 -42 25.5 -70t62.5 -45.5t79 -25t75 -7.5q51 0 96 13.5t79 40.5t54 68t20 96z" />
    <glyph glyph-name="p" unicode="p" horiz-adv-x="565" 
d="M-141 33l-4 -4h2zM348 522q-12 -10 -29.5 -22.5t-37 -23.5t-39.5 -18t-35 -7q-10 0 -15 1.5t-8 4t-6 6.5t-10 8l28.5 73t34.5 72q14 -6 30.5 -17t33 -24t30.5 -27t23 -26zM500 514q0 27 -14 56t-37 57.5t-52.5 54t-61 44.5t-62.5 30.5t-56 11.5h-4l-14 -2q-29 -1 -56 -27
t-51.5 -69t-47 -99.5t-43.5 -118t-40 -124.5l-37 -120t-34.5 -103.5t-32.5 -75.5q-15 -18 -15 -41q0 -31 21.5 -52.5t52.5 -21.5q33 0 55 27q8 8 20 35.5t26 64.5l29 80l28.5 83l24 73.5t16.5 50.5q20 -13 42.5 -18t45.5 -5q24 0 55 8t64 22t65 34t57 43t40.5 49t15.5 53z
" />
    <glyph glyph-name="q" unicode="q" horiz-adv-x="504" 
d="M307 180q0 -18 -6.5 -47t-18 -62.5t-26.5 -67.5t-32 -61.5t-35.5 -45t-36.5 -17.5q-16 0 -26.5 12.5t-16.5 24.5q1 14 10 41t23 60t31 69.5l33 70l30 61l22 42.5q26 -14 37.5 -33t11.5 -47zM258 608l-6 -16q-19 -16 -44 -32t-48 -21q18 21 45 39.5t53 29.5zM453 180
q0 71 -33 125t-98 86l27.5 58t29.5 68t23.5 69t9.5 61q0 53 -34 85t-85 32q-27 0 -59.5 -10t-65 -27t-63 -40.5t-54 -50.5t-37.5 -56.5t-14 -59.5q0 -27 12 -50.5t31.5 -41.5t44 -28.5t49.5 -10.5h6l17 2l-31.5 -62.5l-41.5 -81.5l-44 -91t-40 -92t-29 -84t-11 -66
q0 -35 16.5 -68t43 -58.5t60.5 -40.5t69 -15q45 0 84.5 22.5t73 60t60 85t45 97.5t28.5 97.5t10 85.5z" />
    <glyph glyph-name="r" unicode="r" horiz-adv-x="672" 
d="M598 614q0 36 -8 74.5t-26 71t-47.5 53.5t-72.5 21q-33 0 -64.5 -13.5t-60.5 -34.5t-55 -45.5l-49 -46.5q-5 2 -9 2h-9q-22 0 -40.5 -11.5t-27.5 -31.5q-4 -10 -15 -35l-25.5 -58l-30 -69l-28.5 -67.5t-21.5 -54.5t-8.5 -29q0 -15 6 -28t16 -23.5t23.5 -16.5t28.5 -6
q18 0 35 10t26 27q16 25 36 60l43.5 74t50.5 79.5t55.5 75t58 59.5t59.5 35q9 -21 11 -46.5t7.5 -48.5t20.5 -38.5t51 -15.5q15 0 28 6.5t22.5 17.5t14.5 24.5t5 28.5z" />
    <glyph glyph-name="s" unicode="s" horiz-adv-x="666" 
d="M612 719q0 22 -14 39.5t-36 31.5t-50 23.5t-55 16t-51.5 9.5t-40.5 3q-42 0 -80 -14.5t-66 -40.5t-44.5 -62t-16.5 -80q0 -38 16.5 -63t41.5 -42t55 -29.5t57 -25.5q-11 -20 -32 -37t-45.5 -30t-51 -20t-47.5 -7q-12 0 -21.5 3.5t-18.5 8t-18 8t-20 3.5
q-31 0 -52.5 -21.5t-21.5 -52.5q0 -27 16 -45.5t39 -29.5t49.5 -16t47.5 -5q48 0 105.5 19t106.5 53t82 80t33 100q0 39 -17.5 62.5t-43 39.5t-55.5 28t-56 27q6 25 19.5 34t38.5 9q27 0 52 -7.5t47.5 -17l41.5 -17t33 -7.5q31 0 52 21.5t21 50.5z" />
    <glyph glyph-name="t" unicode="t" horiz-adv-x="770" 
d="M840 756q0 31 -21.5 52t-52.5 21q-16 0 -31 -7t-24 -19q-16 -9 -45.5 -16t-62.5 -12t-64 -9t-50 -6l26.5 63l38.5 91.5l43 106.5t40 106.5t29.5 91.5t11.5 63q0 29 -21.5 51.5t-50.5 22.5t-50.5 -21.5t-23.5 -50.5q-1 -17 -14.5 -58.5t-33.5 -94.5l-44.5 -113l-47 -114
l-40.5 -97t-26 -64q-66 -5 -131.5 -7.5t-131.5 -8.5q-32 -3 -51.5 -23.5t-19.5 -52.5q0 -15 6.5 -28t17.5 -22t25 -14t29 -5q48 0 97 3.5t97 6.5l-23 -59t-27 -74t-22.5 -74.5t-9.5 -60.5q0 -32 20 -55t54 -23q28 0 50 19.5t22 47.5v6v5q1 12 7 34t15.5 49l20.5 56.5l22 57
l19.5 50l13.5 35.5q19 2 57 4.5t84 8.5t94.5 16.5t88 26.5t65 39t25.5 55z" />
    <glyph glyph-name="u" unicode="u" horiz-adv-x="635" 
d="M584 743q0 29 -21.5 50.5t-52.5 21.5q-29 0 -50.5 -21.5t-21.5 -50.5q0 -23 -15 -57.5t-39 -72.5t-54.5 -76.5t-61 -70.5t-59 -54t-47.5 -27q-9 11 -13 31.5t-4 34.5q0 32 18.5 71.5l40 82.5t40 86t18.5 81q0 29 -21.5 50.5t-50.5 21.5q-34 0 -52 -20.5t-21 -51.5
q-4 -33 -23 -69l-40 -76t-37.5 -84t-16.5 -92q0 -36 9 -74t28 -69t49.5 -50.5t73.5 -19.5q41 0 88.5 26.5t94.5 69.5t90.5 97.5t77 110.5t53.5 109t20 92z" />
    <glyph glyph-name="v" unicode="v" horiz-adv-x="571" 
d="M526 784q0 29 -22 50.5t-51 21.5q-32 0 -51.5 -20.5t-22.5 -51.5q-1 -18 -13.5 -44.5t-32 -57.5t-43 -63.5l-46.5 -62.5l-42.5 -54.5l-31.5 -38.5q0 15 1 39t1 53q0 42 -3.5 90t-14 88.5t-29.5 67t-51 26.5q-31 0 -52.5 -21t-21.5 -50q0 -6 1 -12.5t3 -12.5
q14 -48 17.5 -99t3.5 -102q0 -60 -5.5 -120.5t-5.5 -122.5q0 -31 22 -53.5t54 -22.5q28 0 71.5 34t92 88t97 119.5t87.5 129.5t63.5 118t24.5 84z" />
    <glyph glyph-name="w" unicode="w" horiz-adv-x="936" 
d="M889 760q0 15 -6 28.5t-16.5 23.5t-23.5 16t-28 6q-23 0 -40.5 -13t-26.5 -33l-39 -87.5t-42.5 -90.5t-48 -87.5t-55.5 -78.5q-4 21 -6.5 52.5t-6 66.5t-10 70.5t-18.5 63.5t-32.5 45.5t-51.5 17.5q-28 0 -60 -24.5t-61.5 -57.5t-55 -67l-40.5 -54q16 43 31.5 93t15.5 95
q0 47 -25.5 80t-74.5 33q-18 0 -38 -5t-36 -15.5t-26.5 -26.5t-10.5 -37q0 -26 17 -45.5t43 -26.5q-11 -38 -31 -89.5l-40 -105t-35 -102.5t-15 -83q0 -39 23 -67t65 -28q23 0 51.5 18.5t58.5 48.5t60.5 66.5l58.5 72t50.5 67t37.5 49.5q2 -22 5 -51t8.5 -59t15 -58.5
t25 -51.5t38 -36.5t54.5 -13.5q36 0 72 26t70 67t64.5 92t55.5 101.5t44 95t30 72.5q3 6 4.5 13.5t1.5 13.5z" />
    <glyph glyph-name="x" unicode="x" horiz-adv-x="657" 
d="M612 668q0 29 -21 50t-52 21q-15 0 -41 -8.5t-54 -19.5t-53.5 -23t-40.5 -20q-10 19 -20 46.5t-23 52.5t-30.5 42.5t-43.5 17.5q-30 0 -51.5 -21t-21.5 -52q0 -14 7.5 -35.5t17.5 -45t21.5 -45l18.5 -34.5l-66.5 -44.5t-74 -58t-60 -67t-24.5 -72.5q0 -24 11.5 -48
t30.5 -44t42 -32.5t47 -12.5q29 0 50.5 21.5t21.5 50.5q0 26 -13 42t-34 27q29 32 67.5 59l73.5 52l60 -97t63 -94q11 -15 27 -23.5t34 -8.5q29 0 50.5 21t21.5 52q0 13 -17 44t-39 66.5l-43.5 67t-29.5 46.5q24 12 56 23t61.5 25.5t50 33t20.5 45.5z" />
    <glyph glyph-name="y" unicode="y" horiz-adv-x="565" 
d="M500 508q0 34 -24 57t-58 23q-25 0 -60.5 -16t-73.5 -37.5l-74 -43.5t-60 -34q7 31 18.5 68t26 74.5t32 72t35.5 59.5q6 11 10 22t4 23q0 29 -21 51.5t-50 22.5q-27 0 -52.5 -26.5t-48 -68.5t-42 -93t-33 -100t-21.5 -90t-8 -62q0 -24 6 -45.5t19 -38t32 -26t45 -9.5
q23 0 48.5 8t51 20t49 25.5l42.5 24.5q-8 -17 -28 -56.5l-47.5 -93l-61 -116l-68.5 -125.5l-70 -121.5t-65.5 -103.5t-55.5 -72t-40 -27q-2 0 -6.5 4.5t-12 10t-18.5 10t-25 4.5q-29 0 -50 -22.5t-21 -51.5q0 -23 13 -42t33 -32t43.5 -20t43.5 -7q6 0 12 0.5t12 2.5
q41 7 77 32t66.5 59.5t55.5 73.5t43 74l54.5 97.5l77 138l85.5 156.5t79.5 153.5t58 129t22.5 83.5z" />
    <glyph glyph-name="z" unicode="z" horiz-adv-x="580" 
d="M528 213q0 54 -19.5 91.5t-52.5 61.5t-76 37t-89 19q19 27 52 68.5t65 86.5t55.5 89t23.5 75q0 20 -8 36.5t-21.5 28.5t-31.5 18.5t-37 6.5q-38 0 -74 -13.5t-70.5 -31l-69.5 -34t-71 -21.5q-15 6 -30 6q-31 0 -52.5 -21t-21.5 -50q0 -20 8.5 -35.5t22.5 -26t31.5 -15.5
t35.5 -5q22 0 44.5 5.5t44.5 13.5t43.5 17.5l41.5 18.5l-42.5 -54.5t-52 -70t-44 -72.5t-18.5 -63q0 -37 19.5 -57t49.5 -29.5t64 -13t64 -9.5t49.5 -18.5t19.5 -38.5q0 -25 -10 -60t-27.5 -74t-40 -78.5t-47.5 -73.5t-51 -60t-49 -37q-23 -6 -38.5 -26.5t-15.5 -43.5
q0 -31 21.5 -52t50.5 -21h9.5t9.5 2q37 9 74.5 39t73 72t66.5 92.5t55.5 101t40.5 97t21 81.5q2 11 3 20.5t1 20.5z" />
    <glyph glyph-name="braceleft" unicode="{" horiz-adv-x="1851" 
d="M1534 1323q0 18 -7.5 39t-20 39t-30 29.5t-38.5 11.5q-20 0 -35.5 -9t-26 -23.5t-15.5 -33t-5 -37.5t6.5 -37.5t18.5 -32.5t29 -23t38 -9q18 0 33.5 7t27 18.5t18.5 27t7 33.5zM1204 291q-8 -10 -13.5 -23t-9.5 -27t-7.5 -27.5l-6.5 -25.5q0 17 -17 47t-40 60.5t-46.5 55
t-35.5 30.5l8 45q29 0 57 1.5t56 6.5l27.5 -72.5zM1567 1292q0 -83 -11.5 -167.5t-36.5 -163.5t-65 -148.5t-97 -122t-132.5 -84.5t-171.5 -35q-20 35 -62 35q-35 0 -57 -28q-53 7 -114 21.5t-122 35.5t-118.5 47.5t-102.5 56.5q-21 15 -45.5 43t-50 64t-50.5 76.5
l-47.5 79.5l-41.5 73.5l-31 57.5q109 -17 220 -24t220 -9q1 -42 9.5 -99t30.5 -109.5t58.5 -89t92.5 -36.5q29 0 50 22.5t21 51.5q0 23 -7 34.5t-18 18.5t-24.5 14.5t-25.5 23t-22 42.5t-15 74q21 -33 49 -69t62 -66t73.5 -49t81.5 -19q15 0 28.5 5.5t24 15t17 22.5t6.5 28
q0 31 -23 54l37 -11.5t37 -5.5q31 0 53.5 20.5t22.5 51.5q0 15 -5.5 28t-15.5 23.5t-22.5 16.5t-26.5 6h-4h-4q-13 2 -35 12.5t-45.5 24l-44.5 26.5l-33 21l127.5 -27.5t128.5 -13.5q18 0 34 4t28.5 12.5t20 22.5t7.5 34q0 29 -21 50.5t-50 21.5h-15h-8q-18 0 -48 4.5
t-62.5 11l-62 12.5l-44.5 9l24.5 50.5t26.5 49.5q16 30 49 52.5t72 38t80 23t72 7.5q12 0 24 -0.5t25 -3.5q34 -5 57.5 -34t38.5 -67t22 -78t7 -69zM1073 989q-25 5 -41 15t-35 28l38.5 -21.5t37.5 -21.5zM1755 1239l-45 -29l2 50zM1982 1245q0 22 -10 40.5t-30 29.5
q-16 7 -52 24l-74.5 35t-72.5 32t-47 15q-15 62 -39.5 111.5t-61 84.5t-86.5 54t-116 19q-55 0 -114.5 -12.5t-114.5 -37t-100.5 -62t-72.5 -87.5q-18 -32 -34.5 -66.5t-34.5 -68.5q-36 9 -78.5 21t-79.5 12q-28 0 -46 -14.5t-29 -36t-16.5 -46.5t-8.5 -47q-22 1 -67 2.5
t-100.5 5t-115.5 8.5t-113 11t-92.5 14t-54.5 17q-13 9 -22.5 13.5t-26.5 4.5q-29 0 -50.5 -21.5t-21.5 -52.5q0 -15 6 -30l44.5 -92l58.5 -112t68.5 -119t74.5 -114t75 -96.5t70 -65.5q48 -33 109.5 -62.5t128 -53t132.5 -40.5t122 -26l-2 -14q-33 -3 -53 -25
q-11 -13 -29.5 -32t-36 -40t-30.5 -43t-13 -40q0 -29 21.5 -51.5t50.5 -22.5t46 17.5l36 37.5q3 -16 8.5 -31t15 -27t23 -19t32.5 -7q17 0 33 8.5t25 22.5q17 -22 33 -38.5t45 -16.5q18 0 34 9.5t27 25.5q-2 -5 -2 -10v-11q0 -29 20.5 -50.5t51.5 -21.5t48 18t25 46
q11 -11 26.5 -18t31.5 -7q31 0 52.5 21.5t21.5 50.5q0 15 -4 23.5t-9 15t-11 13t-11 16.5l27.5 -13t35 -16t35.5 -13.5t29 -5.5q29 0 51 21.5t22 52.5q0 22 -12.5 40t-34.5 28q-14 5 -44.5 18.5l-64.5 27.5t-64 25t-42 11h-9t-9 -2l-25 63q89 37 156 97t115.5 135.5t80 162
t48.5 176.5h4q14 0 35 8.5t45.5 22t50.5 30l49.5 32l43 29t30.5 20.5q15 9 24.5 25t9.5 34z" />
    <glyph glyph-name="bar" unicode="|" horiz-adv-x="356" 
d="M356 1677q2 8 3 15.5t1 15.5q0 16 -6.5 30t-21.5 25q-10 8 -21 11.5t-22 3.5q-36 0 -60 -29q-13 -18 -23 -68.5t-17.5 -125.5t-14 -169t-13 -198.5l-13.5 -214t-15.5 -215t-19 -202t-24.5 -175.5t-32 -135t-41 -80q-2 -2 -3.5 -4t-4.5 -4q-6 -11 -10 -21.5t-4 -21.5
q0 -37 29 -60q12 -8 22 -12t21 -4q21 0 39.5 13.5t33.5 33.5q26 34 44 74t30 82q14 45 25.5 121t21 168t17.5 192t13.5 192.5l10 170t6.5 124.5q1 23 3 61.5t5.5 83.5t8 94t9.5 93t11 80t12 55z" />
    <glyph glyph-name="braceright" unicode="}" horiz-adv-x="2576" 
d="M475 653l-29 -78q-34 20 -82 53t-94 72.5t-81 82.5t-42 83q11 3 23 3.5t25 0.5q24 0 48.5 -2t47.5 -8q24 -6 46.5 -34t45 -62l45.5 -66t47 -45zM1911 516q-81 -34 -171.5 -64.5t-184 -54t-187 -37.5t-180.5 -14q-77 0 -156.5 12.5t-158 34.5t-154 51t-144.5 62
q15 37 32.5 87.5l37 106.5l41 114.5l43 111.5t43 97.5t41.5 72.5l24 33.5l36.5 49.5t44.5 55.5t47.5 51.5t45.5 38t38 15q18 0 29 -21.5t18.5 -56.5t13 -79.5t12.5 -91t18 -91t28.5 -79.5t44 -56.5t65.5 -21.5q41 0 76.5 30t67 77t60 104.5l55.5 113t53.5 102t54.5 70.5
q26 -2 48 -18.5t40.5 -40.5t33 -54t25.5 -60.5t17 -59t8 -49.5q4 -60 7.5 -132.5t12.5 -146t26 -142t48 -120.5zM2382 838q-13 -37 -55 -76.5t-94 -74.5t-104 -64t-85 -45q-16 20 -24.5 43.5t-14.5 46.5q13 6 39 22l58.5 36l67.5 42l65 40t52.5 30t28.5 12q16 0 33 -2
t33 -10zM2527 844q0 43 -20.5 72t-52 46.5t-69.5 25t-73 7.5q-30 0 -75 -21t-93 -50t-92 -58.5t-72 -46.5q-9 83 -12.5 166t-18.5 161.5t-50.5 149.5t-108.5 129q-32 26 -70 43t-80 17q-39 0 -74.5 -27t-67.5 -69.5t-61.5 -95.5t-56 -105.5l-50 -99.5t-44.5 -76
q-9 35 -15.5 84t-15 101.5t-21.5 104t-36 92.5t-58 66t-87 25q-40 0 -78 -17t-73.5 -44.5t-68 -63t-61.5 -73l-54.5 -73.5l-45.5 -65q-10 -14 -22.5 -40t-26 -58.5l-27.5 -68.5l-26 -69.5l-22 -62l-16 -45.5l-49.5 67t-42 53t-42 40.5t-49.5 28.5t-65.5 16.5t-88.5 5.5
q-35 0 -70 -5.5t-62.5 -21t-45 -42t-17.5 -68.5q0 -46 19 -91t50 -87.5t71.5 -81t84 -72t86 -61t78.5 -48.5q-8 -20 -19.5 -38t-11.5 -38q0 -30 21.5 -51.5t50.5 -21.5q19 0 32.5 7.5t23.5 19t17.5 25.5l14.5 28q76 -36 158 -67t166.5 -53.5t171.5 -35t172 -12.5
q102 0 212.5 17t220.5 46t215.5 67.5t197.5 80.5q15 -6 32 -6q9 0 21.5 4t24 11.5t19 17.5t7.5 22v2l72 39t84 52t85.5 62.5t75.5 70.5t53.5 77t20.5 80z" />
    <glyph glyph-name="asciitilde" unicode="~" horiz-adv-x="1079" 
d="M1157 1249q0 15 -6 28t-16 23.5t-23.5 16.5t-28.5 6q-26 0 -46 -17t-25 -46q-6 -45 -33.5 -68t-69.5 -23q-55 0 -91.5 16.5t-60.5 44.5t-38.5 65t-25 78t-20 83.5t-23.5 81t-35 70.5t-56 53q-17 9 -34 14.5t-36 5.5q-34 0 -69 -17.5t-69 -46.5t-66.5 -65t-61.5 -72.5
t-53.5 -70.5l-42.5 -59q-5 -8 -17.5 -25l-26.5 -35.5l-26.5 -34t-17.5 -20.5q-19 -12 -29 -26.5t-10 -37.5q0 -29 21.5 -51t52.5 -22q27 0 60 30t68.5 75.5t73 100t74.5 103t71.5 84t63.5 43.5q17 -15 27.5 -44.5t20.5 -68l21 -83t28 -88.5t42.5 -85t64 -72.5t92.5 -50
t128 -18.5q45 0 89.5 17.5t80 47.5t57 71t21.5 89z" />
    <glyph glyph-name="Adieresis" unicode="&#xc4;" horiz-adv-x="1112" 
d="M721 1104q0 -81 -3 -159t-9 -159q-88 -45 -177.5 -85l-179.5 -78l41 90.5l55.5 117l65 128l68.5 124t66.5 104.5t58.5 70q5 -21 8 -37.5t4.5 -31.5t1.5 -30v-34v-20zM1067 872q0 15 -6 28t-16.5 23.5t-23.5 16.5t-28 6q-12 0 -29.5 -10t-36.5 -23l-37 -26.5t-30 -20.5
q3 57 5.5 114t2.5 114v32q0 41 -3.5 91.5t-18 95t-44 74.5t-81.5 30q-45 0 -88 -28.5t-80.5 -69t-66.5 -85.5t-46 -77h-2q-21 0 -36 -10t-27 -29q-16 -24 -40.5 -69l-53.5 -102.5l-61.5 -124.5l-63.5 -136l-59.5 -136t-50 -124t-34 -101t-12.5 -67q0 -40 22 -68t64 -28
q22 0 42 16.5t39 42.5t35.5 58t30.5 63t24.5 58l16.5 42h5q14 0 46.5 11t74.5 28.5l88 38.5l87.5 40.5l73.5 34.5l45 21q-3 -30 -7.5 -62.5l-9 -65.5t-8 -65t-3.5 -61q0 -30 21 -51.5t50 -21.5t48.5 17.5t25.5 45.5q9 40 14.5 83t9 86.5t6.5 87t7 83.5q13 8 34.5 19.5
l46 25.5t49 30t44.5 33.5t32.5 35.5t12.5 36zM650 1602q0 23 -11.5 45t-30 39.5t-41 28.5t-44.5 11q-21 0 -41.5 -14t-36 -34.5t-25.5 -43.5t-10 -41q0 -23 9 -40t24 -28.5t34 -17.5t39 -6q24 0 48 5.5t43 18t31 31.5t12 46zM998 1593q0 20 -10 41.5t-26.5 38.5t-36.5 28
t-40 11t-43 -11.5t-42.5 -29t-32.5 -39.5t-13 -43q0 -24 10.5 -42t27.5 -30.5t38.5 -19t42.5 -6.5q24 0 46.5 6t40 19t28 32t10.5 45z" />
    <glyph glyph-name="Aring" unicode="&#xc5;" horiz-adv-x="1112" 
d="M721 1104q0 -81 -3 -159t-9 -159q-88 -45 -177.5 -85l-179.5 -78l41 90.5l55.5 117l65 128l68.5 124t66.5 104.5t58.5 70q5 -21 8 -37.5t4.5 -31.5t1.5 -30v-34v-20zM817 1546q0 -17 -9 -37t-23.5 -37t-33 -28.5t-36.5 -11.5q-23 0 -44.5 15.5t-33.5 35.5v4q0 15 9.5 39
t23 48t28.5 45t27 30q18 -1 34.5 -10.5t29 -24.5t20.5 -33t8 -35zM963 1546q0 48 -19.5 92.5t-52 79t-75.5 55.5t-91 21q-31 0 -60 -15.5t-55 -41t-47.5 -58.5t-37.5 -67.5t-24.5 -68t-8.5 -60.5q0 -42 22 -79t57 -65q-43 -43 -77.5 -94t-53.5 -88h-2q-21 0 -36 -10t-27 -29
q-16 -24 -40.5 -69l-53.5 -102.5l-61.5 -124.5l-63.5 -136l-59.5 -136t-50 -124t-34 -101t-12.5 -67q0 -40 22 -68t64 -28q22 0 42 16.5t39 42.5t35.5 58t30.5 63t24.5 58l16.5 42h5q14 0 46.5 11t74.5 28.5l88 38.5l87.5 40.5l73.5 34.5l45 21q-3 -30 -7.5 -62.5l-9 -65.5
t-8 -65t-3.5 -61q0 -30 21 -51.5t50 -21.5t48.5 17.5t25.5 45.5q9 40 14.5 83t9 86.5t6.5 87t7 83.5q13 8 34.5 19.5l46 25.5t49 30t44.5 33.5t32.5 35.5t12.5 36q0 15 -6 28t-16.5 23.5t-23.5 16.5t-28 6q-12 0 -29.5 -10t-36.5 -23l-37 -26.5t-30 -20.5q3 57 4.5 114
t3.5 114v32q0 23 -0.5 48.5t-3.5 51.5t-8 52t-14 49q27 19 49 44t38 53.5t25 59.5t9 62z" />
    <glyph glyph-name="Ccedilla" unicode="&#xc7;" horiz-adv-x="752" 
d="M463 113q0 18 -3.5 45t-10 59.5t-16 67.5t-21.5 69q55 3 114.5 13.5t106.5 27.5q22 10 36.5 27.5t14.5 42.5q0 15 -6 28.5t-16.5 23.5t-23.5 16t-28 6q-6 0 -11 -1t-11 -3q-60 -17 -121.5 -27t-124.5 -10q-37 0 -72.5 5t-63.5 20t-44.5 43t-16.5 73q0 26 5.5 53t11.5 53
q10 34 33.5 75.5t56 85t70.5 86.5t77.5 80t78 65t71.5 43q8 -44 9 -87.5t1 -86.5q0 -19 1.5 -39t9 -36t22 -26t39.5 -10q28 0 43 11t22 28.5t8 39t1 42.5v2q0 9 1 21t1 24q0 40 -3.5 86.5t-17 87t-40.5 67.5t-73 27q-48 0 -104 -28.5t-113 -75.5t-111.5 -106t-99.5 -119.5
t-77.5 -117.5t-44.5 -100q-23 -72 -23 -147q0 -63 18.5 -110.5t51 -81t76.5 -54.5t96 -31l24.5 -48.5t24.5 -59t18.5 -66.5t7.5 -73q0 -39 -7.5 -71t-25.5 -55t-47 -35.5t-71 -12.5h-6q-19 0 -38 -1.5t-34.5 -8.5t-25 -21.5t-9.5 -40.5q0 -25 11 -39.5t27.5 -22t36.5 -10
t38 -2.5q73 0 128.5 24t93 66.5t56.5 101.5t19 128z" />
    <glyph glyph-name="Eacute" unicode="&#xc9;" horiz-adv-x="535" 
d="M483 483q0 29 -22 50.5t-51 21.5q-17 0 -45.5 -9l-62 -20.5t-69 -20.5t-67.5 -9h-9.5t-9.5 2q3 28 17.5 59.5t35 64.5l43.5 67t42 66.5t32 62.5t13 56q0 40 -20 61t-48 34t-59 22t-53 25q11 21 39 47.5t61 52.5t65.5 48.5l53.5 37.5q32 24 32 62q0 29 -21 50t-50 21
q-19 0 -51 -16.5t-68.5 -43.5t-74 -61.5t-68 -70.5t-49.5 -71t-19 -62q0 -36 15.5 -62.5t40 -45t54.5 -31t58 -21.5q-21 -37 -50 -81.5t-54.5 -92t-43.5 -95t-18 -89.5q0 -38 13.5 -65t36.5 -44t53.5 -25t64.5 -8q30 0 65 5.5t70.5 14.5t69 21t61.5 25q22 9 34.5 26.5
t12.5 40.5zM459 1806q-23 45 -68 45q-9 0 -18 -2t-19 -8q-34 -17 -62 -51t-51.5 -75t-43.5 -83.5t-39 -75.5q-6 -10 -9.5 -16.5t-5.5 -11t-4 -7t-4 -4.5q-3 -3 -8.5 -6.5t-19.5 -15.5q-31 -22 -31 -58q0 -11 2.5 -21.5t7.5 -21.5q9 -17 24.5 -23.5t32.5 -6.5q13 0 23.5 2.5
t21.5 7.5q24 12 44 37t38 57t34.5 68t34 69.5t37.5 61.5t44 45q18 8 31.5 27t13.5 40q0 15 -6 27z" />
    <glyph glyph-name="Ntilde" unicode="&#xd1;" horiz-adv-x="1053" 
d="M1094 1327q0 15 -6 28t-16 23.5t-23.5 16.5t-28.5 6q-28 0 -47 -18t-25 -44t-15 -72t-21.5 -103l-28 -122t-33.5 -130t-39 -126t-44 -110t-48.5 -83t-52.5 -44q-28 -12 -62 -12q-38 0 -68.5 23t-54.5 61.5t-41.5 89.5t-30.5 107t-22 113.5t-15 109.5t-9.5 94.5t-6.5 68.5
q-2 31 -20.5 51.5t-50.5 20.5q-26 0 -42.5 -13t-27.5 -36q-7 -14 -20 -51.5t-29.5 -90.5l-35 -116.5l-37 -129.5l-35.5 -129.5l-30 -116t-20.5 -90t-7.5 -50.5q0 -31 21.5 -52.5t52.5 -21.5q29 0 49 21.5t22 50.5q2 36 14.5 89t29 109.5l33.5 109.5l28 89q9 -45 23 -96.5
t34.5 -102.5t48 -98t64 -83t82 -57.5t102.5 -21.5q65 0 115.5 25t90.5 67t70 96.5t53 113t40 117l31 107.5l15 53.5l19 71.5l20 80.5t18 80t13 72t5 54.5zM971 1632q0 15 -6 28.5t-16.5 23.5t-23.5 16t-28 6q-25 0 -39 -9t-21.5 -22.5t-12 -29t-12 -29t-19.5 -22.5t-35 -9
t-35.5 11t-22 27.5t-19.5 36t-26.5 36t-44 27.5t-72.5 11q-34 0 -56 -7t-44 -36l-18.5 -24l-27.5 -35.5l-31 -41t-28.5 -40.5t-21 -34t-8.5 -21q0 -31 21.5 -53.5t52.5 -22.5q37 0 58 20t38 47l35 53.5t49 39.5q21 -22 32.5 -41.5t20 -35.5t18 -29t25 -22t40.5 -13.5
t65 -4.5q39 0 77 15.5t68.5 42.5t49 63t18.5 78z" />
    <glyph glyph-name="Odieresis" unicode="&#xd6;" horiz-adv-x="817" 
d="M623 829q0 -70 -31 -137t-82.5 -119.5t-118 -84t-137.5 -31.5q-31 0 -51.5 5t-33.5 17t-18.5 32t-5.5 50q0 33 5.5 68.5t14.5 71t20.5 70t23.5 65.5q9 -17 26 -27t37 -10q43 0 64 35l28 46.5t31.5 50t34.5 47.5t37 40h8q44 0 72.5 -14.5t45.5 -40t23.5 -60t6.5 -74.5z
M768 831q0 70 -17 130.5t-53 105.5t-91.5 70.5t-131.5 25.5q-12 0 -25.5 -0.5t-25.5 -3.5q0 3 1 5t1 5q0 29 -21 51.5t-53 22.5q-45 0 -89 -39t-83 -101t-72 -139t-57 -152.5t-37.5 -142.5t-13.5 -108q0 -122 66 -186t188 -64q102 0 195 43t164 115t113 166t42 196z
M424 1419q0 23 -11.5 45t-30 39.5t-41 28.5t-44.5 11q-21 0 -41.5 -14t-36 -34.5t-25.5 -43.5t-10 -41q0 -23 9 -40t24 -28.5t34 -17.5t39 -6q24 0 48 5.5t43 18t31 31.5t12 46zM772 1410q0 20 -10 41.5t-26.5 38.5t-36.5 28t-40 11t-43 -11.5t-42.5 -29t-32.5 -39.5
t-13 -43q0 -24 10.5 -42t27.5 -30.5t38.5 -19t42.5 -6.5q24 0 46.5 6t40 19t28 32t10.5 45z" />
    <glyph glyph-name="Udieresis" unicode="&#xdc;" horiz-adv-x="596" 
d="M573 1044q0 31 -21 52.5t-52 21.5q-26 0 -47 -18q-17 -13 -32 -57t-31.5 -102.5t-37 -123t-48.5 -118.5t-65.5 -90t-88.5 -36q-7 15 -7 35q0 43 10.5 96t27 107t36 105.5t37.5 91.5q8 13 8 32q0 29 -21.5 50.5t-50.5 21.5q-43 0 -65 -39q-15 -24 -30 -60t-29 -78
t-26 -87.5t-21 -88.5t-14 -81t-5 -66q0 -37 7.5 -70t25 -58.5t46.5 -40.5t71 -15q62 0 111 24t88.5 64.5t69.5 92.5t52.5 108.5t39.5 113t30 105.5q2 8 7.5 24l11 33t9.5 31.5t4 19.5zM342 1378q0 23 -11.5 45t-30 39.5t-41 28.5t-44.5 11q-21 0 -41.5 -14t-36 -34.5
t-25.5 -43.5t-10 -41q0 -23 9 -40t24 -28.5t34 -17.5t39 -6q24 0 48 5.5t43 18t31 31.5t12 46zM690 1369q0 20 -10 41.5t-26.5 38.5t-36.5 28t-40 11t-43 -11.5t-42.5 -29t-32.5 -39.5t-13 -43q0 -24 10.5 -42t27.5 -30.5t38.5 -19t42.5 -6.5q24 0 46.5 6t40 19t28 32
t10.5 45z" />
    <glyph glyph-name="aacute" unicode="&#xe1;" 
d="M317 627q-15 -3 -28 -17t-26 -33l-26.5 -40.5t-28.5 -41.5t-32.5 -35t-38.5 -20q4 16 14 39t23.5 49t30.5 52.5t34 49.5t33.5 40t30.5 24q6 -8 10 -19.5t4 -21.5v-26zM453 649q0 32 -9.5 66t-28 62t-46 46.5t-64.5 18.5q-35 0 -71.5 -23t-70.5 -60.5t-64 -84t-52.5 -93
t-35.5 -89.5t-13 -72q0 -59 36 -93t95 -34q40 0 76 19t65 46q6 -15 17 -34.5t24.5 -36t30.5 -28t35 -11.5q15 0 27.5 6.5t21.5 17t14.5 23.5t5.5 27q0 24 -9 35.5l-19.5 24.5t-19.5 32.5t-9 58.5q0 19 4 38t4 38v6v10q31 6 43.5 30.5t12.5 53.5zM664 1398q-23 45 -68 45
q-9 0 -18 -2t-19 -8q-34 -17 -62 -51t-51.5 -75t-43.5 -83.5t-39 -75.5q-6 -10 -9.5 -16.5t-5.5 -11t-4 -7t-4 -4.5q-3 -3 -8.5 -6.5t-19.5 -15.5q-31 -22 -31 -58q0 -11 2.5 -21.5t7.5 -21.5q9 -17 24.5 -23.5t32.5 -6.5q13 0 23.5 2.5t21.5 7.5q24 12 44 37t38 57t34.5 68
t34 69.5t37.5 61.5t44 45q18 8 31.5 27t13.5 40q0 15 -6 27z" />
    <glyph glyph-name="agrave" unicode="&#xe0;" 
d="M317 627q-15 -3 -28 -17t-26 -33l-26.5 -40.5t-28.5 -41.5t-32.5 -35t-38.5 -20q4 16 14 39t23.5 49t30.5 52.5t34 49.5t33.5 40t30.5 24q6 -8 10 -19.5t4 -21.5v-26zM453 649q0 32 -9.5 66t-28 62t-46 46.5t-64.5 18.5q-35 0 -71.5 -23t-70.5 -60.5t-64 -84t-52.5 -93
t-35.5 -89.5t-13 -72q0 -59 36 -93t95 -34q40 0 76 19t65 46q6 -15 17 -34.5t24.5 -36t30.5 -28t35 -11.5q15 0 27.5 6.5t21.5 17t14.5 23.5t5.5 27q0 24 -9 35.5l-19.5 24.5t-19.5 32.5t-9 58.5q0 19 4 38t4 38v6v10q31 6 43.5 30.5t12.5 53.5zM331 986q12 23 12 43
q0 36 -33 58q-14 12 -19.5 16t-9 7.5t-7.5 11t-15 26.5q-18 33 -38 75.5t-43 83.5t-51 75t-63 51q-9 6 -18.5 8t-17.5 2q-46 0 -68 -45q-6 -12 -6 -27q0 -21 12.5 -40t32.5 -27q24 -17 44 -45t37.5 -61.5t34 -69.5t34 -68t37.5 -57t44 -37q22 -10 43 -10q19 0 34.5 6.5
t23.5 23.5z" />
    <glyph glyph-name="acircumflex" unicode="&#xe2;" 
d="M317 627q-15 -3 -28 -17t-26 -33l-26.5 -40.5t-28.5 -41.5t-32.5 -35t-38.5 -20q4 16 14 39t23.5 49t30.5 52.5t34 49.5t33.5 40t30.5 24q6 -8 10 -19.5t4 -21.5v-26zM453 649q0 32 -9.5 66t-28 62t-46 46.5t-64.5 18.5q-35 0 -71.5 -23t-70.5 -60.5t-64 -84t-52.5 -93
t-35.5 -89.5t-13 -72q0 -59 36 -93t95 -34q40 0 76 19t65 46q6 -15 17 -34.5t24.5 -36t30.5 -28t35 -11.5q15 0 27.5 6.5t21.5 17t14.5 23.5t5.5 27q0 24 -9 35.5l-19.5 24.5t-19.5 32.5t-9 58.5q0 19 4 38t4 38v6v10q31 6 43.5 30.5t12.5 53.5zM602 986q0 14 -4 25t-12 22
q-29 39 -65.5 67l-69 51.5t-55.5 44t-25 44.5v10q0 16 -6.5 31t-17.5 26t-25.5 18t-30.5 7q-43 0 -69.5 -18t-50.5 -45.5l-53.5 -60.5t-78.5 -63q-17 -11 -28 -28t-11 -37q0 -29 21.5 -50.5t52.5 -21.5q29 0 50 9t40.5 25.5t41 40.5t52.5 54l24.5 -31t18 -21.5t19.5 -19
t30 -24.5l40 -28.5l25 -17.5t23 -19.5l35 -34.5q12 -14 25.5 -21.5t31.5 -7.5q29 0 50.5 22.5t21.5 51.5z" />
    <glyph glyph-name="adieresis" unicode="&#xe4;" 
d="M317 627q-15 -3 -28 -17t-26 -33l-26.5 -40.5t-28.5 -41.5t-32.5 -35t-38.5 -20q4 16 14 39t23.5 49t30.5 52.5t34 49.5t33.5 40t30.5 24q6 -8 10 -19.5t4 -21.5v-26zM453 649q0 32 -9.5 66t-28 62t-46 46.5t-64.5 18.5q-35 0 -71.5 -23t-70.5 -60.5t-64 -84t-52.5 -93
t-35.5 -89.5t-13 -72q0 -59 36 -93t95 -34q40 0 76 19t65 46q6 -15 17 -34.5t24.5 -36t30.5 -28t35 -11.5q15 0 27.5 6.5t21.5 17t14.5 23.5t5.5 27q0 24 -9 35.5l-19.5 24.5t-19.5 32.5t-9 58.5q0 19 4 38t4 38v6v10q31 6 43.5 30.5t12.5 53.5zM281 1050q0 23 -11.5 45
t-30 39.5t-41 28.5t-44.5 11q-21 0 -41.5 -14t-36 -34.5t-25.5 -43.5t-10 -41q0 -23 9 -40t24 -28.5t34 -17.5t39 -6q24 0 48 5.5t43 18t31 31.5t12 46zM629 1041q0 20 -10 41.5t-26.5 38.5t-36.5 28t-40 11t-43 -11.5t-42.5 -29t-32.5 -39.5t-13 -43q0 -24 10.5 -42
t27.5 -30.5t38.5 -19t42.5 -6.5q24 0 46.5 6t40 19t28 32t10.5 45z" />
    <glyph glyph-name="atilde" unicode="&#xe3;" 
d="M317 627q-15 -3 -28 -17t-26 -33l-26.5 -40.5t-28.5 -41.5t-32.5 -35t-38.5 -20q4 16 14 39t23.5 49t30.5 52.5t34 49.5t33.5 40t30.5 24q6 -8 10 -19.5t4 -21.5v-26zM453 649q0 32 -9.5 66t-28 62t-46 46.5t-64.5 18.5q-35 0 -71.5 -23t-70.5 -60.5t-64 -84t-52.5 -93
t-35.5 -89.5t-13 -72q0 -59 36 -93t95 -34q40 0 76 19t65 46q6 -15 17 -34.5t24.5 -36t30.5 -28t35 -11.5q15 0 27.5 6.5t21.5 17t14.5 23.5t5.5 27q0 24 -9 35.5l-19.5 24.5t-19.5 32.5t-9 58.5q0 19 4 38t4 38v6v10q31 6 43.5 30.5t12.5 53.5zM664 1162q0 15 -6 28.5
t-16.5 23.5t-23.5 16t-28 6q-25 0 -39 -9t-21.5 -22.5t-12 -29t-12 -29t-19.5 -22.5t-35 -9t-35.5 11t-22 27.5t-19.5 36t-26.5 36t-44 27.5t-72.5 11q-34 0 -56 -7t-44 -36l-18.5 -24l-27.5 -35.5l-31 -41t-28.5 -40.5t-21 -34t-8.5 -21q0 -31 21.5 -53.5t52.5 -22.5
q37 0 58 20t38 47l35 53.5t49 39.5q21 -22 32.5 -41.5t20 -35.5t18 -29t25 -22t40.5 -13.5t65 -4.5q39 0 77 15.5t68.5 42.5t49 63t18.5 78z" />
    <glyph glyph-name="aring" unicode="&#xe5;" 
d="M317 627q-15 -3 -28 -17t-26 -33l-26.5 -40.5t-28.5 -41.5t-32.5 -35t-38.5 -20q4 16 14 39t23.5 49t30.5 52.5t34 49.5t33.5 40t30.5 24q6 -8 10 -19.5t4 -21.5v-26zM453 649q0 32 -9.5 66t-28 62t-46 46.5t-64.5 18.5q-35 0 -71.5 -23t-70.5 -60.5t-64 -84t-52.5 -93
t-35.5 -89.5t-13 -72q0 -59 36 -93t95 -34q40 0 76 19t65 46q6 -15 17 -34.5t24.5 -36t30.5 -28t35 -11.5q15 0 27.5 6.5t21.5 17t14.5 23.5t5.5 27q0 24 -9 35.5l-19.5 24.5t-19.5 32.5t-9 58.5q0 19 4 38t4 38v6v10q31 6 43.5 30.5t12.5 53.5zM408 1178q0 -17 -9 -37
t-24 -37.5t-33.5 -29t-36.5 -11.5q-23 0 -44 15.5t-34 35.5v4q0 15 9.5 39t23 48t29 45t26.5 30q18 -1 34.5 -10.5t29.5 -24.5t21 -32.5t8 -34.5zM553 1178q0 48 -19.5 92.5t-52 79t-75.5 55t-91 20.5q-30 0 -59.5 -15.5t-55.5 -41t-47.5 -58t-37 -67t-24.5 -68.5t-9 -61
q0 -40 21 -75.5t53.5 -62.5t72 -42.5t76.5 -15.5q49 0 94 23t79 59.5t54.5 83t20.5 94.5z" />
    <glyph glyph-name="ccedilla" unicode="&#xe7;" horiz-adv-x="508" 
d="M401 10q0 20 -4 52.5t-12.5 70.5t-20.5 78.5t-28 75.5q29 15 49.5 36.5t20.5 49.5t-19.5 49.5t-48.5 21.5q-14 0 -29 -7t-31.5 -15.5t-36 -15.5t-42.5 -7q-19 0 -35.5 8t-26.5 25l-2 4q0 16 8.5 38t22.5 46.5t32.5 49t37.5 44t38 31.5t35 12q6 0 11.5 -8t13.5 -17.5
t20 -17.5t31 -8q29 0 48.5 22t19.5 50q0 9 -2 18t-7 19q-20 38 -54 63t-81 25q-36 0 -73 -17.5t-71.5 -47t-64.5 -67.5t-52 -79t-35 -82t-13 -76q0 -37 15 -69t40.5 -56t58.5 -39t68 -18q12 -21 25 -47.5t24 -57.5t18 -65.5t7 -71.5q0 -38 -8 -70t-26 -55t-47 -36t-71 -13
h-6q-19 0 -38 -1.5t-34 -8.5t-24.5 -21.5t-9.5 -40.5q0 -24 10.5 -38.5t27 -22t36.5 -10t38 -2.5q73 0 128.5 24t93 66.5t56.5 101t19 127.5z" />
    <glyph glyph-name="eacute" unicode="&#xe9;" horiz-adv-x="522" 
d="M354 735q-15 -18 -37 -32.5t-47 -25t-51 -17.5t-47 -11q15 18 35.5 33.5t44.5 27t50 18.5t50 7h2zM498 760q0 32 -12.5 54.5t-33 37.5t-47 22t-55.5 7q-67 0 -130 -25.5t-112 -70t-78.5 -104.5t-29.5 -128q0 -63 20 -126t58 -114t92.5 -82.5t122.5 -31.5q20 0 39.5 3
t35.5 11.5t25.5 23.5t9.5 39q0 28 -19 51t-50 23q-3 0 -7 -1t-8 -1q-6 -2 -13 -3t-13 -1q-32 0 -56.5 13.5t-42.5 35.5t-30.5 49.5t-20.5 55.5q54 5 116 22.5t115.5 49t88.5 79t35 111.5zM623 1439q-23 45 -68 45q-9 0 -18 -2t-19 -8q-34 -17 -62 -51t-51.5 -75t-43.5 -83.5
t-39 -75.5q-6 -10 -9.5 -16.5t-5.5 -11t-4 -7t-4 -4.5q-3 -3 -8.5 -6.5t-19.5 -15.5q-31 -22 -31 -58q0 -11 2.5 -21.5t7.5 -21.5q9 -17 24.5 -23.5t32.5 -6.5q13 0 23.5 2.5t21.5 7.5q24 12 44 37t38 57t34.5 68t34 69.5t37.5 61.5t44 45q18 8 31.5 27t13.5 40q0 15 -6 27z
" />
    <glyph glyph-name="egrave" unicode="&#xe8;" horiz-adv-x="522" 
d="M354 735q-15 -18 -37 -32.5t-47 -25t-51 -17.5t-47 -11q15 18 35.5 33.5t44.5 27t50 18.5t50 7h2zM498 760q0 32 -12.5 54.5t-33 37.5t-47 22t-55.5 7q-67 0 -130 -25.5t-112 -70t-78.5 -104.5t-29.5 -128q0 -63 20 -126t58 -114t92.5 -82.5t122.5 -31.5q20 0 39.5 3
t35.5 11.5t25.5 23.5t9.5 39q0 28 -19 51t-50 23q-3 0 -7 -1t-8 -1q-6 -2 -13 -3t-13 -1q-32 0 -56.5 13.5t-42.5 35.5t-30.5 49.5t-20.5 55.5q54 5 116 22.5t115.5 49t88.5 79t35 111.5zM331 1027q12 23 12 43q0 36 -33 58q-14 12 -19.5 16t-9 7.5t-7.5 11t-15 26.5
q-18 33 -38 75.5t-43 83.5t-51 75t-63 51q-9 6 -18.5 8t-17.5 2q-46 0 -68 -45q-6 -12 -6 -27q0 -21 12.5 -40t32.5 -27q24 -17 44 -45t37.5 -61.5t34 -69.5t34 -68t37.5 -57t44 -37q22 -10 43 -10q19 0 34.5 6.5t23.5 23.5z" />
    <glyph glyph-name="ecircumflex" unicode="&#xea;" horiz-adv-x="522" 
d="M354 735q-15 -18 -37 -32.5t-47 -25t-51 -17.5t-47 -11q15 18 35.5 33.5t44.5 27t50 18.5t50 7h2zM498 760q0 32 -12.5 54.5t-33 37.5t-47 22t-55.5 7q-67 0 -130 -25.5t-112 -70t-78.5 -104.5t-29.5 -128q0 -63 20 -126t58 -114t92.5 -82.5t122.5 -31.5q20 0 39.5 3
t35.5 11.5t25.5 23.5t9.5 39q0 28 -19 51t-50 23q-3 0 -7 -1t-8 -1q-6 -2 -13 -3t-13 -1q-32 0 -56.5 13.5t-42.5 35.5t-30.5 49.5t-20.5 55.5q54 5 116 22.5t115.5 49t88.5 79t35 111.5zM602 1027q0 14 -4 25t-12 22q-29 39 -65.5 67l-69 51.5t-55.5 44t-25 44.5v10
q0 16 -6.5 31t-17.5 26t-25.5 18t-30.5 7q-43 0 -69.5 -18t-50.5 -45.5l-53.5 -60.5t-78.5 -63q-17 -11 -28 -28t-11 -37q0 -29 21.5 -50.5t52.5 -21.5q29 0 50 9t40.5 25.5t41 40.5t52.5 54l24.5 -31t18 -21.5t19.5 -19t30 -24.5l40 -28.5l25 -17.5t23 -19.5l35 -34.5
q12 -14 25.5 -21.5t31.5 -7.5q29 0 50.5 22.5t21.5 51.5z" />
    <glyph glyph-name="edieresis" unicode="&#xeb;" horiz-adv-x="522" 
d="M354 735q-15 -18 -37 -32.5t-47 -25t-51 -17.5t-47 -11q15 18 35.5 33.5t44.5 27t50 18.5t50 7h2zM498 760q0 32 -12.5 54.5t-33 37.5t-47 22t-55.5 7q-67 0 -130 -25.5t-112 -70t-78.5 -104.5t-29.5 -128q0 -63 20 -126t58 -114t92.5 -82.5t122.5 -31.5q20 0 39.5 3
t35.5 11.5t25.5 23.5t9.5 39q0 28 -19 51t-50 23q-3 0 -7 -1t-8 -1q-6 -2 -13 -3t-13 -1q-32 0 -56.5 13.5t-42.5 35.5t-30.5 49.5t-20.5 55.5q54 5 116 22.5t115.5 49t88.5 79t35 111.5zM281 1071q0 23 -11.5 45t-30 39.5t-41 28.5t-44.5 11q-21 0 -41.5 -14t-36 -34.5
t-25.5 -43.5t-10 -41q0 -23 9 -40t24 -28.5t34 -17.5t39 -6q24 0 48 5.5t43 18t31 31.5t12 46zM629 1062q0 20 -10 41.5t-26.5 38.5t-36.5 28t-40 11t-43 -11.5t-42.5 -29t-32.5 -39.5t-13 -43q0 -24 10.5 -42t27.5 -30.5t38.5 -19t42.5 -6.5q24 0 46.5 6t40 19t28 32
t10.5 45z" />
    <glyph glyph-name="iacute" unicode="&#xed;" horiz-adv-x="274" 
d="M229 711q0 31 -21 52t-52 21q-29 0 -49.5 -21t-22.5 -50q-4 -39 -17.5 -76.5l-28.5 -75.5t-26.5 -76.5t-11.5 -78.5q0 -35 19.5 -62t56.5 -27q15 0 28 6t23.5 16t16.5 23.5t6 28.5q0 42 12.5 81.5t27 79t27 79t12.5 80.5zM438 1336q-23 45 -68 45q-9 0 -18 -2t-19 -8
q-34 -17 -62 -51t-51.5 -75t-43.5 -83.5t-39 -75.5q-6 -10 -9.5 -16.5t-5.5 -11t-4 -7t-4 -4.5q-3 -3 -8.5 -6.5t-19.5 -15.5q-31 -22 -31 -58q0 -11 2.5 -21.5t7.5 -21.5q9 -17 24.5 -23.5t32.5 -6.5q13 0 23.5 2.5t21.5 7.5q24 12 44 37t38 57t34.5 68t34 69.5t37.5 61.5
t44 45q18 8 31.5 27t13.5 40q0 15 -6 27z" />
    <glyph glyph-name="igrave" unicode="&#xec;" horiz-adv-x="274" 
d="M229 711q0 31 -21 52t-52 21q-29 0 -49.5 -21t-22.5 -50q-4 -39 -17.5 -76.5l-28.5 -75.5t-26.5 -76.5t-11.5 -78.5q0 -35 19.5 -62t56.5 -27q15 0 28 6t23.5 16t16.5 23.5t6 28.5q0 42 12.5 81.5t27 79t27 79t12.5 80.5zM208 945q12 23 12 43q0 36 -33 58
q-14 12 -19.5 16t-9 7.5t-7.5 11t-15 26.5q-18 33 -38 75.5t-43 83.5t-51 75t-63 51q-9 6 -18.5 8t-17.5 2q-46 0 -68 -45q-6 -12 -6 -27q0 -21 12.5 -40t32.5 -27q24 -17 44 -45t37.5 -61.5t34 -69.5t34 -68t37.5 -57t44 -37q22 -10 43 -10q19 0 34.5 6.5t23.5 23.5z" />
    <glyph glyph-name="icircumflex" unicode="&#xee;" horiz-adv-x="274" 
d="M229 711q0 31 -21 52t-52 21q-29 0 -49.5 -21t-22.5 -50q-4 -39 -17.5 -76.5l-28.5 -75.5t-26.5 -76.5t-11.5 -78.5q0 -35 19.5 -62t56.5 -27q15 0 28 6t23.5 16t16.5 23.5t6 28.5q0 42 12.5 81.5t27 79t27 79t12.5 80.5zM521 925q0 14 -4 25t-12 22q-29 39 -65.5 67
l-69 51.5t-55.5 44t-25 44.5v10q0 16 -6.5 31t-17.5 26t-25.5 18t-30.5 7q-43 0 -69.5 -18t-50.5 -45.5l-53.5 -60.5t-78.5 -63q-17 -11 -28 -28t-11 -37q0 -29 21.5 -50.5t52.5 -21.5q29 0 50 9t40.5 25.5t41 40.5t52.5 54l24.5 -31t18 -21.5t19.5 -19t30 -24.5l40 -28.5
l25 -17.5t23 -19.5l35 -34.5q12 -14 25.5 -21.5t31.5 -7.5q29 0 50.5 22.5t21.5 51.5z" />
    <glyph glyph-name="idieresis" unicode="&#xef;" horiz-adv-x="274" 
d="M229 711q0 31 -21 52t-52 21q-29 0 -49.5 -21t-22.5 -50q-4 -39 -17.5 -76.5l-28.5 -75.5t-26.5 -76.5t-11.5 -78.5q0 -35 19.5 -62t56.5 -27q15 0 28 6t23.5 16t16.5 23.5t6 28.5q0 42 12.5 81.5t27 79t27 79t12.5 80.5zM180 1030q0 23 -11.5 45t-30 39.5t-41 28.5
t-44.5 11q-21 0 -41.5 -14t-36 -34.5t-25.5 -43.5t-10 -41q0 -23 9 -40t24 -28.5t34 -17.5t39 -6q24 0 48 5.5t43 18t31 31.5t12 46zM528 1021q0 20 -10 41.5t-26.5 38.5t-36.5 28t-40 11t-43 -11.5t-42.5 -29t-32.5 -39.5t-13 -43q0 -24 10.5 -42t27.5 -30.5t38.5 -19
t42.5 -6.5q24 0 46.5 6t40 19t28 32t10.5 45z" />
    <glyph glyph-name="ntilde" unicode="&#xf1;" horiz-adv-x="645" 
d="M600 618q0 26 -6.5 50t-19.5 42t-33.5 29t-48.5 11q-25 0 -52 -9t-53 -22t-50.5 -28l-43.5 -27q6 9 10 19.5t4 23.5q0 29 -21.5 50t-52.5 21q-34 0 -57 -26q-5 -7 -21 -34.5l-36 -64.5l-42 -79l-40.5 -79t-30.5 -63.5t-12 -32.5q0 -29 21.5 -50t50.5 -21q26 0 47 16
l163.5 131t174.5 113q-6 -30 -23 -73.5t-36 -87l-33.5 -79.5t-14.5 -51q0 -29 21.5 -50.5t50.5 -21.5q25 0 44 14t25 37l37 80.5t37.5 87t29 89t11.5 85.5zM746 1101q0 15 -6 28.5t-16.5 23.5t-23.5 16t-28 6q-25 0 -39 -9t-21.5 -22.5t-12 -29t-12 -29t-19.5 -22.5t-35 -9
t-35.5 11t-22 27.5t-19.5 36t-26.5 36t-44 27.5t-72.5 11q-34 0 -56 -7t-44 -36l-18.5 -24l-27.5 -35.5l-31 -41t-28.5 -40.5t-21 -34t-8.5 -21q0 -31 21.5 -53.5t52.5 -22.5q37 0 58 20t38 47l35 53.5t49 39.5q21 -22 32.5 -41.5t20 -35.5t18 -29t25 -22t40.5 -13.5
t65 -4.5q39 0 77 15.5t68.5 42.5t49 63t18.5 78z" />
    <glyph glyph-name="oacute" unicode="&#xf3;" horiz-adv-x="549" 
d="M340 492q0 -22 -9.5 -36t-24.5 -21.5t-34 -10t-39 -2.5q-21 0 -42.5 3t-43.5 11q15 23 34 45.5t40.5 43.5l43.5 41l42 38q13 -26 23 -54.5t10 -57.5zM485 492q0 19 -5.5 48.5t-15.5 62.5t-25 66t-33.5 59.5t-41 43t-47.5 16.5q-15 0 -45 -20t-66 -52.5t-73.5 -73
t-68.5 -81t-50.5 -77.5t-19.5 -62q0 -42 25.5 -70t62.5 -45.5t79 -25t75 -7.5q51 0 96 13.5t79 40.5t54 68t20 96zM684 1398q-23 45 -68 45q-9 0 -18 -2t-19 -8q-34 -17 -62 -51t-51.5 -75t-43.5 -83.5t-39 -75.5q-6 -10 -9.5 -16.5t-5.5 -11t-4 -7t-4 -4.5q-3 -3 -8.5 -6.5
t-19.5 -15.5q-31 -22 -31 -58q0 -11 2.5 -21.5t7.5 -21.5q9 -17 24.5 -23.5t32.5 -6.5q13 0 23.5 2.5t21.5 7.5q24 12 44 37t38 57t34.5 68t34 69.5t37.5 61.5t44 45q18 8 31.5 27t13.5 40q0 15 -6 27z" />
    <glyph glyph-name="ograve" unicode="&#xf2;" horiz-adv-x="549" 
d="M340 492q0 -22 -9.5 -36t-24.5 -21.5t-34 -10t-39 -2.5q-21 0 -42.5 3t-43.5 11q15 23 34 45.5t40.5 43.5l43.5 41l42 38q13 -26 23 -54.5t10 -57.5zM485 492q0 19 -5.5 48.5t-15.5 62.5t-25 66t-33.5 59.5t-41 43t-47.5 16.5q-15 0 -45 -20t-66 -52.5t-73.5 -73
t-68.5 -81t-50.5 -77.5t-19.5 -62q0 -42 25.5 -70t62.5 -45.5t79 -25t75 -7.5q51 0 96 13.5t79 40.5t54 68t20 96zM371 924q12 23 12 43q0 36 -33 58q-14 12 -19.5 16t-9 7.5t-7.5 11t-15 26.5q-18 33 -38 75.5t-43 83.5t-51 75t-63 51q-9 6 -18.5 8t-17.5 2q-46 0 -68 -45
q-6 -12 -6 -27q0 -21 12.5 -40t32.5 -27q24 -17 44 -45t37.5 -61.5t34 -69.5t34 -68t37.5 -57t44 -37q22 -10 43 -10q19 0 34.5 6.5t23.5 23.5z" />
    <glyph glyph-name="ocircumflex" unicode="&#xf4;" horiz-adv-x="549" 
d="M340 492q0 -22 -9.5 -36t-24.5 -21.5t-34 -10t-39 -2.5q-21 0 -42.5 3t-43.5 11q15 23 34 45.5t40.5 43.5l43.5 41l42 38q13 -26 23 -54.5t10 -57.5zM485 492q0 19 -5.5 48.5t-15.5 62.5t-25 66t-33.5 59.5t-41 43t-47.5 16.5q-15 0 -45 -20t-66 -52.5t-73.5 -73
t-68.5 -81t-50.5 -77.5t-19.5 -62q0 -42 25.5 -70t62.5 -45.5t79 -25t75 -7.5q51 0 96 13.5t79 40.5t54 68t20 96zM602 904q0 14 -4 25t-12 22q-29 39 -65.5 67l-69 51.5t-55.5 44t-25 44.5v10q0 16 -6.5 31t-17.5 26t-25.5 18t-30.5 7q-43 0 -69.5 -18t-50.5 -45.5
l-53.5 -60.5t-78.5 -63q-17 -11 -28 -28t-11 -37q0 -29 21.5 -50.5t52.5 -21.5q29 0 50 9t40.5 25.5t41 40.5t52.5 54l24.5 -31t18 -21.5t19.5 -19t30 -24.5l40 -28.5l25 -17.5t23 -19.5l35 -34.5q12 -14 25.5 -21.5t31.5 -7.5q29 0 50.5 22.5t21.5 51.5z" />
    <glyph glyph-name="odieresis" unicode="&#xf6;" horiz-adv-x="549" 
d="M340 492q0 -22 -9.5 -36t-24.5 -21.5t-34 -10t-39 -2.5q-21 0 -42.5 3t-43.5 11q15 23 34 45.5t40.5 43.5l43.5 41l42 38q13 -26 23 -54.5t10 -57.5zM485 492q0 19 -5.5 48.5t-15.5 62.5t-25 66t-33.5 59.5t-41 43t-47.5 16.5q-15 0 -45 -20t-66 -52.5t-73.5 -73
t-68.5 -81t-50.5 -77.5t-19.5 -62q0 -42 25.5 -70t62.5 -45.5t79 -25t75 -7.5q51 0 96 13.5t79 40.5t54 68t20 96zM281 989q0 23 -11.5 45t-30 39.5t-41 28.5t-44.5 11q-21 0 -41.5 -14t-36 -34.5t-25.5 -43.5t-10 -41q0 -23 9 -40t24 -28.5t34 -17.5t39 -6q24 0 48 5.5
t43 18t31 31.5t12 46zM629 980q0 20 -10 41.5t-26.5 38.5t-36.5 28t-40 11t-43 -11.5t-42.5 -29t-32.5 -39.5t-13 -43q0 -24 10.5 -42t27.5 -30.5t38.5 -19t42.5 -6.5q24 0 46.5 6t40 19t28 32t10.5 45z" />
    <glyph glyph-name="otilde" unicode="&#xf5;" horiz-adv-x="549" 
d="M340 492q0 -22 -9.5 -36t-24.5 -21.5t-34 -10t-39 -2.5q-21 0 -42.5 3t-43.5 11q15 23 34 45.5t40.5 43.5l43.5 41l42 38q13 -26 23 -54.5t10 -57.5zM485 492q0 19 -5.5 48.5t-15.5 62.5t-25 66t-33.5 59.5t-41 43t-47.5 16.5q-15 0 -45 -20t-66 -52.5t-73.5 -73
t-68.5 -81t-50.5 -77.5t-19.5 -62q0 -42 25.5 -70t62.5 -45.5t79 -25t75 -7.5q51 0 96 13.5t79 40.5t54 68t20 96zM664 1080q0 15 -6 28.5t-16.5 23.5t-23.5 16t-28 6q-25 0 -39 -9t-21.5 -22.5t-12 -29t-12 -29t-19.5 -22.5t-35 -9t-35.5 11t-22 27.5t-19.5 36t-26.5 36
t-44 27.5t-72.5 11q-34 0 -56 -7t-44 -36l-18.5 -24l-27.5 -35.5l-31 -41t-28.5 -40.5t-21 -34t-8.5 -21q0 -31 21.5 -53.5t52.5 -22.5q37 0 58 20t38 47l35 53.5t49 39.5q21 -22 32.5 -41.5t20 -35.5t18 -29t25 -22t40.5 -13.5t65 -4.5q39 0 77 15.5t68.5 42.5t49 63
t18.5 78z" />
    <glyph glyph-name="uacute" unicode="&#xfa;" horiz-adv-x="635" 
d="M584 743q0 29 -21.5 50.5t-52.5 21.5q-29 0 -50.5 -21.5t-21.5 -50.5q0 -23 -15 -57.5t-39 -72.5t-54.5 -76.5t-61 -70.5t-59 -54t-47.5 -27q-9 11 -13 31.5t-4 34.5q0 32 18.5 71.5l40 82.5t40 86t18.5 81q0 29 -21.5 50.5t-50.5 21.5q-34 0 -52 -20.5t-21 -51.5
q-4 -33 -23 -69l-40 -76t-37.5 -84t-16.5 -92q0 -36 9 -74t28 -69t49.5 -50.5t73.5 -19.5q41 0 88.5 26.5t94.5 69.5t90.5 97.5t77 110.5t53.5 109t20 92zM684 1377q-23 45 -68 45q-9 0 -18 -2t-19 -8q-34 -17 -62 -51t-51.5 -75t-43.5 -83.5t-39 -75.5q-6 -10 -9.5 -16.5
t-5.5 -11t-4 -7t-4 -4.5q-3 -3 -8.5 -6.5t-19.5 -15.5q-31 -22 -31 -58q0 -11 2.5 -21.5t7.5 -21.5q9 -17 24.5 -23.5t32.5 -6.5q13 0 23.5 2.5t21.5 7.5q24 12 44 37t38 57t34.5 68t34 69.5t37.5 61.5t44 45q18 8 31.5 27t13.5 40q0 15 -6 27z" />
    <glyph glyph-name="ugrave" unicode="&#xf9;" horiz-adv-x="635" 
d="M584 743q0 29 -21.5 50.5t-52.5 21.5q-29 0 -50.5 -21.5t-21.5 -50.5q0 -23 -15 -57.5t-39 -72.5t-54.5 -76.5t-61 -70.5t-59 -54t-47.5 -27q-9 11 -13 31.5t-4 34.5q0 32 18.5 71.5l40 82.5t40 86t18.5 81q0 29 -21.5 50.5t-50.5 21.5q-34 0 -52 -20.5t-21 -51.5
q-4 -33 -23 -69l-40 -76t-37.5 -84t-16.5 -92q0 -36 9 -74t28 -69t49.5 -50.5t73.5 -19.5q41 0 88.5 26.5t94.5 69.5t90.5 97.5t77 110.5t53.5 109t20 92zM432 986q12 23 12 43q0 36 -33 58q-14 12 -19.5 16t-9 7.5t-7.5 11t-15 26.5q-18 33 -38 75.5t-43 83.5t-51 75
t-63 51q-9 6 -18.5 8t-17.5 2q-46 0 -68 -45q-6 -12 -6 -27q0 -21 12.5 -40t32.5 -27q24 -17 44 -45t37.5 -61.5t34 -69.5t34 -68t37.5 -57t44 -37q22 -10 43 -10q19 0 34.5 6.5t23.5 23.5z" />
    <glyph glyph-name="ucircumflex" unicode="&#xfb;" horiz-adv-x="635" 
d="M584 743q0 29 -21.5 50.5t-52.5 21.5q-29 0 -50.5 -21.5t-21.5 -50.5q0 -23 -15 -57.5t-39 -72.5t-54.5 -76.5t-61 -70.5t-59 -54t-47.5 -27q-9 11 -13 31.5t-4 34.5q0 32 18.5 71.5l40 82.5t40 86t18.5 81q0 29 -21.5 50.5t-50.5 21.5q-34 0 -52 -20.5t-21 -51.5
q-4 -33 -23 -69l-40 -76t-37.5 -84t-16.5 -92q0 -36 9 -74t28 -69t49.5 -50.5t73.5 -19.5q41 0 88.5 26.5t94.5 69.5t90.5 97.5t77 110.5t53.5 109t20 92zM704 1048q0 14 -4 25t-12 22q-29 39 -65.5 67l-69 51.5t-55.5 44t-25 44.5v10q0 16 -6.5 31t-17.5 26t-25.5 18
t-30.5 7q-43 0 -69.5 -18t-50.5 -45.5l-53.5 -60.5t-78.5 -63q-17 -11 -28 -28t-11 -37q0 -29 21.5 -50.5t52.5 -21.5q29 0 50 9t40.5 25.5t41 40.5t52.5 54l24.5 -31t18 -21.5t19.5 -19t30 -24.5l40 -28.5l25 -17.5t23 -19.5l35 -34.5q12 -14 25.5 -21.5t31.5 -7.5
q29 0 50.5 22.5t21.5 51.5z" />
    <glyph glyph-name="udieresis" unicode="&#xfc;" horiz-adv-x="635" 
d="M584 743q0 29 -21.5 50.5t-52.5 21.5q-29 0 -50.5 -21.5t-21.5 -50.5q0 -23 -15 -57.5t-39 -72.5t-54.5 -76.5t-61 -70.5t-59 -54t-47.5 -27q-9 11 -13 31.5t-4 34.5q0 32 18.5 71.5l40 82.5t40 86t18.5 81q0 29 -21.5 50.5t-50.5 21.5q-34 0 -52 -20.5t-21 -51.5
q-4 -33 -23 -69l-40 -76t-37.5 -84t-16.5 -92q0 -36 9 -74t28 -69t49.5 -50.5t73.5 -19.5q41 0 88.5 26.5t94.5 69.5t90.5 97.5t77 110.5t53.5 109t20 92zM363 1050q0 23 -11.5 45t-30 39.5t-41 28.5t-44.5 11q-21 0 -41.5 -14t-36 -34.5t-25.5 -43.5t-10 -41q0 -23 9 -40
t24 -28.5t34 -17.5t39 -6q24 0 48 5.5t43 18t31 31.5t12 46zM711 1041q0 20 -10 41.5t-26.5 38.5t-36.5 28t-40 11t-43 -11.5t-42.5 -29t-32.5 -39.5t-13 -43q0 -24 10.5 -42t27.5 -30.5t38.5 -19t42.5 -6.5q24 0 46.5 6t40 19t28 32t10.5 45z" />
    <glyph glyph-name="dagger" unicode="&#x2020;" horiz-adv-x="555" 
d="M535 1303q0 33 -21 51t-51 26t-63 9.5t-56 1.5h-29q5 72 14 143.5t27 142.5q2 8 3 15t1 16q0 29 -21 49.5t-50 20.5q-19 0 -33 -7.5t-27 -21.5q-10 -11 -17.5 -39t-13.5 -64t-10.5 -77t-7.5 -79t-5 -69l-3 -47q-29 -3 -57.5 -5.5t-57.5 -2.5q-11 0 -20.5 2t-20.5 2
q-29 0 -51 -21.5t-22 -52.5q0 -24 10.5 -39t27 -23t37 -10.5t39.5 -2.5q55 0 107 6l-5 -104l-6.5 -133.5t-9 -152t-13.5 -159.5t-18 -157.5t-24 -145t-32 -121.5t-40 -88l-15.5 -23.5t-6.5 -27.5q0 -15 6 -28.5t15.5 -24t22.5 -17t28 -6.5q28 0 52 23.5t43 55.5t32 67t20 57
q25 85 35 172.5t18 177.5q16 164 25 325.5l18 325.5q13 2 26 2h25q17 0 32.5 -0.5t31.5 -5.5q9 -3 17.5 -6.5t19.5 -3.5q15 0 28 6t23.5 16t16.5 23.5t6 28.5z" />
    <glyph glyph-name="degree" unicode="&#xb0;" horiz-adv-x="440" 
d="M326 1546q0 -17 -9 -37t-24 -37t-33.5 -28.5t-36.5 -11.5q-23 0 -44 15.5t-34 35.5v4q0 15 9.5 39t23 48t29 45t26.5 30q18 -1 35 -10.5t29.5 -24.5t20.5 -33t8 -35zM471 1546q0 48 -19.5 92.5t-52 79t-75.5 55.5t-91 21q-30 0 -59.5 -15.5t-55.5 -41t-47.5 -58.5
t-37 -67.5t-24.5 -68t-9 -60.5q0 -40 21 -76t53.5 -63t72 -42.5t76.5 -15.5q49 0 94 23t79 59.5t54.5 83t20.5 94.5z" />
    <glyph glyph-name="cent" unicode="&#xa2;" horiz-adv-x="635" 
d="M217 336v-2l-2 6zM297 895l-78 -162l-19.5 5.5t-24.5 9t-21 13t-9 17.5q0 28 15.5 49t38.5 35.5t49.5 23t48.5 9.5zM590 913q0 19 -7 32.5t-18.5 23.5t-25.5 17t-29 13q5 12 12.5 28t14.5 33.5t11.5 34t4.5 29.5q0 31 -21 52.5t-53 21.5q-25 0 -42.5 -17.5t-30 -43
t-21.5 -53.5t-18 -48q-11 2 -21.5 3t-21.5 1q-58 0 -116 -16.5t-104.5 -49.5t-75 -82t-28.5 -114q0 -36 13 -65t34.5 -51t50.5 -38t60 -26l-25.5 -59t-28 -70.5t-23 -72t-9.5 -62.5q0 -34 19 -58t54 -24q29 0 50.5 21.5t21.5 50.5v12q1 18 13 52t27.5 72t31 72t22.5 52
q24 1 60.5 7.5t70 20t58 36t24.5 54.5q0 31 -21 52.5t-52 21.5q-12 0 -19.5 -2.5t-14.5 -6.5t-14 -9t-16 -10l59 120q19 -8 34.5 -17t35.5 -9q31 0 52.5 21t21.5 50z" />
    <glyph glyph-name="sterling" unicode="&#xa3;" horiz-adv-x="1042" 
d="M354 614q-12 -12 -28.5 -26.5t-35.5 -27.5t-39 -21.5t-38 -8.5q-7 0 -19 3t-22.5 8.5t-18.5 13t-8 16.5q0 20 18 44.5t42.5 47t51 39.5t44.5 23q17 -23 29.5 -54zM971 1200q0 -57 -33.5 -95t-81.5 -63l56 81.5t59 76.5zM1118 1200q0 29 -5.5 61.5t-19 59.5t-37 45
t-59.5 18q-29 0 -63 -23.5t-68.5 -60.5t-68.5 -83t-63.5 -90.5l-53 -82.5l-37.5 -59q-12 -2 -25.5 -2h-25.5q-25 0 -44.5 7t-41.5 7q-31 0 -52.5 -21t-21.5 -50q0 -23 10.5 -38.5t26.5 -25.5t36 -15t38 -7l-40 -52.5l-40 -52.5q-11 23 -25 47.5t-32.5 44.5t-41 33.5
t-51.5 13.5q-49 0 -104 -28.5t-101.5 -73t-77 -98.5t-30.5 -105q0 -40 18.5 -74.5t48.5 -59t68 -38.5t76 -14q57 0 107 26t94 60l25.5 -62t37.5 -71t50.5 -58t62.5 -24q15 0 29 5t25 14t17.5 21.5t6.5 27.5q0 27 -14 48t-42 27q-10 11 -22 35.5t-24 52.5l-23 55l-17 42
q57 63 106 131l97 137q70 13 139.5 39t125.5 68t91 102t35 141z" />
    <glyph glyph-name="section" unicode="&#xa7;" horiz-adv-x="786" 
d="M727 1231h-6q3 -3 6 0zM807 1303q0 32 -23 52.5t-55 20.5q-26 0 -71 -10.5t-96.5 -28.5t-104 -42.5t-95 -53t-69.5 -60t-27 -63.5t21 -55t50.5 -39.5t62.5 -27.5l57 -19l-55 -28.5t-63 -40t-51.5 -49.5t-21.5 -56q0 -35 22.5 -58t56.5 -39.5t74.5 -29t76.5 -27
t61.5 -32.5t30.5 -46q2 -8 2 -16v-16q0 -58 -21.5 -97t-57 -63t-81.5 -34.5t-96 -10.5q-54 0 -110 10.5t-99 42.5q-14 11 -24.5 16t-28.5 5q-29 0 -50.5 -21.5t-21.5 -50.5q0 -28 19 -50t48.5 -38.5t67 -28t74 -19t69.5 -11t54 -3.5q82 0 155.5 21.5t129 65.5t88 110.5
t32.5 155.5q0 38 -9.5 75t-31.5 68q22 40 31.5 83.5t9.5 88.5q0 68 -22.5 112.5t-60 74.5t-87.5 50.5t-104 38.5q18 10 54.5 27t76.5 33.5t76.5 28.5t54.5 12q34 0 58 18t24 54zM590 854q0 -41 -12 -82q-28 14 -57.5 24l-57.5 19q29 17 62 31l65 28v-20z" />
    <glyph glyph-name="bullet" unicode="&#x2022;" horiz-adv-x="561" 
d="M221 768h-10h-2q-16 0 -28 7t-20 18.5t-12 25.5t-4 29v2v10q4 -13 12 -27t18 -27t22 -23t24 -15zM369 885q0 -22 -13 -39t-28 -31v16q0 22 -9.5 36t-27.5 28q6 14 18 25t23 20l10 4q9 -9 18 -27t9 -32zM516 885q0 45 -21 90t-53 76q2 6 3 12t1 12q0 28 -19.5 47t-47.5 31
t-58 17.5t-51 5.5q-60 0 -110 -29.5t-85.5 -76.5t-55 -104.5t-19.5 -113.5q0 -46 15 -88t42.5 -73.5t66.5 -50.5t87 -19q51 0 105 20.5t98.5 56t73 84t28.5 103.5z" />
    <glyph glyph-name="paragraph" unicode="&#xb6;" horiz-adv-x="911" 
d="M891 1036q0 113 -28 194t-83.5 133.5t-139 77.5t-194.5 25q-9 0 -16 -1t-16 1q-19 3 -38.5 8t-37.5 5q-74 0 -132.5 -38t-99 -96.5t-62 -129.5t-21.5 -136q0 -103 52.5 -173.5t151.5 -96.5q26 -7 53.5 -8.5l54.5 -3t53.5 -4t51.5 -11.5l20.5 -9.5t20.5 -4.5h15
q-6 -50 -17.5 -98.5t-25.5 -96.5l-29 -96t-27 -96q-11 -38 -20.5 -79t-9.5 -81q0 -29 22.5 -48t50.5 -19q17 0 33.5 8.5t26.5 23.5q8 11 10 23.5t4 23.5q11 70 26.5 138.5l32 136l33 135t29.5 135.5l78 -16q-20 -84 -43.5 -166t-40.5 -164q-11 -51 -24 -104.5t-13 -106.5
q0 -15 6.5 -27t17 -21t23.5 -14t27 -5q17 0 33.5 8.5t25.5 23.5q8 11 10 23.5t4 23.5q16 102 42 201l50.5 198.5t42 200t17.5 203.5zM752 1051q0 -41 -3 -80.5t-10 -77.5l-84 8q5 40 9 81t4 83q0 28 -3.5 55t-8 53.5t-8 53t-3.5 53.5q19 0 34.5 -13t27 -33.5t20.5 -46.5
t14.5 -51.5t8 -48t2.5 -36.5zM526 1087q0 -45 -4.5 -90t-9.5 -90q-28 16 -64 21.5t-74 8t-74.5 6.5t-65.5 17.5t-46.5 41t-17.5 75.5q0 23 4.5 51t14 56t24 54.5t33.5 47t42.5 33t51.5 12.5q51 0 86 -21.5t57.5 -56.5t32.5 -78.5t10 -87.5z" />
    <glyph glyph-name="germandbls" unicode="&#xdf;" horiz-adv-x="893" 
d="M868 856q0 70 -21 120t-60 82.5t-94 48t-122 15.5q-66 0 -119 -26t-93 -68.5t-66.5 -98.5t-38.5 -116q-8 -38 -18.5 -76t-22.5 -75q-29 3 -58 7t-57 15q-8 2 -15 4t-15 2q-29 0 -48.5 -22.5t-19.5 -51.5t16 -46t39.5 -26t50 -13t48.5 -7q-11 -24 -25 -51t-30.5 -54
t-35 -51t-36.5 -42q-13 -13 -20 -27t-7 -33q0 -28 19.5 -50.5t48.5 -22.5q21 0 43.5 18.5t46 47.5t45.5 65t40.5 70.5t33 64.5l22.5 47q14 0 27.5 -1t27.5 -1q20 0 39.5 3t35 11.5t25 23.5t9.5 40q0 27 -19.5 49t-48.5 22q-11 0 -21.5 -2t-21.5 -2q11 34 19 68l16 69
q9 44 29.5 81.5t50 65t68.5 43t86 15.5q21 0 37 -4t28 -14t20.5 -27t14.5 -43q6 -24 -0.5 -40.5t-19.5 -30t-31.5 -25t-37.5 -26t-37 -33.5t-30 -46q-18 -33 -18 -69q0 -31 18 -54t44.5 -40.5t56 -30t51.5 -23.5q-11 -20 -31.5 -37t-45 -30t-51 -20t-48.5 -7
q-11 0 -20.5 3.5t-18.5 8t-18.5 8t-20.5 3.5q-15 0 -28.5 -6t-23.5 -16.5t-16 -23.5t-6 -28q0 -27 16 -45.5t39 -29.5t49.5 -16t47.5 -5q48 0 105.5 19t106.5 53t82 80t33 100q0 39 -17 62.5t-42.5 39.5t-56 28t-56.5 27q5 19 20 31t34 22.5l40 22t38 28t28.5 40t11.5 59.5z
" />
    <glyph glyph-name="registered" unicode="&#xae;" horiz-adv-x="1014" 
d="M774 836q0 -25 -2.5 -55t-7.5 -60t-13 -59t-20 -52v8q0 29 -19 51.5t-48 22.5h-7l-10 -2h-4q-12 0 -28.5 6t-28.5 13q29 16 49.5 40t34 52.5t20 60t6.5 62.5q0 26 -6.5 53.5t-20 50t-35.5 37t-54 14.5q-23 0 -44.5 -7.5t-41 -20t-37 -28.5l-33.5 -32q-12 6 -29 6
q-29 0 -48.5 -18.5t-22.5 -46.5q-3 -20 -12.5 -49.5t-22 -62l-26 -65.5l-24.5 -62t-18.5 -50.5t-7.5 -30.5q0 -29 21.5 -50t50.5 -21q27 0 42.5 12t25 30.5t17 40t17.5 40.5q22 -22 53.5 -43t67 -38t72 -27.5t67.5 -10.5q16 0 29.5 3.5t25.5 12.5q-25 -37 -57.5 -62
t-70 -40.5t-78.5 -22t-84 -6.5q-48 0 -94 5.5t-82 23.5t-58 52t-22 91q0 50 15 108t39 116.5t53 112.5t56 95q17 -6 33 -6q43 0 66 39q13 24 40.5 52t60.5 52.5t67 41t61 16.5q23 0 41.5 -24.5t32.5 -63t24 -85t16.5 -90.5t9.5 -79t3 -51zM549 909q-1 -12 -4.5 -26t-10 -26
t-16.5 -20t-24 -8h-2h-13q16 22 33 42t37 38zM918 836q0 41 -4.5 96.5t-16 115.5t-31.5 118.5t-50 104.5t-71.5 74.5t-97.5 28.5q-44 0 -88.5 -15.5t-86.5 -41t-78.5 -57.5t-63.5 -64q-12 6 -29 6q-26 0 -45 -16q-6 -4 -14.5 -14t-17 -21.5l-16 -22.5t-11.5 -16
q-34 -52 -67.5 -115.5t-60 -131t-43 -136t-16.5 -131.5q0 -90 32.5 -150t87.5 -96.5t127.5 -51.5t152.5 -15q129 0 224.5 41t158.5 114t94 174t31 222z" />
    <glyph glyph-name="copyright" unicode="&#xa9;" horiz-adv-x="952" 
d="M762 842q0 -51 -13.5 -92t-37.5 -84q-5 26 -25.5 43.5t-48.5 17.5q-12 0 -25 -4t-22 -12q-9 -6 -21 -10t-25.5 -6t-26.5 -2.5t-23 -0.5q-12 0 -27.5 1t-31 3t-30 5.5t-26.5 9.5q20 28 47.5 47.5t62.5 19.5q25 0 46.5 -10t44.5 -10q29 0 50 21t21 50q0 28 -17.5 46t-43 29
t-53.5 15.5t-50 4.5q-41 0 -87 -17.5t-84.5 -47.5t-63.5 -70t-25 -84q0 -48 27.5 -78.5t68 -48t86.5 -24.5t83 -7q38 0 78 5.5t75 22.5q-24 -27 -52 -52t-60.5 -44t-68 -30t-73.5 -11q-39 0 -81 15t-77.5 41t-58 62.5t-22.5 78.5q0 41 15.5 83t39.5 81.5t53.5 76t56.5 64.5
q18 -14 43 -14q14 0 35 11t43.5 26l43.5 30t36 23q14 -10 29 -25.5t31 -29.5t32.5 -24.5t34.5 -10.5q29 0 50.5 21t21.5 50v15q25 -35 35 -82t10 -88zM907 842q0 62 -15 125.5t-48 114.5t-84 83.5t-123 32.5q-29 0 -58 -5.5t-57 -14.5q-15 6 -32.5 9t-34.5 3
q-43 0 -88.5 -23t-90 -60.5t-85.5 -85.5t-75 -98t-58 -97.5t-35 -84.5q-17 -53 -17 -106q0 -74 34 -136.5t88.5 -108.5t123 -71.5t137.5 -25.5q68 0 132.5 22.5t122 62t106 92.5t83.5 114t54.5 127t19.5 131z" />
    <glyph glyph-name="trademark" unicode="&#x2122;" horiz-adv-x="1180" 
d="M596 1169h9.5t10.5 -2l-34 -55q3 14 7 28.5t7 28.5zM1188 623q0 20 -15 35.5t-36 15.5q-11 0 -21 -5.5t-18 -13.5q-8 14 -9.5 35.5t-1.5 36.5q0 97 17.5 191l36.5 188q2 4 2 12q0 20 -15.5 35.5t-35.5 15.5t-31.5 -11t-18.5 -28q-9 -20 -19 -38.5t-24 -38.5
q-22 -34 -62.5 -80.5t-89.5 -89.5t-100.5 -73t-95.5 -30h-10q-6 8 -7 16t-1 17q0 34 10 76.5t25 86t31.5 85l29.5 72.5l7 17.5l10 26l9.5 25.5t4.5 17q0 21 -15.5 36t-35.5 15q-26 0 -41 -19q-14 13 -32.5 17t-37.5 4q-60 0 -118 -12.5l-115 -24.5q-4 20 -18 33.5t-34 13.5
q-15 0 -25.5 -7t-18 -17.5t-13 -23l-10.5 -24.5q-47 -11 -93 -26t-94 -15q-24 0 -41.5 -11.5t-17.5 -37.5q0 -23 16 -37t37 -14q37 0 73 8.5l71 16.5l-19 -44.5l-25 -60l-26.5 -67t-24 -66.5t-17.5 -58.5t-7 -41.5q0 -22 14 -39t37 -17q20 0 35.5 15t15.5 35q0 13 8.5 41
t21.5 64l29 76.5l31.5 77.5l28.5 67l20 46l84.5 19.5t85.5 17.5q-11 -45 -25.5 -87.5t-31.5 -84.5q-3 -11 -13.5 -37l-23.5 -59l-27 -69.5l-26 -68.5t-19.5 -55t-7.5 -30q0 -20 15 -36t37 -16q12 0 24 7t19 18l125 201q-3 -31 1 -60.5t16.5 -52.5t36 -37t60.5 -14
q46 0 95 20.5t95.5 51.5t87 68t70.5 69q-5 -37 -7.5 -74.5t-2.5 -75.5q0 -27 3.5 -59t14.5 -60.5t33 -47.5t58 -19q14 0 30 5t30 14.5t23 23t9 29.5z" />
    <glyph glyph-name="acute" unicode="&#xb4;" horiz-adv-x="414" 
d="M377 1704q-23 45 -68 45q-9 0 -18 -2t-19 -8q-34 -17 -62 -51t-51.5 -75t-43.5 -83.5t-39 -75.5q-6 -10 -9.5 -16.5t-5.5 -11t-4 -7t-4 -4.5q-3 -3 -8.5 -6.5t-19.5 -15.5q-31 -22 -31 -58q0 -11 2.5 -21.5t7.5 -21.5q9 -17 24.5 -23.5t32.5 -6.5q13 0 23.5 2.5t21.5 7.5
q24 12 44 37t38 57t34.5 68t34 69.5t37.5 61.5t44 45q18 8 31.5 27t13.5 40q0 15 -6 27z" />
    <glyph glyph-name="dieresis" unicode="&#xa8;" horiz-adv-x="592" 
d="M240 1602q0 23 -11.5 45t-30 39.5t-41 28.5t-44.5 11q-21 0 -41.5 -14t-36 -34.5t-25.5 -43.5t-10 -41q0 -23 9 -40t24 -28.5t34 -17.5t39 -6q24 0 48 5.5t43 18t31 31.5t12 46zM588 1593q0 20 -10 41.5t-26.5 38.5t-36.5 28t-40 11t-43 -11.5t-42.5 -29t-32.5 -39.5
t-13 -43q0 -24 10.5 -42t27.5 -30.5t38.5 -19t42.5 -6.5q24 0 46.5 6t40 19t28 32t10.5 45z" />
    <glyph glyph-name="notequal" unicode="&#x2260;" horiz-adv-x="553" 
d="M109 682l-5 2h2zM530 1153q0 29 -22 50.5t-51 21.5q-28 0 -45 -15.5t-25 -40.5q-18 -53 -35 -93.5t-32.5 -73t-30 -59.5t-29.5 -52l-20 -2q-23 -2 -46 -3t-44 -1q-5 0 -10.5 2t-8.5 2q-2 0 -2 -2q-5 2 -9.5 2h-10.5q-28 0 -50 -20.5t-22 -51.5q0 -25 10.5 -40.5t27 -23.5
t37 -11t40.5 -3h24q-6 -14 -13 -28t-13 -31h-3q-9 0 -20 0.5t-21 3.5q-8 5 -16 6.5t-16 1.5q-31 0 -52.5 -21t-21.5 -50q0 -20 8 -34.5t20.5 -24t29 -15t34.5 -8.5l-6 -19q-15 -42 -25 -84t-10 -86q0 -18 4 -34.5t12.5 -30t22.5 -21.5t35 -8q15 0 28 6t23.5 16t16.5 23.5
t6 28.5q0 3 -1 6t-1 6v10q0 42 11.5 88.5t31.5 96.5q27 2 58 5.5t60.5 8t55 10t43.5 12.5q20 8 33.5 26.5t13.5 41.5q0 15 -6 28.5t-16.5 23.5t-23.5 16t-28 6q-12 0 -24 -6q-19 -5 -44 -10.5t-53 -8.5q8 14 15.5 29t15.5 29h18q20 0 37 -5.5t35 -5.5q31 0 52.5 21.5
t21.5 50.5q0 38 -26 56t-60 24l43.5 79.5t35.5 72.5t24 62.5t9 49.5z" />
    <glyph glyph-name="AE" unicode="&#xc6;" horiz-adv-x="1268" 
d="M721 1104q0 -81 -3 -159t-9 -159q-88 -45 -177.5 -85l-179.5 -78l41 90.5l55.5 117l65 128l68.5 124t66.5 104.5t58.5 70q5 -21 8 -37.5t4.5 -31.5t1.5 -30v-34v-20zM903 799l-26 -42.5l-29 -45.5l8 104q12 -5 23.5 -9t23.5 -7zM1217 430q0 31 -21.5 52.5t-52.5 21.5
q-17 0 -45 -9.5l-61.5 -20.5t-69.5 -20.5t-68 -9.5h-8t-8 2q2 28 16.5 60t34.5 65t43 67t42.5 66.5t32.5 62.5t13 56q0 39 -20 60t-48.5 33.5t-59.5 21.5t-54 25q11 22 39 48.5t61 52.5t65.5 48.5l53.5 36.5q15 11 25 27t10 34q0 31 -21.5 52.5t-52.5 21.5q-14 0 -36 -9.5
t-48.5 -26.5t-55.5 -40t-57 -49q-1 41 -6 86.5t-20 83.5t-43 63t-76 25q-45 0 -88 -28.5t-80.5 -69t-66.5 -85.5t-46 -77h-2q-21 0 -36 -10t-27 -29q-16 -24 -40.5 -69l-53.5 -102.5l-61.5 -124.5l-63.5 -136l-59.5 -136t-50 -124t-34 -101t-12.5 -67q0 -40 22 -68t64 -28
q22 0 42 16.5t39 42.5t35.5 58t30.5 63t24.5 58l16.5 42h5q14 0 46.5 11t74.5 28.5l88 38.5l87.5 40.5l73.5 34.5l45 21q-3 -30 -7.5 -62.5l-9 -65.5t-8 -65t-3.5 -61q0 -30 21 -51.5t50 -21.5q22 0 37 9.5t25 25.5q23 -13 50 -19t56 -6q30 0 65 5.5t70.5 14.5t69.5 21
t61 25q20 9 33 26t13 39z" />
    <glyph glyph-name="Oslash" unicode="&#xd8;" horiz-adv-x="1108" 
d="M766 1120q-20 -34 -38.5 -60.5l-29.5 -43.5l-59 -87l-78.5 -117l-89 -136l-91 -143l-84 -138t-67.5 -121q-3 -2 -7 -2h-7h-20h-2q-15 0 -24.5 7.5t-15 18.5t-7 25t-1.5 27q0 24 17.5 62.5t47.5 86.5t69 102l81.5 108.5l85.5 108l81 99.5l68.5 82.5l47.5 57.5q8 9 13.5 21
t5.5 26q0 17 -9 33q29 -3 58 -7t55 -10zM915 942q0 -114 -38.5 -207t-103.5 -167.5t-152 -131t-185 -96.5l104 171l117 181l119.5 180l112.5 170q12 -18 19 -43t7 -57zM1083 1399q0 29 -21 51.5t-52 22.5q-26 0 -44 -15.5t-26 -40.5q-9 -25 -34.5 -70l-57.5 -98
q-51 19 -108 27t-117 8q-36 0 -62 -17t-26 -59q0 -22 16 -43q-9 -5 -31 -29l-50.5 -57.5l-60.5 -72.5l-60.5 -74.5l-50.5 -63l-30 -37.5l-45 -60l-57 -78.5t-59.5 -89t-53 -91.5t-38.5 -87t-15 -75q0 -43 10.5 -81t32 -68t54 -49.5t75.5 -24.5q-8 -26 -12 -54.5t-4 -56.5
q0 -37 16 -65.5t57 -28.5q29 0 51.5 21.5t22.5 50.5q0 3 -1 6t-1 6v12q0 23 9 56t28 73q71 20 147.5 55t148 77t132 88t100.5 88q96 100 145.5 224t49.5 263q0 77 -23.5 134t-66.5 98q51 81 81.5 140t30.5 85z" />
    <glyph glyph-name="infinity" unicode="&#x221e;" horiz-adv-x="1362" 
d="M440 786q-15 -12 -24.5 -25.5t-9.5 -35.5q0 -6 1 -11t3 -12q-23 -23 -54 -33t-63 -10q-24 0 -50 8t-48 22.5t-36 36t-14 48.5q0 18 15.5 28.5t37.5 15.5t45.5 6t39.5 1h12q13 0 32.5 -4.5t40.5 -10.5t40 -12.5t32 -11.5zM1169 846q0 -25 -9.5 -42t-25 -26.5t-36 -13.5
t-41.5 -4q-36 0 -77.5 7t-84 18.5t-83 25l-75.5 25.5q57 38 115 47.5t125 9.5q16 0 43 -1t55.5 -4.5t53.5 -10t38 -17.5q0 -3 1 -7t1 -7zM1315 844q0 44 -15.5 75.5t-41 53.5t-59.5 35t-71.5 20t-75 9.5t-71.5 2.5q-71 0 -123.5 -7t-97.5 -23.5t-89 -44.5t-100 -70
l-62.5 23.5t-73.5 25.5t-74.5 20.5t-65.5 8.5q-51 0 -103 -7.5t-95 -29t-70 -60.5t-27 -102q0 -57 25 -105t66 -82.5t94 -53.5t108 -19q62 0 107 15.5t81 43.5t67.5 66.5l65.5 83.5l104.5 -37t113 -35t115.5 -26.5t112 -10.5q51 0 97.5 15t82 44t56 72t20.5 99z" />
    <glyph glyph-name="plusminus" unicode="&#xb1;" horiz-adv-x="532" 
d="M369 152l-2 2zM369 152l-2 2zM369 631l-2 2zM307 827h-2v-2zM477 215q0 30 -17.5 47.5t-43.5 26.5t-56 11.5t-55 2.5h-16q-30 -1 -46.5 -3.5t-32.5 -5.5l-37 -7t-60 -8h-4h-8.5t-8.5 2t-9 2h-9q-15 0 -28 -6t-23.5 -16t-16.5 -23.5t-6 -28.5q0 -25 10.5 -40t27.5 -23
t37.5 -10.5t39.5 -2.5q44 0 62 2t23.5 4.5t4.5 6t4.5 6t23.5 4.5t62 2h10q16 0 33.5 -0.5t30.5 -5.5q16 -11 37 -11q29 0 50 21.5t21 52.5zM477 694q0 30 -17.5 47.5t-43.5 26.5t-56 11.5t-55 2.5h-6q2 13 2.5 24.5t3.5 20.5q3 4 5 15.5t3 25t1.5 25.5t0.5 16q0 29 -21 51.5
t-50 22.5q-31 0 -49 -24t-27 -58.5t-11.5 -72t-2.5 -64.5q-10 -2 -19.5 -3t-21.5 -3h-4q-5 0 -8.5 1t-8.5 1q-5 2 -9 2h-9q-29 0 -51.5 -20.5t-22.5 -51.5q0 -25 10.5 -40.5t27.5 -23.5t37.5 -11t39.5 -3q20 0 34 1t25 1q2 -9 2 -19t2 -24v-12v-53q-2 -5 -3 -9.5t-1 -11.5
q0 -16 6 -33t16 -30.5t23.5 -22t28.5 -8.5q24 0 39 14t23.5 35t11 45t2.5 43q0 30 -1 49.5t-2.5 31.5t-3.5 18t-4 10q14 0 29.5 -0.5t26.5 -5.5q17 -10 37 -10q29 0 50 21t21 52z" />
    <glyph glyph-name="lessequal" unicode="&#x2264;" horiz-adv-x="610" 
d="M414 84l-2 2zM414 84l-2 2zM522 147q0 30 -17.5 47.5t-43.5 27t-56 12t-55 2.5h-16q-30 -1 -46.5 -3.5t-32.5 -6t-37 -7.5t-60 -8h-4h-8.5t-8.5 2t-9 2h-9q-15 0 -28 -6t-23.5 -16t-16.5 -23.5t-6 -28.5q0 -24 11 -39t27.5 -23t37 -10.5t39.5 -2.5q44 0 62 2t23.5 4.5
t4.5 5.5t4.5 5.5t23.5 4.5t62 2h10q16 0 33.5 -0.5t30.5 -5.5q17 -10 37 -10q29 0 50 21t21 52zM557 899q6 9 8 18.5t2 20.5q0 19 -7.5 34.5t-24.5 26.5q-19 13 -37 13q-11 0 -22.5 -3t-20.5 -10l-124 -74l-111 -70t-103.5 -72.5t-100.5 -82.5q-23 -21 -34 -45t-11 -47
q0 -40 28 -78t73 -67l97 -61.5t81 -46t86 -37.5t110 -35q7 -3 12 -3.5t11 -0.5q19 0 34.5 7.5t26.5 24.5q7 10 9 19t2 20q0 40 -33 62q-3 3 -7 4.5l-9 3.5l-102 36t-76.5 32.5t-72.5 40l-91 57.5q-13 6 -21 14q2 6 3.5 13t6.5 12q27 22 65.5 46.5l82 50.5l87.5 51.5l81.5 49
t65 43t36.5 33.5z" />
    <glyph glyph-name="greaterequal" unicode="&#x2265;" horiz-adv-x="653" 
d="M414 84l-2 2zM414 84l-2 2zM522 147q0 30 -17.5 47.5t-43.5 27t-56 12t-55 2.5h-16q-30 -1 -46.5 -3.5t-32.5 -6t-37 -7.5t-60 -8h-4h-8.5t-8.5 2t-9 2h-9q-15 0 -28 -6t-23.5 -16t-16.5 -23.5t-6 -28.5q0 -24 11 -39t27.5 -23t37 -10.5t39.5 -2.5q44 0 62 2t23.5 4.5
t4.5 5.5t4.5 5.5t23.5 4.5t62 2h10q16 0 33.5 -0.5t30.5 -5.5q17 -10 37 -10q29 0 50 21t21 52zM557 582q45 41 45 92q0 40 -27.5 77t-72.5 66l-97.5 62t-81.5 46.5t-85.5 38t-110.5 35.5q-5 2 -10.5 3.5t-12.5 1.5q-18 0 -34 -9t-27 -24q-10 -22 -10 -39q0 -40 33 -64
q5 -2 8 -4t8 -4q61 -20 102 -35t76.5 -32.5t72.5 -39.5t91 -57q6 -3 10.5 -7t9.5 -9q-2 -6 -3.5 -12.5t-6.5 -10.5q-26 -21 -65 -46l-82.5 -51l-87.5 -51.5l-81.5 -49t-65 -43t-36.5 -33.5q-10 -20 -10 -39t8.5 -35.5t24.5 -25.5q17 -13 39 -13t41 13l124.5 72.5t111.5 70
t103 73.5t99 83z" />
    <glyph glyph-name="yen" unicode="&#xa5;" horiz-adv-x="881" 
d="M721 309h-2l-2 2zM829 373q0 32 -19.5 49.5t-48 26t-60.5 10.5t-56 2h-6h-8l32.5 170l30.5 170q10 45 19 90t14 90v12l1 1q1 1 1 3q0 28 -23 48t-51 20t-51 -21q-14 -12 -24 -28.5t-21 -30.5l-42 -58.5t-55 -71.5t-64 -73.5t-69 -65.5t-70.5 -47t-68.5 -18q-11 0 -20 2.5
t-18 5.5q-5 8 -7 18t-2 19q0 35 10 78t25.5 88t33.5 88l33.5 78l25.5 59.5t10 30.5q0 31 -21.5 52.5t-52.5 21.5q-20 0 -33.5 -8.5t-26.5 -24.5q-16 -20 -33.5 -55.5t-33.5 -78t-30.5 -90t-25.5 -92t-17.5 -83t-6.5 -64.5q0 -91 49.5 -140.5t140.5 -49.5q50 0 97.5 18.5
t91 48t82 66t69.5 72.5l-22.5 -128.5t-30.5 -138.5q-18 -3 -46 -5.5t-79 -2.5h-10t-10 2q-6 2 -11 2h-10q-29 0 -50 -21t-21 -52q0 -25 10.5 -40t27 -23t36.5 -10.5t40 -2.5h39t31 2q-21 -42 -48 -78.5t-62 -62.5t-80 -41t-101 -15h-14q-16 0 -34 -1.5t-33 -8t-24.5 -19
t-9.5 -34.5q0 -28 9.5 -44.5t25 -25t36.5 -10.5t44 -2q87 0 160 28.5t130.5 78t100 115.5t68.5 142h55h8h2q14 0 31.5 -0.5t30.5 -5.5q20 -10 37 -10q31 0 52 21.5t21 52.5z" />
    <glyph glyph-name="partialdiff" unicode="&#x2202;" horiz-adv-x="758" 
d="M555 418q2 -16 3 -28t1 -23q0 -16 -3 -30t-9 -34q-16 -48 -40.5 -71t-62.5 -23q-26 0 -61 12q-60 19 -105 60.5t-73 97.5q-7 13 -15 32.5t-14.5 42t-11 46t-4.5 43.5q0 8 1 15t3 13q5 17 18.5 29t31 20t37.5 11.5t38 3.5q12 0 24 -1.5t21 -4.5q35 -12 64.5 -37
t56.5 -55.5t51.5 -62.5t48.5 -56zM705 360v13q0 45 -5.5 90l-11.5 90q-13 110 -37 229.5t-62 236t-93 223.5t-131 192q-7 6 -15 11t-16 7q-6 3 -12 3.5t-11 0.5q-23 0 -42 -13.5t-27 -35.5q-3 -6 -3.5 -12t-0.5 -11q0 -26 18 -49q59 -73 102 -151.5t74.5 -161t53.5 -169.5
t38 -179q-32 29 -69 54.5t-80 39.5q-22 6 -44.5 10t-45.5 4q-42 0 -82.5 -10.5t-75.5 -31.5t-61 -52t-39 -72q-7 -15 -9 -34t-2 -37q0 -38 7 -70q10 -67 35.5 -128.5t65.5 -113.5t94 -91t120 -60q28 -9 54 -14t52 -5q85 0 148 49.5t94 145.5q8 25 13.5 50.5t5.5 51.5z" />
    <glyph glyph-name="product" unicode="&#x220f;" horiz-adv-x="1067" 
d="M870 780q0 -24 -1.5 -48.5t-6.5 -47.5q-14 -78 -61 -137t-112 -99t-141.5 -60.5t-148.5 -20.5q-43 0 -88 9t-82 30t-60.5 56t-23.5 87q0 54 25 112t62.5 113t81.5 103t81 84q-2 -36 -10 -73.5l-16 -72.5q-4 2 -11 2q-29 0 -50 -21.5t-21 -52.5q0 -21 12.5 -40t34.5 -27
q-2 -9 -8 -29t-13.5 -42t-15 -41t-12.5 -25q-13 -14 -21 -25t-8 -33q0 -29 22.5 -50t51.5 -21q35 0 59.5 28t42 66.5t28 78t17.5 62.5q11 0 20.5 -1t20.5 -1q51 0 94 13.5t74.5 41t49.5 69.5t18 99q0 28 -6 70t-20 81.5t-38.5 68t-62.5 28.5q-20 0 -39.5 -8t-37.5 -20
t-35 -26l-32 -26h-2q17 14 42 32.5t52 36.5t54.5 33t48.5 21q47 -31 83 -72.5t60 -90.5t36.5 -103.5t12.5 -110.5zM608 866q0 -45 -20 -61.5t-62 -16.5h-4h-10q6 26 10.5 51.5l9.5 51.5l34 23t32 24q5 -17 7.5 -35t2.5 -37zM1018 778q0 75 -19.5 152.5t-56.5 147t-91 126.5
t-122 92q-9 7 -19.5 9t-21.5 2q-33 0 -73.5 -16t-83.5 -41.5t-86.5 -58.5t-83 -66.5t-72.5 -64.5l-56 -54q-42 -45 -83.5 -97.5t-75 -111t-54 -121t-20.5 -127.5q0 -84 34 -146t89.5 -102.5t127 -60t146.5 -19.5q125 0 237.5 38t197.5 110t135.5 175.5t50.5 233.5z" />
    <glyph glyph-name="pi" unicode="&#x3c0;" horiz-adv-x="932" 
d="M313 801q0 29 -21 51t-50 22q-20 0 -37.5 -9.5t-26.5 -26.5l-42.5 -72.5t-49 -93t-40.5 -95t-17 -79.5q0 -34 19 -59t54 -25q15 0 28 6t22.5 16t15.5 23.5t6 27.5q0 35 21.5 80t48 90l48 83.5t21.5 60.5zM510 692q0 29 -21.5 50.5t-50.5 21.5t-48 -18t-25 -44
q-6 -30 -16 -58l-20.5 -56.5t-18 -57t-7.5 -59.5q0 -18 4.5 -34.5t13.5 -29t23.5 -20.5t34.5 -8q31 0 52.5 21.5t21.5 50.5q0 5 -1 9t-1 7v6q0 18 9 47.5t20.5 61t20.5 61t9 49.5zM897 977q0 29 -21.5 50.5t-52.5 21.5q-26 0 -44 -19.5l-41.5 -43t-59.5 -43t-98 -19.5
q-6 0 -16.5 0.5t-21.5 2.5t-20 5.5t-14 9.5v2q0 15 3.5 30t7.5 30.5t7.5 31.5t3.5 31q0 31 -7 60t-22.5 51.5t-40 36.5t-59.5 14q-50 0 -96.5 -22.5t-90.5 -53.5l-86.5 -64t-84.5 -55q-19 -9 -31 -26.5t-12 -38.5q0 -15 6 -28t16 -23.5t23.5 -16.5t28.5 -6q13 0 35.5 12
t50 30t58 40l60.5 42.5t57 36.5t48 23v-12q2 -2 2 -6q0 -15 -3.5 -29.5t-8 -29t-8 -29t-3.5 -29.5q0 -45 20 -76.5t51.5 -51.5t70 -29t76.5 -9q44 0 89 10.5t86 31t75.5 50.5t56.5 70q10 17 10 37z" />
    <glyph glyph-name="integral" unicode="&#x222b;" horiz-adv-x="565" 
d="M-4 -166q70 0 121.5 29t88 78.5t61 116t40.5 142t25.5 156t17.5 157.5l16 147.5t21 125.5q14 59 35.5 94t46 55t49 30t44 19.5t32 23.5t12.5 41t-19 50t-48 23q-57 0 -104.5 -30t-84 -75.5t-61 -100t-35.5 -103.5q-5 -23 -12.5 -66.5t-15.5 -99l-17.5 -119l-19.5 -127.5
t-20.5 -124.5t-21.5 -109.5t-21 -83t-20 -45q-21 -26 -49 -42.5t-63 -16.5q-43 0 -69.5 13.5t-43.5 33.5t-27 44t-20 44t-23.5 33.5t-35.5 13.5q-15 0 -29 -5t-25 -14.5t-17.5 -22.5t-6.5 -28q0 -54 27.5 -101.5t70.5 -82t96.5 -54.5t104.5 -20z" />
    <glyph glyph-name="ordfeminine" unicode="&#xaa;" horiz-adv-x="524" 
d="M369 819l-2 2zM319 1462q-15 -3 -28 -16.5t-26 -32.5t-26 -41t-28 -41.5t-33 -34.5t-39 -20q6 24 25 62.5t43.5 77.5t50.5 71t47 43q6 -8 10 -20t4 -21v-27zM477 883q0 31 -17.5 49t-43.5 27t-56 11.5t-55 2.5h-16q-30 -1 -46.5 -3.5t-32.5 -6t-37 -7.5t-60 -8h-4h-17
q-5 2 -9 3t-9 1q-29 0 -51.5 -21t-22.5 -52q0 -25 10.5 -40.5t27.5 -23t37.5 -10t39.5 -2.5q44 0 62 2t23.5 4.5t4.5 5.5t4.5 5.5t23.5 4.5t62 2h10q16 0 33.5 -1.5t30.5 -6.5q13 -8 37 -8q14 0 27 6t23 15.5t15.5 22.5t5.5 28zM455 1483q0 32 -9 66.5t-27.5 63t-46.5 46.5
t-65 18q-35 0 -71.5 -23t-70.5 -60.5t-64 -84t-52.5 -93t-35.5 -89.5t-13 -72q0 -60 36 -94.5t95 -34.5q42 0 77 20t66 48q6 -16 16 -35.5t23.5 -36t30.5 -28t35 -11.5q31 0 50.5 22.5t19.5 51.5q0 24 -9 36t-20 24.5t-20 31.5t-9 58q0 20 5 39.5t5 37.5q0 2 -1 3.5t-1 3.5
v8q32 8 44 32t12 52z" />
    <glyph glyph-name="ordmasculine" unicode="&#xba;" horiz-adv-x="528" 
d="M369 887l-2 2zM338 1393q0 -22 -9 -36t-24 -21.5t-33.5 -10t-38.5 -2.5q-21 0 -43.5 3t-42.5 11q15 23 34 45.5t40 43.5l42.5 41l41.5 38q14 -26 23.5 -54.5t9.5 -57.5zM477 950q0 31 -17.5 49t-43.5 27t-56 11.5t-55 2.5h-16q-30 -1 -46.5 -3.5t-32.5 -5.5l-37 -7
t-60 -8h-4h-17q-5 2 -9 3t-9 1q-15 0 -28 -6t-23.5 -16t-16.5 -23.5t-6 -28.5q0 -25 10.5 -40t27.5 -23t37.5 -10.5t39.5 -2.5q44 0 62 2t23.5 4.5t4.5 6t4.5 6t23.5 4.5t62 2h10q16 0 33.5 -1.5t30.5 -6.5q13 -8 37 -8q29 0 50 21t21 50zM483 1393q0 19 -5.5 48.5
t-15.5 62.5t-24.5 66.5t-33 60t-40.5 43t-47 16.5q-15 0 -45 -20t-66 -52.5t-74 -73.5t-69 -81.5t-51 -77.5t-20 -62q0 -42 25.5 -70t62.5 -45t79 -24.5t74 -7.5q51 0 96.5 13.5t79.5 40.5t54 67.5t20 95.5z" />
    <glyph glyph-name="ae" unicode="&#xe6;" horiz-adv-x="836" 
d="M315 627q-15 -3 -28 -17t-26 -33t-26 -40.5t-28 -41.5t-33 -35t-39 -20q4 16 14.5 39t24.5 49t31 52.5t34 49.5t33.5 40t30.5 24q6 -8 9 -19.5t3 -21.5v-26zM631 651q-14 -18 -36 -32t-47 -24.5t-51 -17.5t-48 -12q15 18 36 34t45 27.5t49.5 18t49.5 6.5h2zM776 676
q0 32 -12.5 55t-33.5 38t-48 22.5t-55 7.5q-51 0 -100 -16t-93 -44q-17 42 -49 72.5t-80 30.5q-35 0 -71.5 -23t-70.5 -60.5t-64 -84t-52.5 -93t-35.5 -89.5t-13 -72q0 -59 36 -93t93 -34q42 0 78 19t65 46q8 -20 23 -45.5t37 -44.5q37 -66 98.5 -109.5t142.5 -43.5
q20 0 39 3t35 12t25.5 24t9.5 39q0 29 -19.5 51t-48.5 22h-8t-8 -2q-6 -2 -12 -2h-13q-33 0 -58 13.5t-43 35t-29.5 48.5t-18.5 55q53 5 115 22.5t115 49t88.5 79t35.5 111.5z" />
    <glyph glyph-name="oslash" unicode="&#xf8;" horiz-adv-x="549" 
d="M178 428q-8 2 -15 4t-13 4q23 37 52.5 68.5t61.5 60.5l-42.5 -68.5zM336 520q2 -6 3 -13t1 -13q0 -31 -17.5 -48t-46.5 -22l30 49t30 47zM565 795q0 24 -16 41.5t-41 17.5q-20 0 -38 -9.5t-34 -24t-29.5 -31t-23.5 -31.5q-14 12 -30 21t-36 9q-19 0 -50 -21.5t-67 -55
t-72.5 -75.5t-66.5 -82.5t-48.5 -75.5t-18.5 -56q0 -42 24 -69t58 -44v-4q-14 -9 -22.5 -21.5t-8.5 -29.5q0 -13 5.5 -24.5t15 -20.5t21.5 -14t24 -5q20 0 33 8.5t22 21t16 28t15 28.5q54 -5 106 5t92.5 36.5t65 70t24.5 104.5q0 19 -4 41.5t-10 45.5t-13.5 44.5t-15.5 38.5
q26 31 56 55q11 8 23 15t22 15.5t16 19.5t6 28z" />
    <glyph glyph-name="questiondown" unicode="&#xbf;" horiz-adv-x="733" 
d="M672 987q0 15 -6 28t-16 23.5t-23.5 16.5t-28.5 6q-23 0 -42.5 -14t-27.5 -37q-7 -22 -33.5 -49t-65 -59l-85.5 -68l-94.5 -76t-92.5 -83t-80 -88.5t-56 -93t-21 -96.5q0 -44 17.5 -75.5t46 -51.5t65.5 -29.5t76 -9.5q27 0 67 5t83.5 15t87.5 25.5t78.5 37t56.5 49
t22 61.5q0 32 -16.5 57.5t-42 44.5t-57 29t-60.5 10q-31 0 -52.5 -22t-21.5 -51q0 -25 16.5 -45.5t39.5 -26.5q-45 -17 -97.5 -30t-101.5 -13q-14 0 -31.5 2t-28.5 10l-2 6q0 34 22.5 71t59.5 76.5t84.5 80l97 81l97 79.5t84.5 75t59.5 68.5t22.5 60.5zM784 1307
q0 19 -6.5 36.5t-18 30.5t-27.5 21t-36 8q-26 0 -48 -14t-38.5 -36t-25.5 -48t-9 -50q0 -37 25 -64.5t64 -27.5q25 0 47 14t38 35t25.5 46.5t9.5 48.5z" />
    <glyph glyph-name="exclamdown" unicode="&#xa1;" horiz-adv-x="489" 
d="M397 1372q-5 0 -9 2t-7 4q5 -2 9 -3t7 -3zM383 1065q0 18 -3.5 35.5t-12.5 31t-23.5 21.5t-36.5 8q-15 0 -28 -5.5t-23.5 -15.5t-16.5 -23t-6 -27q0 -63 -16 -133.5t-39 -141.5t-50 -140t-48 -128l-20.5 -52.5t-26.5 -72t-23 -72t-10 -53.5q0 -31 21.5 -53.5t52.5 -22.5
q34 0 51.5 22t19.5 54q2 9 11.5 37t21.5 60l22.5 61t14.5 41l30.5 79.5l36 97.5l36.5 107t32.5 107t23.5 98t9 80zM524 1380q0 26 -9 50.5t-25.5 44t-39 31.5t-49.5 12q-28 0 -53 -10.5t-43.5 -29t-29.5 -43t-11 -53.5q0 -24 7 -50t21 -47.5t35.5 -35.5t49.5 -14
q31 0 57.5 11t46.5 30t31.5 46t11.5 58z" />
    <glyph glyph-name="florin" unicode="&#x192;" horiz-adv-x="565" 
d="M334 504q21 -1 44 1t42 9.5t31 23.5t12 44q0 27 -19.5 49t-48.5 22q-11 0 -21.5 -2t-21.5 -2q11 34 19 68l16 69q12 59 33 93.5t45.5 54.5t49.5 30.5t45 20t33 23.5t13 41t-19 50t-48 23q-56 0 -104 -30t-84.5 -75.5t-61.5 -100t-35 -103.5q-12 -60 -31 -119
q-6 -6 -9.5 -14.5t-6.5 -17.5q-28 5 -55.5 8t-53.5 14q-8 2 -15 4t-15 2q-29 0 -48.5 -22.5t-19.5 -51.5q0 -24 22 -41t52.5 -27.5t62 -16t49.5 -7.5q-2 -25 -5 -66t-7 -88.5t-9.5 -98.5t-13.5 -96t-19 -81.5t-26 -54.5q-21 -26 -49.5 -42.5t-62.5 -16.5q-43 0 -69.5 13.5
t-43 33.5t-27 44t-20.5 44t-23 33.5t-36 13.5q-15 0 -29 -5t-25 -14.5t-17.5 -22.5t-6.5 -28q0 -54 27.5 -101.5t70.5 -82t96.5 -54.5t104.5 -20q80 0 135 33.5t91 89t57 126.5t32 145.5t15 146.5t8 129z" />
    <glyph glyph-name="approxequal" unicode="&#x2248;" horiz-adv-x="731" 
d="M664 602q0 15 -6 28.5t-16.5 23.5t-23.5 16t-28 6q-25 0 -39 -9t-21.5 -22.5t-12 -29t-12 -29t-19.5 -22.5t-35 -9t-35.5 11t-22 28l-19.5 36t-26.5 36t-44 28t-72.5 11q-17 0 -30.5 -1.5t-25.5 -6t-22.5 -13t-21.5 -22.5l-18.5 -24l-27.5 -35.5l-31 -41t-28.5 -40.5
t-21 -34t-8.5 -22q0 -31 21.5 -53.5t52.5 -22.5q37 0 58 20t38 47l35 53.5t49 39.5q21 -22 32.5 -41.5t20 -35.5t18 -29t25 -22t40.5 -13.5t65 -4.5q39 0 77 15.5t68.5 42.5t49 63.5t18.5 77.5zM664 918q0 30 -22.5 51.5t-51.5 21.5q-25 0 -39 -9t-21.5 -22.5t-12 -29
t-12 -29t-19.5 -22.5t-35 -9t-35.5 11t-22 28l-19.5 36t-26.5 36t-44 28t-72.5 11q-34 0 -56 -7t-44 -36l-18.5 -24l-27.5 -35.5l-31 -41t-28.5 -40.5t-21 -34t-8.5 -22q0 -31 21.5 -53t52.5 -22q37 0 58 20t38 46.5l35 53t49 39.5q21 -22 32.5 -41.5t20 -35.5t18 -28.5
t25 -21.5t40.5 -13.5t65 -4.5q39 0 77 15.5t68.5 42.5t49 63t18.5 78z" />
    <glyph glyph-name="guillemotleft" unicode="&#xab;" horiz-adv-x="872" 
d="M389 788q12 20 12 39t-8.5 36t-23.5 26q-22 12 -41 12q-23 0 -41 -12l-95.5 -67l-72 -47.5l-56 -37.5t-47.5 -37q-45 -45 -45 -92q0 -40 28 -78t73 -67l59.5 -38t36.5 -22t23.5 -12.5t21.5 -8.5t29.5 -10.5t48.5 -19.5q12 -6 24 -6q17 0 33 9.5t27 25.5q6 9 8 19.5
t2 19.5q0 18 -8 35t-25 26q-3 3 -7 5.5t-9 2.5q-34 9 -56.5 19t-41.5 22l-39 25.5t-49 30.5q-13 6 -21 14q2 6 3.5 13t6.5 12q40 32 79 54t73 39t59.5 33t38.5 37zM795 788q12 20 12 39t-8.5 36t-24.5 26q-21 12 -41 12q-21 0 -41 -12q-54 -40 -95 -67l-72.5 -47.5
l-56 -37.5t-46.5 -37q-45 -44 -45 -92q0 -40 27.5 -78t72.5 -67l60 -38t36 -22t23.5 -12.5t21.5 -8.5t29.5 -10.5t48.5 -19.5q14 -6 25 -6q17 0 32.5 9.5t26.5 25.5q6 9 8.5 19.5t2.5 19.5q0 18 -8 35t-25 26q-3 3 -7.5 5.5t-9.5 2.5q-34 9 -56 19t-41.5 22l-39.5 25.5
t-49 30.5q-12 6 -20 14q2 6 3.5 13t6.5 12q40 32 79 54t72.5 39t59.5 33t39 37z" />
    <glyph glyph-name="guillemotright" unicode="&#xbb;" horiz-adv-x="872" 
d="M356 700q-22 20 -46.5 37l-56 37.5l-72.5 47.5t-95 67q-18 12 -41 12q-20 0 -41 -12q-15 -9 -24 -26t-9 -36q0 -20 13 -39q13 -21 39 -37t59.5 -33.5l72 -39t78.5 -53.5q11 -11 11 -25q-7 -7 -21 -14q-29 -17 -49 -30.5l-39.5 -25.5t-41.5 -22t-56 -19q-5 0 -8.5 -2.5
t-8.5 -5.5q-15 -9 -23.5 -26t-8.5 -35q0 -19 10 -39q11 -16 27 -25.5t34 -9.5q14 0 23 6q31 13 48.5 19.5t29.5 10.5t21.5 8.5t23.5 12.5t36.5 22l59.5 38q45 29 72.5 67t27.5 78q0 48 -45 92zM762 700q-22 20 -47 37l-56.5 37.5l-72 47.5t-94.5 67q-19 12 -41 12
q-20 0 -41 -12q-16 -9 -24.5 -26t-8.5 -36t12 -39q14 -21 39.5 -37t59 -33.5l72.5 -39t79 -53.5q10 -12 10 -25q-8 -8 -20 -14q-29 -17 -49.5 -30.5l-39.5 -25.5t-41.5 -22t-56.5 -19q-5 0 -8 -2.5t-8 -5.5q-15 -9 -24 -26t-9 -35q0 -19 10 -39q11 -16 27 -25.5t35 -9.5
q13 0 22 6q31 13 48.5 19.5t29.5 10.5t21.5 8.5t24 12.5t37 22l59.5 38q45 29 72.5 67t27.5 78q0 48 -45 92z" />
    <glyph glyph-name="ellipsis" unicode="&#x2026;" horiz-adv-x="1073" 
d="M266 434q0 14 -2.5 26.5l-5.5 26.5q-8 22 -27.5 36t-42.5 14q-21 0 -39.5 -12.5t-27.5 -32.5q-20 0 -41.5 -12.5t-39 -31t-29 -41t-11.5 -42.5q0 -23 9.5 -43.5t25.5 -36t37.5 -24.5t44.5 -9q34 0 61.5 17t47 44t30 59t10.5 62zM635 360q0 23 -11.5 45.5t-30 40
t-41.5 28.5t-46 11q-20 0 -40 -14t-36.5 -35t-26.5 -44.5t-10 -41.5q0 -22 9 -39t24.5 -28t35 -17t40.5 -6q23 0 46.5 5.5t43 17.5t31.5 31t12 46zM1028 350q0 20 -10 41.5t-26 39t-36.5 29t-40.5 11.5t-43 -12t-42.5 -30t-32.5 -39.5t-13 -41.5q0 -24 10.5 -42.5t27.5 -31
t38.5 -19.5t42.5 -7q23 0 45.5 6.5t40 19.5t28.5 32t11 44z" />
    <glyph glyph-name="nonbreakingspace" unicode="&#xa0;" horiz-adv-x="322" 
 />
    <glyph glyph-name="Agrave" unicode="&#xc0;" horiz-adv-x="1112" 
d="M721 1104q0 -81 -3 -159t-9 -159q-88 -45 -177.5 -85l-179.5 -78l41 90.5l55.5 117l65 128l68.5 124t66.5 104.5t58.5 70q5 -21 8 -37.5t4.5 -31.5t1.5 -30v-34v-20zM1067 872q0 15 -6 28t-16.5 23.5t-23.5 16.5t-28 6q-12 0 -29.5 -10t-36.5 -23l-37 -26.5t-30 -20.5
q3 57 5.5 114t2.5 114v32q0 41 -3.5 91.5t-18 95t-44 74.5t-81.5 30q-45 0 -88 -28.5t-80.5 -69t-66.5 -85.5t-46 -77h-2q-21 0 -36 -10t-27 -29q-16 -24 -40.5 -69l-53.5 -102.5l-61.5 -124.5l-63.5 -136l-59.5 -136t-50 -124t-34 -101t-12.5 -67q0 -40 22 -68t64 -28
q22 0 42 16.5t39 42.5t35.5 58t30.5 63t24.5 58l16.5 42h5q14 0 46.5 11t74.5 28.5l88 38.5l87.5 40.5l73.5 34.5l45 21q-3 -30 -7.5 -62.5l-9 -65.5t-8 -65t-3.5 -61q0 -30 21 -51.5t50 -21.5t48.5 17.5t25.5 45.5q9 40 14.5 83t9 86.5t6.5 87t7 83.5q13 8 34.5 19.5
l46 25.5t49 30t44.5 33.5t32.5 35.5t12.5 36zM699 1497q12 23 12 43q0 36 -33 58q-14 12 -19.5 16t-9 7.5t-7.5 11t-15 26.5q-18 33 -38 75.5t-43 83.5t-51 75t-63 51q-9 6 -18.5 8t-17.5 2q-46 0 -68 -45q-6 -12 -6 -27q0 -21 12.5 -40t32.5 -27q24 -17 44 -45t37.5 -61.5
t34 -69.5t34 -68t37.5 -57t44 -37q22 -10 43 -10q19 0 34.5 6.5t23.5 23.5z" />
    <glyph glyph-name="Atilde" unicode="&#xc3;" horiz-adv-x="1112" 
d="M721 1104q0 -81 -3 -159t-9 -159q-88 -45 -177.5 -85l-179.5 -78l41 90.5l55.5 117l65 128l68.5 124t66.5 104.5t58.5 70q5 -21 8 -37.5t4.5 -31.5t1.5 -30v-34v-20zM1067 872q0 15 -6 28t-16.5 23.5t-23.5 16.5t-28 6q-12 0 -29.5 -10t-36.5 -23l-37 -26.5t-30 -20.5
q3 57 5.5 114t2.5 114v32q0 41 -3.5 91.5t-18 95t-44 74.5t-81.5 30q-45 0 -88 -28.5t-80.5 -69t-66.5 -85.5t-46 -77h-2q-21 0 -36 -10t-27 -29q-16 -24 -40.5 -69l-53.5 -102.5l-61.5 -124.5l-63.5 -136l-59.5 -136t-50 -124t-34 -101t-12.5 -67q0 -40 22 -68t64 -28
q22 0 42 16.5t39 42.5t35.5 58t30.5 63t24.5 58l16.5 42h5q14 0 46.5 11t74.5 28.5l88 38.5l87.5 40.5l73.5 34.5l45 21q-3 -30 -7.5 -62.5l-9 -65.5t-8 -65t-3.5 -61q0 -30 21 -51.5t50 -21.5t48.5 17.5t25.5 45.5q9 40 14.5 83t9 86.5t6.5 87t7 83.5q13 8 34.5 19.5
l46 25.5t49 30t44.5 33.5t32.5 35.5t12.5 36zM1074 1673q0 15 -6 28.5t-16.5 23.5t-23.5 16t-28 6q-25 0 -39 -9t-21.5 -22.5t-12 -29t-12 -29t-19.5 -22.5t-35 -9t-35.5 11t-22 27.5t-19.5 36t-26.5 36t-44 27.5t-72.5 11q-34 0 -56 -7t-44 -36l-18.5 -24l-27.5 -35.5
l-31 -41t-28.5 -40.5t-21 -34t-8.5 -21q0 -31 21.5 -53.5t52.5 -22.5q37 0 58 20t38 47l35 53.5t49 39.5q21 -22 32.5 -41.5t20 -35.5t18 -29t25 -22t40.5 -13.5t65 -4.5q39 0 77 15.5t68.5 42.5t49 63t18.5 78z" />
    <glyph glyph-name="Otilde" unicode="&#xd5;" horiz-adv-x="817" 
d="M623 829q0 -70 -31 -137t-82.5 -119.5t-118 -84t-137.5 -31.5q-31 0 -51.5 5t-33.5 17t-18.5 32t-5.5 50q0 33 5.5 68.5t14.5 71t20.5 70t23.5 65.5q9 -17 26 -27t37 -10q43 0 64 35l28 46.5t31.5 50t34.5 47.5t37 40h8q44 0 72.5 -14.5t45.5 -40t23.5 -60t6.5 -74.5z
M768 831q0 70 -17 130.5t-53 105.5t-91.5 70.5t-131.5 25.5q-12 0 -25.5 -0.5t-25.5 -3.5q0 3 1 5t1 5q0 29 -21 51.5t-53 22.5q-45 0 -89 -39t-83 -101t-72 -139t-57 -152.5t-37.5 -142.5t-13.5 -108q0 -122 66 -186t188 -64q102 0 195 43t164 115t113 166t42 196z
M787 1511q0 15 -6 28.5t-16.5 23.5t-23.5 16t-28 6q-25 0 -39 -9t-21.5 -22.5t-12 -29t-12 -29t-19.5 -22.5t-35 -9t-35.5 11t-22 27.5t-19.5 36t-26.5 36t-44 27.5t-72.5 11q-34 0 -56 -7t-44 -36l-18.5 -24l-27.5 -35.5l-31 -41t-28.5 -40.5t-21 -34t-8.5 -21
q0 -31 21.5 -53.5t52.5 -22.5q37 0 58 20t38 47l35 53.5t49 39.5q21 -22 32.5 -41.5t20 -35.5t18 -29t25 -22t40.5 -13.5t65 -4.5q39 0 77 15.5t68.5 42.5t49 63t18.5 78z" />
    <glyph glyph-name="OE" unicode="&#x152;" horiz-adv-x="1110" 
d="M623 829q0 -70 -31 -137t-82.5 -119.5t-118 -84t-137.5 -31.5q-31 0 -51.5 5t-33.5 17t-18.5 32t-5.5 50q0 33 5.5 68.5t14.5 71t20.5 70t23.5 65.5q9 -17 26 -27t37 -10q43 0 64 35l28 46.5t31.5 50t34.5 47.5t37 40h8q44 0 72.5 -14.5t45.5 -40t23.5 -60t6.5 -74.5z
M1061 504q0 15 -6 28.5t-16.5 23.5t-23.5 16t-28 6q-17 0 -45.5 -9.5l-62 -20.5t-69 -20.5t-67.5 -9.5h-9t-9 2q3 28 17 60t34.5 65l43.5 67t42 66.5t32 62.5t13 56q0 39 -20 59.5t-48 33t-59 21.5t-53 25q12 23 40 49.5t61 52.5t65 48.5l53 36.5q16 11 25.5 27t9.5 34
q0 15 -6 28.5t-16.5 23.5t-23.5 16t-28 6q-21 0 -58 -20.5t-78 -53t-81.5 -73t-68.5 -81.5q-31 17 -67 25t-79 8q-12 0 -25.5 -0.5t-25.5 -3.5q0 3 1 5t1 5q0 29 -21 51.5t-53 22.5q-45 0 -89 -39t-83 -101t-72 -139t-57 -152.5t-37.5 -142.5t-13.5 -108q0 -122 66 -186
t188 -64q96 0 183.5 38.5t156.5 101.5q18 -42 60.5 -60t93.5 -18q30 0 65 5t70.5 14t70 21t62.5 25q20 10 32.5 27t12.5 39z" />
    <glyph glyph-name="oe" unicode="&#x153;" horiz-adv-x="899" 
d="M338 492q0 -22 -9 -36t-24 -21.5t-33.5 -10t-38.5 -2.5q-21 0 -43.5 3t-42.5 11q15 23 34 45.5t40 43.5l42.5 41l41.5 38q14 -26 23.5 -54.5t9.5 -57.5zM692 676q-15 -18 -37 -32.5t-46.5 -25t-50.5 -17.5t-48 -11q15 18 36.5 33.5t45.5 27t49 18.5t49 7h2zM838 700
q0 32 -12.5 54.5t-33.5 37.5t-48 22t-56 7q-75 0 -145 -32.5t-121 -88.5q-20 39 -47 63.5t-58 24.5q-15 0 -45 -20t-66 -52.5t-74 -73t-69 -81t-51 -77.5t-20 -62q0 -42 25.5 -70t62.5 -45.5t79 -25t74 -7.5q42 0 79.5 9t68.5 26q18 -36 43.5 -67t57 -54t69.5 -36t82 -13
q19 0 38.5 3.5t35 12t25 23.5t9.5 39q0 14 -5 27t-14 23.5t-21 17t-27 6.5q-5 0 -8.5 -1t-8.5 -1q-6 -2 -12 -3t-12 -1q-33 0 -58 13.5t-43 35.5t-30 49.5t-19 54.5q36 4 76 13t79.5 23.5t75.5 35.5t63.5 49t44 63t16.5 78z" />
    <glyph glyph-name="endash" unicode="&#x2013;" horiz-adv-x="637" 
d="M481 631l-2 2zM590 694q0 33 -21 51t-51 26t-62 9.5t-55 1.5q-43 0 -69.5 -2t-44 -4.5t-30.5 -5.5t-30.5 -5.5t-44 -4.5t-69.5 -2h-10.5t-10.5 2t-9 2h-9q-29 0 -51.5 -20.5t-22.5 -51.5q0 -25 10.5 -40.5t27.5 -23.5t37.5 -11t39.5 -3q44 0 70.5 2t44.5 4.5t31.5 6t31 6
t44.5 4.5t71 2h10q15 0 33 -0.5t30 -5.5q18 -10 37 -10q29 0 50.5 21t21.5 52z" />
    <glyph glyph-name="emdash" unicode="&#x2014;" horiz-adv-x="870" 
d="M715 641l-2 2zM823 705q0 33 -21 51t-51 26t-62 9.5t-54 1.5q-65 0 -130.5 -5.5t-130.5 -12t-130.5 -12t-130.5 -5.5h-10.5t-10.5 2t-9 2h-9q-29 0 -51.5 -20.5t-22.5 -51.5q0 -25 10.5 -40.5t27.5 -23.5t37.5 -11t39.5 -3q66 0 131.5 5.5t131.5 12t131.5 12t131.5 5.5
h10q16 0 33.5 -0.5t30.5 -5.5q17 -10 37 -10q29 0 50 21.5t21 52.5z" />
    <glyph glyph-name="quotedblleft" unicode="&#x201c;" horiz-adv-x="596" 
d="M528 1298q0 25 -10.5 39.5t-27 22t-36.5 10t-38 2.5q-97 0 -162 -41q-6 13 -17.5 21t-26 12.5t-30.5 6t-30 1.5q-73 0 -128.5 -24t-92.5 -67t-56 -101.5t-20 -126.5v-31q0 -34 2.5 -72t13 -70t32.5 -53.5t60 -21.5q29 0 50.5 21.5t21.5 52.5q0 11 -5.5 18.5t-12 23
t-12 45.5t-5.5 87q0 38 8 70t26 55t47 36t71 13h6h2q-19 -37 -29 -81t-10 -93v-31q0 -34 2.5 -72t13 -70t32.5 -53.5t60 -21.5q29 0 50.5 21.5t21.5 52.5q0 11 -5.5 18.5t-12 23t-12 45.5t-5.5 87q0 38 8 70t26 55t47 36t71 13h6q19 0 38 1t34 8t24.5 21t9.5 41z" />
    <glyph glyph-name="quotedblright" unicode="&#x201d;" horiz-adv-x="596" 
d="M528 1124v31q0 33 -2.5 71t-13 70.5t-32.5 54t-60 21.5q-29 0 -50.5 -21.5t-21.5 -52.5q0 -11 5.5 -18.5t12 -23t12 -45.5t5.5 -87q0 -38 -8 -70t-26 -55t-47 -36t-71 -13h-6h-2q19 37 29 81t10 93v31q0 33 -2.5 71t-13 70.5t-32.5 54t-60 21.5q-29 0 -50.5 -21.5
t-21.5 -52.5q0 -11 5.5 -18.5t12 -23t12 -45.5t5.5 -87q0 -38 -8 -70t-26 -55t-47 -36t-71 -13h-6q-19 0 -38 -1.5t-34 -8t-24.5 -21t-9.5 -40.5q0 -25 10.5 -39.5t27 -22t36.5 -10t38 -2.5q97 0 162 41q6 -14 17.5 -22t26 -12.5t30.5 -5.5t30 -1q73 0 128.5 24t92.5 66.5
t56 101t20 127.5z" />
    <glyph glyph-name="quoteleft" unicode="&#x2018;" horiz-adv-x="326" 
d="M262 1298q0 25 -10.5 39.5t-27 22t-36.5 10t-38 2.5q-73 0 -128.5 -24t-93 -67t-56.5 -101.5t-19 -126.5v-31q0 -34 2.5 -72t13 -70t32.5 -53.5t60 -21.5q29 0 50.5 21.5t21.5 52.5q0 11 -5.5 18.5t-12 23t-12 45.5t-5.5 87q0 38 8 70t26 55t47 36t71 13h6q19 0 38 1
t34 8t24.5 21t9.5 41z" />
    <glyph glyph-name="quoteright" unicode="&#x2019;" horiz-adv-x="326" 
d="M262 1124v31q0 33 -2.5 71t-13 70.5t-32.5 54t-60 21.5q-29 0 -50.5 -21.5t-21.5 -52.5q0 -11 5.5 -18.5t12 -23t12 -45.5t5.5 -87q0 -38 -8 -70t-26 -55t-47 -36t-71 -13h-6q-19 0 -38 -1.5t-34 -8t-24.5 -21t-9.5 -40.5q0 -25 10.5 -39.5t27 -22t36.5 -10t38 -2.5
q73 0 128.5 24t93 66.5t56.5 101t19 127.5z" />
    <glyph glyph-name="divide" unicode="&#xf7;" 
d="M375 1047q0 18 -6.5 34.5t-18 29t-27.5 20.5t-34 8q-26 0 -48.5 -14t-39 -35t-26 -47t-9.5 -50q0 -18 6.5 -35t18.5 -30t28.5 -21t36.5 -8q26 0 48 14t38 36t24.5 48t8.5 50zM481 741q0 29 -15 46t-37 25.5t-48 10.5t-47 2q-62 0 -123.5 -2t-124.5 -2q-15 0 -28 -5.5
t-22.5 -15.5t-15.5 -23t-6 -27q0 -25 10.5 -40t27 -23.5t37 -11.5t40.5 -3q51 0 102.5 4t104.5 4q18 0 35.5 -5t36.5 -5q31 0 52 21t21 50zM328 502q0 18 -6.5 35t-18.5 30t-28 21t-35 8q-25 0 -47.5 -14t-38.5 -35.5t-25.5 -47t-9.5 -48.5q0 -19 6.5 -36t18.5 -30t28 -21
t35 -8q26 0 48 14t38.5 35t25.5 47t9 50z" />
    <glyph glyph-name="lozenge" unicode="&#x25ca;" horiz-adv-x="2830" 
d="M2861 180q0 -14 -12 -26q-5 -7 -11 -9t-14 -2t-14 2t-12 9q-11 9 -11 26q0 -14 -12 -26q-5 -7 -11 -9t-14 -2h-36q-61 0 -109 43q-39 39 -39 103q0 50 25 84q20 34 67 53q14 5 28 7.5t28 2.5h110q15 0 25 -10q12 -12 12 -27q0 -14 -12 -26q-5 -5 -11 -8t-14 -3h-110
q-34 0 -54 -18q-20 -20 -20 -55q0 -33 20 -53q19 -19 54 -19h36q16 0 25 -12q12 -9 12 -25q0 16 11 25q12 12 26 12q16 0 25 -12q12 -9 12 -25zM1569 1366h-2q-3 5 -8.5 7t-10.5 5q-5 0 -8 -3t-8 -3q-2 0 -3 1t-3 1q3 5 6 9q2 4 4 7.5t2 6.5q3 2 4 7t6 5q8 -2 8 -9t7 -9
q-2 -7 4 -11t6 -10zM2882 49q0 -6 -3 -8t-5 -3t-5 -1h-12q-4 0 -8 4t-4 8t4 8t8 4h12q3 0 5 -1t5 -3t3 -8zM2906 12q0 -6 -2 -8q-3 -2 -5 -3t-5 -1q-4 0 -8 4t-4 8q0 -6 -3 -8t-5 -3t-5 -1h-12q-9 0 -18 3t-17 11q-12 14 -12 35q0 17 6 29q10 10 23 16q5 2 9 3t9 1h37
q3 0 5 -1t5 -3q2 -2 2 -8t-2 -8q-3 -2 -5 -3t-5 -1h-37q-10 0 -16 -6q-7 -7 -7 -19t7 -18q6 -6 16 -6h12q3 0 5 -1.5t5 -3.5t3 -8q0 4 4 8q3 5 8 5q3 0 5 -1.5t5 -3.5q2 -2 2 -8zM1587 1335q-8 4 -12 2l-4 4l-33 5q-6 -4 -12.5 -6.5t-14.5 -2.5l-6 6q0 8 4 11t10 4t12.5 1
t10.5 1l4 -4q2 2 5 3t5 1q8 0 16 -6.5t17 -3.5l4 -9zM1640 1257h-4q-6 0 -9 1.5t-6.5 3.5t-9 3.5t-16.5 0.5l-12 10l6 6l6 -2q3 -3 7.5 -3.5t7.5 -0.5l6 2l2 6l4 2l12 -14l6 -12v-3zM1616 1296q-9 0 -25.5 6t-25.5 9q-39 0 -80 -11l-2 5l14 20l10 -6q10 3 18 4.5t17 1.5
q13 0 25 -0.5t24 -3.5l-2 -6q6 -1 17.5 -3.5t11.5 -13.5zM1659 1219q-9 6 -20.5 10t-22.5 4h-10.5t-16 1t-14.5 2.5t-6 4.5q0 6 4.5 7t9.5 -1l12 -4q2 0 6.5 2t6.5 2q11 0 19 -4t18 -2l2 2q5 0 9.5 -8.5t6.5 -11.5zM1739 1077l-4 2l-9 -6l-10 6q0 5 4 4t6 2h-6l-4 5l4 6
q5 0 7.5 4t7.5 4l4 -4v-4q8 -4 8 -15zM1765 1040q-6 0 -7.5 6t-6.5 9v-6l-4 -5q-5 0 -6.5 5t-7.5 2l-2 6q2 6 10.5 7t11.5 7q5 -2 6 -6.5t4 -7.5l9 -10zM1782 1014l-8 6l4 8h2l8 -10zM2798 86q0 -5 -5 -8q-2 -4 -8 -4t-8 4q-4 4 -4 8q0 -4 -4 -8q-2 -4 -8 -4v-62q0 -4 -4 -8
t-9 -4q-4 0 -8 4t-4 8v62h-24q-2 0 -4.5 0.5t-4.5 3.5q-4 4 -4 8t4 8t9 4h49q4 0 8 -4t4 -8q0 4 4 8t8 4t8 -4q5 -3 5 -8zM1729 1104l-25 -10q-10 0 -25 10q-15 12 -34.5 20.5t-40.5 10.5l-5 -5q-5 0 -15.5 3t-10.5 8t8.5 8.5t13.5 3.5q6 -5 9.5 -7t7 -2t7 -0.5t7.5 -2.5
l6 2q7 0 15.5 -5t17.5 -11l17.5 -11.5t15.5 -7.5l6 2q-5 6 -11 8.5t-10 7.5l7 7l8 -5l4 2l-4 7q-4 2 -19 7l-31.5 10.5t-29 11.5t-12.5 10v2q2 0 5 1t5 1q4 0 17 -4l28 -9t27.5 -10.5t15.5 -7.5l4 2q5 -2 6 -7t6 -7v-4q0 -7 5.5 -11t5.5 -12zM2533 180q0 -13 -10 -26
q-13 -11 -26 -11q-14 0 -27 11q-10 13 -10 26v148q0 14 10 24q6 6 12.5 8t14.5 2q-14 0 -27 13q-10 10 -10 24t10 27q13 10 27 10q13 0 26 -10q10 -13 10 -27t-10 -24q-13 -13 -26 -13q16 0 26 -10t10 -24v-148v0zM1565 1270q-5 0 -10 1t-11 1q-8 0 -16.5 -1t-16.5 -3l-8 2
q-12 -3 -24 -5.5t-23 -9.5v5l2 8q6 3 9 10.5t10 7.5l8 -6l8 2q10 2 14 2q16 0 31 -2.5t29 0.5l6 -8zM1696 1169l-4 -4q-13 2 -18.5 9t-14.5 10q-5 9 -14 11t-17 5q-5 2 -10.5 3t-11.5 1h-2l-9 -4q-4 1 -7 2q-7 2 -1 4q-8 2 -15.5 0t-15.5 -2q-3 0 -5 3t-7 3q-11 0 -21.5 -5
t-21.5 -5q-2 0 -7 2t-7 2l2 4q11 8 30 12.5t33 4.5q3 -3 9 -4.5t12 -3.5l12 4q22 0 43 -7.5t41 -13.5q3 0 7.5 -3.5t9 -8.5t7.5 -9.5t3 -7.5v-2zM1808 987q0 -5 -8.5 -6.5t-11.5 -1.5h-6l-4 4v4l10 4q5 2 4 6t2 4q6 0 10 -4.5t4 -9.5zM1827 946q-3 3 -7 2.5t-8 -0.5l-6 6
q0 7 5 6t8 1l2 2l2 -2l6 -11zM1851 913l-4 -2l-4 2l-6 9l6 2l8 -6v-5zM1587 1167h-6q-3 0 -6.5 2.5t-5.5 4.5v2l6 8l6 -4l12 2l9 -6zM1548 1245q-2 -3 -3.5 -6.5t-6.5 -3.5l-10 6q-13 0 -25 -4t-24 -9.5t-23.5 -9.5t-23.5 -4l-2 3l2 6q5 3 6 6.5t6 5.5q17 6 38 11t40 5
q6 0 12 -1t12 -1l2 -4v0zM1724 1069q-3 -3 -7 -6t-9 -6q-14 -13 -27.5 -27t-31.5 -20l-15 -6q-3 2 -6.5 0.5t-5.5 5.5l8 6q14 2 24.5 10.5t22.5 13.5q0 7 8 10.5t13 6.5q5 5 11.5 9.5t14.5 4.5v-2v0zM1946 739l-7 4q-6 0 -8 -6t-8 -4l-6 8l2 7l4 6q-3 11 -14 14v-4l4 -10
q0 -3 -6.5 -4.5t-10.5 -1.5l-4 -9l2 -4l-10 -10q-10 0 -10 10l4 13v2v2l-24 12.5t-21 17.5q3 2 7 1t7 -1h11l4 2q-1 5 1 6.5t5 1.5t5.5 1t2.5 4v2q-5 2 -17 4t-12 8l6 4l13 -2l4 2v2v6v2q0 7 -6 7.5t-6 5.5l8 4v2q2 2 2 4v4q0 4 -6 4.5t-12.5 0.5t-12.5 1t-6 6l2 2
q6 0 12.5 3t14.5 5l-2 5q-4 5 -5.5 11.5t-1.5 12.5l7 4q5 0 10.5 -11.5t7.5 -16.5q5 -11 8 -27l-6 -10v-2q0 -7 7.5 -4.5t10.5 2.5q5 0 8.5 -8t6.5 -13l10 -14v-2q0 -5 4 -7.5t6 -7.5l-4 -4l-4 -4q11 -3 21 -11t10 -19v-3zM1704 1081l-12 -12t-13 -12q-11 -10 -22.5 -19
l-22.5 -18l-6 2q-3 0 -6 -2t-6 -2l-4 2q0 5 6.5 10t14.5 10t16 9.5t12 7.5q9 6 18.5 13t18.5 13h2l4 -2v0zM1538 1178q0 -5 -5.5 -7.5t-8.5 -5.5h-15q-2 2 -2 3v1q0 8 9.5 10.5t15.5 2.5h4l2 -4v0zM2689 49q0 -21 -12 -35q-5 -3 -8.5 -5.5t-8.5 -4.5q-6 -2 -10.5 -3t-9.5 -1
q-11 0 -20 3t-15 11q-14 13 -14 35v37q0 4 4 8t8 4t8 -4q4 -2 4 -8v-37q0 -12 6 -18q5 -3 9 -4.5t10 -1.5q12 0 18 6t6 18v12q0 6 5 9q4 4 8 4q-6 0 -8 4q-5 3 -5 8t5 8q4 4 8 4t8 -4t4 -8t-4 -8q-2 -4 -8 -4q4 0 8 -4t4 -9v-12v0zM1839 825q-6 0 -13 2t-14 2l-8 -2
q2 -3 8.5 -2.5t6.5 -5.5l-4 -2h-17q-8 5 -8 14q3 2 7.5 2.5t6.5 2.5l-6 4t-6 0l-2 2q-3 5 -4 11t-4 11l8 8l-4 7q-2 0 -5 4.5t-5 1.5q-2 0 -6 3.5t-1 6.5q-3 5 -9 6t-9 6v6q-5 7 -9.5 14.5t-12.5 12.5q-4 3 -9.5 4.5t-7.5 7.5v2l-8 7q-5 3 -10 6.5t-8 9.5l2 2
q-5 5 -12.5 3.5t-10.5 6.5l2 4h-2l-6 -2l-6 6l24 13l28 10t30 8v-2q-3 -5 -9.5 -7.5l-11.5 -4.5l2 -4l28 12l28 12l2 -4q-11 -5 -20.5 -10t-20.5 -10l-19 -9.5t-18 -7.5h2l10 2l4 -4l-4 -4q17 3 33 11t33 6h6v-3q-14 -8 -31 -12t-31 -12q19 -6 38.5 -4t39.5 2h10l4 -4l-4 -4
h-6q-8 0 -15.5 -3t-15.5 -1v-2l-2 -3l-22 -2l-2 -4q9 2 19.5 0t21.5 -2q3 0 6 1t6 1l2 -4l-6 -4l-8 -2h11.5t17.5 -1t16 -2.5t8 -4.5l-4 -2q-2 -2 -5.5 -2h-6.5h-16.5t-14.5 -6l-14 -4v-2q20 -5 34 -5q8 0 17.5 -3t17.5 -5v-4q-12 0 -23 1t-22 1h-8t-8 -2q14 -5 29.5 -3.5
t29.5 -6.5l-2 -4l6 -4q-8 -2 -15 -2t-15 -2h14l4 -5q0 -5 -9 -4.5t-11 0.5l-7 -2q-8 0 -8 -6l6 -8q10 0 20 -3t19 -3v-2l-2 -4h-14h14q-9 0 -18 1t-19 1l2 -2q10 -5 20.5 -7t18.5 -10h-8zM1645 1069q0 -5 -4 -7.5l-7 -4.5q-10 -7 -10 -15q-5 -3 -9.5 -7.5t-10.5 -4.5l-5 4
l21 23q3 3 10 8.5t12 5.5l3 -2v0zM1520 1128l-9 9l17 6l8 -8zM1780 868h-4l-11 11v2l2 4q5 -2 8.5 -3t6.5 -3l2 -7zM1624 1083q-2 -6 -7.5 -13.5t-10.5 -12.5l-13 -18t-8 -19l-6 2l-4 -2l-4 2q0 12 9 18.5t15 16.5q5 5 12 15.5t13 10.5h4v0zM1772 850l-11 2q-5 6 -8 12.5
t-8 14.5l-23 34l4 5l9 -5q9 -8 14.5 -16.5l11.5 -17.5q3 -7 8 -11t7 -12zM2003 649l-2 -10q-3 -5 -7 -8.5t-9 -3.5l-7 4l4 8l7.5 9t9.5 7l4 -4v-2zM1690 956l-8.5 3.5t-6.5 1.5h2q-6 2 -9.5 5t-8.5 9q-3 0 -12 2.5t-18.5 6.5t-17 8t-7.5 7l6 7q23 -8 43 -19t37 -26l2 -5h-2z
M1589 1081q-3 -6 -7 -12t-7 -12v-8q-1 -3 -3.5 -8l-5 -10t-5 -9t-5.5 -4h-4h-2q5 11 8.5 20t8.5 19l18 30l4 -6v0zM1839 799q-2 -2 -5 -3t-5 -1h-14q-7 0 -14 1t-5 9l6 4l37 -10v0zM1567 1077q-2 -5 -3 -10t-3 -10q0 -5 -3.5 -13t-9.5 -8l-4 4v2l4 15l10 12t7 12l2 -4v0z
M2034 575l-9 9l7 8l8 -8zM1751 838l-6 4q-5 9 -9 17.5t-7 19.5q-4 11 -13 18.5l-18 15.5l-15 13.5t-12 15.5h2q6 0 10 -4t9 -4q5 -8 12 -11t12 -10q8 -8 13.5 -17t11.5 -17q3 -10 10 -17v-4q0 -5 3 -8t3 -8zM2011 604q-8 -6 -14.5 -13.5t-14.5 -15.5l-4 7q2 2 4 5t0 5
q8 7 11 12l16 21h6q8 -8 8 -17zM2060 541q-6 0 -11 -1t-11 -1l-13 6l17 22l2 6l8 -6l10 -22zM1460 1196q-7 -8 -15.5 -13.5t-18 -10t-18.5 -10t-17 -13.5l-2 4q0 9 8.5 18t13.5 15q23 3 39 14l4 2l6 -2v-4v0zM1917 700q-5 -3 -8.5 -11t-10.5 -13l-8 -8l-6 6v2q9 9 13 22.5
t14 22.5q5 -3 8.5 -3.5t3.5 -8.5zM1812 774l-12 4l-6 4l-4 4l4 7q5 -4 9 -6t7 -5l5 -4l2 -2zM1495 1128q0 -9 -11 -12t-18 0q-3 -5 -9.5 -8.5t-12.5 -3.5l-8 6q1 3 8.5 7t17 7.5t18 6t11.5 2.5l4 -5v0zM1559 1094q-4 -10 -6 -19t-7 -18q-5 -10 -10.5 -24.5t-13.5 -20.5l-9 6
l-6 -8l-4 6q0 5 4 10t9.5 10t10.5 10.5t7 10.5q2 2 4.5 8l5.5 13t6.5 12t5.5 6l3 -2v0zM2580 86q0 -4 -4 -8q-2 -3 -4 -3.5t-4 -0.5q-6 0 -8 4q-4 2 -4 8q0 -4 -4 -8q-2 -3 -4 -3.5t-4 -0.5v-62q0 -4 -4 -8q-6 -4 -9 -4q-4 0 -8 4q-4 2 -4 8v62h-25q-6 0 -8 4q-4 4 -4 8t4 8
t8 4h50q4 0 8 -4t4 -8q0 6 4 8q4 4 8 4t8 -4t4 -8zM2427 399q0 -15 -12 -24q-11 -13 -25 -13q-8 0 -14 3.5t-13 9.5q-10 10 -10 24q0 -14 -10 -24q-13 -13 -27 -13v-182q0 -13 -10 -26q-13 -11 -27 -11q-13 0 -26 11q-10 13 -10 26v182h-74q-15 0 -25 13q-12 9 -12 24t12 27
q10 10 25 10h147q14 0 27 -10q10 -13 10 -27q0 14 10 27q7 5 13 7.5t14 2.5q13 0 25 -10q12 -12 12 -27zM2021 567q-3 -8 -6 -14l-6 -12h-6l-10 4l16 22q6 3 12 0zM1489 1167q-10 -3 -10 -10q-28 -6 -53 -18.5t-48 -26.5v-2l-6 -6l-14 -12l-4 6l4 6v4q5 0 8 4.5t6 9.5v2
q0 2 7 6.5t15.5 9t17 8.5t11.5 5l4 -4q10 8 26.5 16.5t27.5 8.5l8 -7v0zM1714 834l-4 -7l-6 13v2l4 2l6 -2v-6v-2zM1837 723l-10.5 -16.5t-11.5 -14.5l-7 -4v-2l-10 -8l-6 8q0 6 10 14t15 13l6 10q2 6 5.5 10.5t8.5 9.5l-4 5l-6 8l4 4q5 0 8 -1t8 -1q0 -3 1.5 -6.5t4.5 -3.5
v-3zM1495 1069l-2 -12q0 -6 -2.5 -15t-5.5 -12h-6l-2 4q0 6 3 11.5t3 11.5l4 12.5t8 11.5v-12zM1507 1057q-2 -13 -5.5 -24.5t-6.5 -22.5l-6 -4h-4l-2 4v2q5 11 9 21.5t7 23.5q2 5 3.5 10t4.5 10l4 -2zM1825 741l-5.5 -9t-4.5 -9q-4 -5 -9 -10.5t-10 -5.5l-4 4l6 12
q3 6 5 12t5 13l7 2l8 -2h4zM1792 768q0 -6 -3 -10.5t-5 -9.5l-12 -15l-5 4v2l2 9l17 30l6 -10v0zM1968 604q-6 -9 -11 -18l-11 -19q-5 -6 -11.5 -17t-15.5 -11l-8 6l14 22q8 10 16.5 19l16.5 18q7 5 14 17l6 -5zM1972 541h-4q-10 0 -14 2l-2 6q0 6 5.5 10.5t10.5 7.5l6 4
l4 -4l2 -8l-4 -8l6 -6zM1985 690q0 -5 -1.5 -8t-3.5 -6q-2 -11 -7.5 -19.5t-10.5 -17.5q-6 -11 -15.5 -18.5t-15.5 -16.5l-6 -4h-4l2 4l-4 4l23 31l11.5 18t8.5 19v2l4 8q0 10 -6 16q-8 -2 -14 -11.5t-11 -14.5q-5 -9 -9 -18.5t-9 -18.5q-3 -6 -6.5 -10.5t-9.5 -7.5l-5 -9
l-8 -8q-8 -8 -13 -17.5t-11 -19.5q-11 -15 -24.5 -23.5t-33.5 -8.5q-17 0 -37 6q5 6 13.5 14.5t17.5 11.5q6 5 17 17t14 20l2 8h4q5 0 13 12l10 15q3 5 6.5 11.5t9.5 6.5l8 -8l-8 -10q-6 -8 -11 -17.5t-12 -17.5q-3 -5 -6 -8l-6 -6l-4 2q-5 -6 -8 -12.5l-6 -12.5
q-3 -3 -6 -6.5t-7 -5.5q2 -2 7 -2q8 0 13.5 4.5t10.5 9.5q8 8 14.5 16.5t14.5 16.5v4l4 6t2 8q3 2 6 6t8 1q3 3 6 7t5 7q6 9 9.5 18.5t8.5 18.5q3 5 7.5 10t8 10t5.5 10.5t-1 12.5l3 4q0 5 5 4t7 4q5 0 8 -2.5t6 -5.5q6 -6 11.5 -15t5.5 -18zM2470 12q0 -6 -2 -8
q-4 -4 -10 -4q-5 0 -9 4q-2 2 -2 8v49q0 7 2 9q4 4 9 4q-2 0 -4.5 0.5t-4.5 3.5q-2 2 -2 8t2 8q4 4 9 4q6 0 10 -4q2 -2 2 -8t-2 -8q-2 -4 -10 -4q6 0 10 -4q2 -2 2 -9v-49v0zM1878 713q-5 -10 -11.5 -19l-13.5 -18l-5.5 -9.5t-4.5 -9.5l4 -2l-4 -10h-4l-10 -6
q-8 -6 -14 -16.5l-11 -18.5l-4 -4l-6 2v2l-4 6l25 29q6 9 11 18.5t11 18.5l6.5 10l9.5 14.5t10 13t9 5.5l6 -6v0zM1710 803q0 -5 -1 -10.5t-3 -10.5t-5.5 -12.5t-8.5 -7.5l-6 4q0 5 4 8t6 8q0 2 0.5 6.5t2 9.5t3 9t2.5 4l6 -8v0zM1468 995l-4 2l-10 -8v2v4v7.5t2 7.5
q2 6 5.5 20t6.5 21l5 -11q0 -8 -2.5 -15t-2.5 -15l5 -9zM1440 1077q0 -6 -4 -9.5t-9 -6.5l-4 4l-6 -8q-5 -3 -10 -4t-10 -6l-2 -3l-6 9l4 4q2 2 8 6t12.5 7.5t13.5 6.5t11 4l2 -4v0zM1513 987q-14 -3 -27.5 -5t-27.5 -5l-2 2q0 3 7 6t16 6t17.5 4.5t10.5 1.5t5.5 -1t5.5 -1
v-4zM1915 590q0 -8 -7 -11.5t-5 -11.5q-8 -6 -14 -17t-17 -11l-8 8l2 2q10 7 14 18l29 29l4 -4l2 -2v0zM1729 741q0 -6 -5 -8.5t-8 -5.5l-4 4l12 14l5 -4v0zM1616 829l-4 2l-10 -2l-5 7l5 6l2 4l4 -4l2 2h12l2 -2l2 -2zM1444 995v-12l-12 -6l-5 4l3 4q5 3 4.5 10.5t1.5 14.5
v10v2v8q6 0 6 -8.5t2 -11.5v-9v-6zM1548 973q-20 -3 -39 -7.5t-39 -4.5q-18 -4 -35 -11t-34 -12q0 8 8.5 11t13.5 9q2 0 5.5 1.5t5.5 1.5q17 8 42 13t44 7l4 -2q5 0 7 3t7 3q3 -2 7 -2h7l2 -4zM2435 86q0 -4 -4 -8q-2 -4 -8 -4t-8 4l-3.5 3.5t-1.5 4.5q0 -4 -4 -8
q-2 -4 -8 -4v-62q0 -6 -4 -8q-4 -4 -8 -4t-8 4t-4 8v62h-25q-2 0 -4 0.5t-4 3.5q-4 4 -4 8t4 8t8 4h49q4 0 8 -4t4 -8q0 3 1.5 4.5l3.5 3.5q4 4 8 4t8 -4t4 -8zM1409 1096q0 -5 -7 -10.5t-16.5 -11t-18.5 -10t-13 -7.5q-10 -8 -17.5 -17t-13.5 -18h-2l-4 -2l-2 4q0 9 6.5 17
t11.5 16l4 10l11 6l2 -4q14 9 27.5 16l27.5 15l4 -4v0zM1415 977l-2 4q0 5 -1 8t-1 6v6v9l2 6l2 4h2l2 -4v-6q0 -7 2 -12t2 -11zM1679 741q0 -5 -2.5 -8.5t-7.5 -3.5l-2 2q0 5 3.5 7t6.5 5l2 -2v0zM1782 639q-3 -5 -8 -8t-7 -8q-8 -2 -9.5 -8t-6.5 -11l-6 -4l-6 4l-2 2
q0 8 9.5 18l14.5 15l15 14l8 -8zM1405 961l-6 -3l-4 3v6v6q0 8 1 14t3 12l10 -32zM1589 866q-5 -5 -4.5 -11.5t-1.5 -12.5q0 -13 -6 -25q-8 -12 -25 -23.5t-34 -11.5q-7 0 -17 5.5t-18 7.5q1 5 -1.5 6.5t-6 3t-6.5 2.5t-3 4v6l-4 8l-6 4l2 13l2 18l-4 2q0 5 2 6t5 2t6 2.5
t4 6.5l-7 2l11 8q3 0 6 -2t8 -2q6 0 13.5 2.5t11.5 7.5v16l6 -4l-2 -10q0 -10 12 -10q6 0 12.5 3.5t11.5 8.5q2 -4 5 -5.5t6.5 -3t6 -3t3.5 -6.5l4 4l6 -6v-7l-2 -4l4 -2v0zM1360 1022q-5 -2 -8 -4.5t-6 -5.5l4 -2l2 -4q0 -5 -9 -6t-12 -1l-6 2v3q0 2 1 3t1 3q3 5 14 13
t17 11l4 -2zM1649 827v-10q-2 -9 -6 -18t-9 -17q-15 -21 -39 -34q-17 -11 -37 -16t-40 -5q-17 0 -35.5 5t-32.5 16q-23 13 -35 34q-5 8 -8.5 17t-3.5 18l-2 10l2 15q0 9 3.5 18t8.5 19q19 23 45 34q3 2 6 3.5t7 1.5v-5l4 -12l-11 -8v4v6l4 4h-2l-10 -2l-4 -4l6 -10l-10 -10
h-4l-2 4l-2 -4h-2l-10 6l-3 -4l7 -4l4 -13l-6 -2l-7 4q-2 -5 -7 -4t-5 -4q0 -3 5 -6t3 -6l9 -6v-2l-3 -6q-4 1 -5.5 -1t-3 -4.5t-3 -4.5t-4.5 -1l-2 -6v-6l4 -2l10 2l4 -4l-4 -6h4q5 0 9.5 -1t9.5 -1l2 -4l-2 -4h4l2 -3l-2 -6l-2 -4l-4 -4l-6 2v-10v-4l8 6l4 -4l-4 -2v-2
q5 6 11.5 7.5t12.5 4.5q-2 -5 -5 -9.5t-3 -10.5h2l9 10q0 3 -0.5 6.5t6.5 3.5l4 -4q0 -6 -3 -10t-3 -10h2v-3l2 3l6 8l2 -4v-2v-2q5 0 5.5 5.5t2.5 8.5h4l8 -6l-6 -8l2 -7q2 3 4.5 4t6.5 3v2l4 6l6 -6l-2 -2l-2 -7l4 -6h2l6 6l6 -6q3 2 2.5 5.5t-0.5 7.5l2 2l-6 2l4 8
q2 0 4 -1t4 -1q5 0 8.5 2t6.5 4l-2 8l4 4l6 -4l4 10l6 2l4 -2v-2l-2 -6l4 -2l2 2h2l4 -4l2 8h5h4l2 4q2 2 3 1t3 -1l6 -6v6l-2 6l4 7l6 -4l6 10q-3 0 -7.5 2.5t-4.5 5.5l4 6l6 -2v4l8 12q0 5 -6 6.5t-6 4.5l2 2l6 4l-4 6l-10 -4l-4 6l4 12l8 4l-2 4q-3 -3 -7 -5.5t-9 -2.5
l-4 2l-2 2l4 9l-4 4l-6 -4q-5 2 -5 10l-4 6l4 6v2q-9 -3 -14 -8l-4 4l4 6q2 3 -2.5 3.5t-7.5 -1.5l-4 4v2v2l-8 -2l-9 11v4l9 2q12 0 24.5 -4.5t22.5 -12.5q19 -11 32 -34q4 -10 6.5 -19t2.5 -18v-4v-11zM1755 782q-3 -9 -7 -17.5t-7 -16.5l-2 -7h-2l-2 2v5l2 10l-4 2
q-3 -6 -11 -6q-6 0 -11.5 -0.5t-8.5 -5.5q-4 -13 -10 -13l-4 4l2 9q4 8 10 8q7 14 10 26q2 2 5 10.5t3 10.5q0 5 -3 8t-3 6q1 4 2.5 4.5t3 2t2 5.5t-1.5 13q0 8 -3.5 15t-8.5 15l-4 -6l-10 13q-7 12 -11 17.5t-16 16.5q-22 20 -54 32.5t-61 12.5q-13 0 -35 -2.5t-45 -8
t-43 -14t-28 -20.5q-6 -8 -11 -16.5l-10 -17.5q-2 -10 -3 -19t-3 -18v-4q5 -2 6.5 -7t1.5 -10v-4l-4 -4h-2l-4 4q-6 12 -6 25l-2 12q0 6 2 12t4 13q3 6 5.5 12t4.5 12l-8 -12q-11 -2 -15 -2.5t-9 -9.5q-10 -19 -7 -37l2 -11l-6 -6l-4 2l-4 15l-2 22q-5 -3 -4.5 -8.5
t-5.5 -5.5v-2v-6l2 -4q-2 -3 -2.5 -8t-5.5 -5l-9 4l-6 -12v-2q8 -5 16 -9.5t13 -12.5h4h4l8 6q3 -6 7.5 -6.5t9.5 -10.5q3 -12 13 -19t20 -15q5 -5 9 -9.5t7 -9.5l-2 -2q-11 3 -18.5 9.5t-16.5 11.5q-11 3 -12.5 11.5t-7.5 14.5h-2l-11 4l-6 -6q2 -3 6.5 -5t7.5 -7l-4 -4
q-14 8 -29.5 12.5t-27.5 13.5q-4 2 -10.5 7l-13 10t-12 10t-7.5 8q0 2 -1 3t-1 3q0 6 3.5 11t8.5 8q19 11 38 17.5t36 19.5l26.5 17.5t26.5 16.5q9 6 24 14t31.5 15.5t32.5 13t25 5.5q15 5 29 6.5t28 1.5t28 -1t28 -7q23 -13 46.5 -22t43.5 -26q9 -8 15.5 -16.5t12.5 -17.5
q7 -10 12.5 -19t8.5 -18l6 -12.5t8 -12.5q0 -5 3 -10t3 -10zM1380 946l-4 2l-4 10v3v11t-2 11l2 2q5 0 6.5 -9.5t3.5 -14.5l4 -11zM1651 711q0 -7 -9 -9.5t-14 -5.5l-6 2v4l27 13l2 -4v0zM1683 700l-25 -12.5t-26 -11.5q-12 -6 -20 -6q-5 0 -8 1t-7 3l-2 2v2q10 6 22 5.5
t21 4.5l39 19l6 -7v0zM2327 31q0 -14 -9 -23q-5 -3 -10.5 -5.5t-11.5 -2.5h-31q-4 0 -8 4t-4 8q0 -6 -4 -8q-4 -4 -8 -4q-5 0 -9 4t-4 8t4 8q3 5 9 5q5 0 8 -5q4 -2 4 -8q0 4 4 8q3 5 8 5h31q4 0 4 2q2 0 2 4t-2 4q0 2 -4 2h-37q-12 0 -21 8q-10 10 -10 23t10 20q5 5 10 7.5
t11 2.5h55q4 0 8 -4l3.5 -3.5t1.5 -4.5t-1.5 -4.5l-3.5 -3.5q-2 -4 -8 -4h-55q-2 0 -4 -2q0 -2 -1 -2t-1 -2q0 -7 6 -7h37q6 0 11.5 -2.5t10.5 -5.5q9 -9 9 -22zM1780 586q0 -10 -11 -19q-6 -6 -13 -11.5t-9 -14.5q-6 -2 -11 -4t-12 -2l-8 6v2q11 3 19.5 10.5t17.5 13.5
q5 3 10.5 13t12.5 10l4 -4v0zM2163 180q0 -8 -2 -14t-9 -12q-9 -11 -26 -11h-146q-13 0 -26 11q-10 13 -10 26q0 -8 -3 -14t-8 -12q-13 -11 -26 -11q-14 0 -27 11q-10 13 -10 26q0 15 10 25q12 12 27 12q14 0 26 -12q11 -11 11 -25q0 15 10 25q12 12 26 12h86l-51 102
l-45 -90q-12 -18 -33 -18q-13 0 -26 10q-10 13 -10 27q0 5 1 8t3 8l80 154q9 18 32 18q22 0 33 -20l109 -219q3 -5 3.5 -8.5t0.5 -8.5zM1358 934l-6 2l-6 10l2 4q3 -2 9.5 -4.5t6.5 -7.5zM1733 723q-1 -8 -8 -15t-15.5 -13t-17.5 -11t-15 -8q-24 -13 -50 -17t-52 -4
q-22 0 -41 6.5t-39 14.5l-20 12v2q15 0 29 -5.5t28 -8.5q17 0 32.5 -4t32.5 -4q13 0 24 4t24 4h-7q25 8 47 16.5t39 30.5l2 4l5 2l2 -2v-4zM1536 760l-6 -2l-4 8l4 4l6 -4v-6zM1714 575h-12l-4 7l18 8l6 -6zM1296 981l-2 4v4q0 3 2 7.5t7 4.5l6 -8zM1343 920l-8 8v6l15 -10z
M1589 688q0 -3 -6.5 -4.5t-9.5 -1.5h-6q-5 0 -9.5 0.5t-9.5 3.5q0 3 5 4.5t11 2t12 0.5t7 1l6 -6v0zM1765 707q0 -8 -6 -17t-12 -14q-8 -9 -15.5 -18.5t-15.5 -18.5q-15 -19 -40 -27t-48 -8q-30 -6 -63 0h47q-23 0 -39.5 1t-31.5 4.5t-32 10.5t-41 19q-2 2 -9.5 6t-15.5 9
t-14 10t-6 8l2 4h5q15 -11 29 -19.5l30 -17.5q26 -14 56 -22.5t59 -8.5q24 0 48 9.5t44 21.5q11 8 20 17t17 20q9 12 16 26q5 2 7.5 6l4.5 7l4 -8v0zM1683 541h-8h-4t-4 2v2l4 2q5 0 8 2t7 2l8 -6zM2218 12q0 -4 -4 -8t-8 -4t-8 4l-54 51v-18q0 -4 -4 -8t-8 -4q5 0 8 -5
q4 -4 4 -8t-4 -8t-8 -4t-8 4t-4 8t4 8q3 5 8 5q-4 0 -8 4t-4 8v49q0 4 4 8t8 4t8 -4l53 -53v45q0 6 5 8q4 4 8 4t8 -4t4 -8v-74v0zM1290 961q0 -4 -4.5 -11t-10.5 -14.5t-12.5 -13.5t-9.5 -9l-4 -4l-2 4v5q3 5 5.5 10t9.5 8q0 8 4.5 11.5t7.5 8.5l4 5l4 4h4l4 -4v0z
M1325 905q0 -10 -13.5 -15.5t-21.5 -10.5l-6 -5h-2l-4 5l2 4q3 5 8.5 8t11 5t11 5t8.5 8l6 -4v0zM1292 926q0 -5 -3.5 -9t-8.5 -4q-4 -1 -7 -5t-5.5 -8.5t-5.5 -7.5t-9 -3l-2 2l2 12q8 4 11 10q3 4 6 7l6 6l4 -2l8 10l4 -8v0zM1634 537h-9t-7 2l-2 4q5 3 12.5 2t13.5 2l5 -4
zM1376 774l-6 8q-2 5 -5 9.5t-3 9.5v4l18 -23v-4zM1464 694h-4q-3 0 -10.5 5t-7.5 10l2 4q6 -5 11.5 -6.5t8.5 -8.5v-4zM1595 567q-4 -4 -10 -4q-5 0 -9 1t-9 3l-6 8l4 5q9 -2 16.5 -4.5t15.5 -4.5zM2109 12q0 -4 -4 -8t-8 -4q-3 0 -5 1t-5 3q-2 2 -2 8v49q0 7 2 9q3 2 5 3
t5 1q-3 0 -5 0.5t-5 3.5q-2 2 -2 8t2 8q3 2 5 3t5 1q4 0 8 -4t4 -8t-4 -8q-2 -3 -4 -3.5t-4 -0.5q4 0 8 -4t4 -9v-49v0zM1583 539h-4l-2 2l6 4l4 -4zM1247 893q0 -5 -4 -7t-4 -7v-7q-6 -3 -9.5 -10.5t-12.5 -7.5l-3 6q0 5 4.5 9.5t6.5 9.5q3 6 8 10t8 12l6 -8v0zM1507 592
q-5 2 -8 2.5t-6 5.5l2 4h6l10 -8zM1411 680q-4 1 -12 6t-17 12t-18 13t-14 8l-2 4v2l4 2l10 -4l13 -8t16 -11l15 -11.5t9 -10.5zM1540 539l-4 2l2 2l4 -2zM1227 842l-8 -4l-5 4v2l15 12l6 -6zM1452 618q-5 0 -15 6t-10 11v4h3q2 0 2 1t2 -1q5 -2 12.5 -6t9.5 -10zM1337 729
q-5 0 -10 0.5t-10 5.5l4 6l12 -2l6 -6zM1278 762q-9 5 -19 9.5t-18 10.5l-22 17v4l4 2q8 0 15 -9t13 -14l4 -4l5 2q5 0 8.5 -4t9.5 -4l4 -6zM1481 539l-4 4l4 2l6 -4zM1335 688q-6 2 -12.5 5t-9.5 9l6 5l9 -7t9 -8zM2001 12q0 -6 -4 -8q-4 -4 -8 -4q-5 0 -9 4t-4 8
q0 -6 -4 -8q-4 -4 -8 -4h-12q-21 0 -35 14q-6 7 -10 15.5t-4 19.5q0 8 2.5 15t5.5 12q5 6 9.5 10.5t12.5 7.5q5 2 9.5 3t9.5 1h37q4 0 8 -4q3 -2 3.5 -4t0.5 -4q0 -6 -4 -8q-2 -4 -8 -4h-37q-11 0 -17 -6q-8 -9 -8 -19q0 -13 8 -18q6 -6 17 -6h12q5 0 8 -5q4 -2 4 -8
q0 4 4 8q2 2 4.5 3.5t4.5 1.5q5 0 8 -5q4 -2 4 -8zM1280 713q-5 0 -8 3.5t-6 6.5l-11 8l7 4l8 -2l14 -10l2 -4zM1227 748l-2 -5l-11 5q-8 5 -15 11.5t-13 14.5l-10 -2l-5 10q0 8 5.5 13.5t3.5 13.5l6 8l6 4l4 -4l2 -2l-6 -18q2 -3 4 -6.5t2 -8.5q9 -6 14.5 -16t16.5 -16z
M1835 180q0 -8 -2 -14t-8 -12q-5 -5 -12 -8t-15 -3q-6 0 -12.5 3t-11.5 8q-7 6 -9 12t-2 14v131l-49 -47q-7 -10 -24 -10q-19 0 -27 10l-47 47v-57q0 -8 -2.5 -14t-7.5 -13q-7 -5 -13 -7.5t-14 -2.5q14 0 27 -12q10 -10 10 -25q0 -13 -10 -26q-14 -11 -27 -11t-27 11
q-10 13 -10 26q0 15 10 25q14 12 27 12q-8 0 -14 2t-13 8q-5 7 -7.5 13t-2.5 14v145q0 14 10 27q7 5 13 7.5t14 2.5t14 -2t13 -8l84 -84l84 84q5 6 11.5 8t12.5 2q14 0 27 -10q6 -6 8 -12.5t2 -14.5v-219v0zM1440 537l-15 8l5 2q3 -2 8.5 -1t5.5 -5zM1403 541q-9 0 -21 8.5
t-14 17.5v4l4 4l12 -8q13 -9 23 -22zM1346 592q-7 0 -9.5 4.5t-5.5 7.5q-11 8 -19 17t-18 18q-15 18 -34 37q-10 6 -18 13t-17 13v3l8 6q11 0 20 -11v-2q0 -5 11 -10.5t14 -11.5v-2q6 -3 17.5 -10t13.5 -13l-2 -6l4 -6q9 -9 19 -16.5t20 -18.5l2 -6zM1892 12q0 -4 -4 -8
t-8 -4t-8 4t-4 8v49q0 5 4 9t8 4q-6 0 -8 4q-4 4 -4 8t4 8t8 4t8 -4t4 -8t-4 -8q-2 -4 -8 -4q4 0 8 -4t4 -9v-49v0zM1208 709q-11 0 -14.5 3t-11.5 11q-3 5 -7.5 8t-7.5 8l-12 4q-2 -3 -1.5 -7t-2.5 -7l4 -6q13 -20 25 -33q-2 -2 -6 -2h-9q-5 9 -16.5 16.5t-13.5 18.5
q0 6 2.5 12l5.5 13q5 5 9 10t9 10q3 1 6 -1.5t5 -6t4.5 -7t3.5 -5.5q9 -16 24 -25l10 -8zM1364 537l-10 2l-6 -2q-3 1 -6.5 0.5t-6 -0.5t-3 2t0.5 8q-5 5 -8.5 8t-5.5 8l-4 4q-11 8 -20.5 18t-20.5 19l6 6q-5 5 -9 8.5t-9 8.5q-2 0 -3 -1t-2 -1q-5 0 -7.5 5.5t-4.5 8.5
q0 8 -6 14l6 4q9 0 16 -6.5t15 -11.5q9 -6 14.5 -16t12.5 -19q8 -12 17.5 -20.5t20.5 -16.5q8 -5 14.5 -10.5t12.5 -11.5l2 -4zM1223 662l-19 14l-6 4l8 6q6 0 11 -3.5t8 -6.5l2 -6zM1858 12q0 -3 -1.5 -4.5l-3.5 -3.5q-4 -4 -8 -4q-6 0 -10 4q-2 2 -2 8v25h-25q-3 0 -5 1
t-5 3q-2 2 -2 8t2 8q3 2 5 3t5 1h25v25q0 6 2 8q3 2 5 3t5 1q4 0 8 -4l3.5 -3.5t1.5 -4.5v-74v0zM1311 543q-13 -3 -26 -1.5t-25 1.5q-7 0 -14 -1t-13 -3l-8 4l2 2q0 6 -7.5 10t-7.5 12h2q-5 6 -13.5 14.5t-8.5 14.5l4 6q5 0 10.5 -4.5t10.5 -10t9.5 -11.5t6.5 -9
q5 -5 8.5 -9.5t9.5 -4.5q5 0 9.5 1t9.5 3q0 5 -4.5 6t-8.5 4l-10 23q-5 3 -8.5 8.5t-11.5 5.5q0 -1 -1 -1t-1 1q-8 8 -15 18.5t-18 16.5q-5 3 -8.5 6t-5.5 8l6 4l26 -18q6 -6 13 -6q8 -6 15 -13.5t13 -15.5q5 -5 10.5 -9t10.5 -9q5 -2 4 -7t4 -8v-4q2 -4 7.5 -6.5t10.5 -4
t9 -4.5t4 -9zM1157 662q-6 0 -10.5 5.5t-9.5 8.5l-15 9t-10 15l6 5q8 0 13.5 -6t11.5 -9q3 -8 12 -14l4 -6l4 -6zM1784 12q0 -4 -4 -8t-8 -4t-6 1t-5 3q-2 2 -2 8t2 8q3 2 5 3.5t6 1.5q-4 0 -6 1t-5 3q-2 2 -2 8v49q0 6 2 8q3 2 5 3t6 1t8 -4t4 -8v-49q0 -4 -4 -8t-8 -4
q5 0 8 -5q4 -4 4 -8zM1167 616l-28 23l14 4l2 -4q5 -5 13 -8t8 -13zM1122 645h-6q0 5 -3.5 7t-6.5 5l-8 -4v-2l-8 -12l-3 -2h-4l-4 2v2q0 5 8 17t11 18h4h4l22 -25zM1749 68q0 -13 -10 -23q-8 -8 -21 -8h-12q-4 0 -8 4q-4 2 -4 8t4 8q4 4 8 4h12q2 0 4 2q0 1 1 2t1 3t-1 2
t-1 2q-2 2 -4 2h-37v-37q0 -4 -4 -8t-8 -4q5 0 8 -5q4 -4 4 -8t-4 -8t-8 -4t-8 4q-4 2 -4 8t4 8q3 5 8 5q-4 0 -8 4q-4 2 -4 8v49q0 6 4 8q4 4 8 4h49q11 0 21 -10q10 -7 10 -20zM1202 545q0 -5 -5 -5t-7 -3h-14h-11q-5 0 -10.5 3t-5.5 9l6 8l12 -6l4 4l-10 12
q-9 11 -20.5 19.5l-24.5 17.5q-3 3 -10.5 8.5t-9.5 10.5l6 8q12 -2 24 -11.5t23 -15.5q8 -5 12 -9t7 -8l6.5 -9t9.5 -11q5 -5 11.5 -9.5t6.5 -12.5zM1098 573l-2 2q-8 8 -15 16t-18 13l-6 4l6 13l4 4h2q8 0 12 -8t9 -13q9 -12 12 -26zM1126 543q-8 -4 -16 -4l-12 4l6 6
l-4 10l2 6v2l6 2l4 -2q3 -3 9.5 -7.5t6.5 -10.5zM1507 180q0 -8 -2 -14t-8 -12q-9 -11 -27 -11q-6 0 -12.5 3t-11.5 8q-10 10 -10 26q0 -14 -13 -26q-9 -11 -24 -11h-37q-32 0 -59 11t-50 32q-39 41 -39 105q0 23 6 44t17 38q26 38 68 53q14 6 28.5 8t28.5 2h108q8 0 15 -2
t12 -8q6 -5 8 -11.5t2 -13.5q0 -8 -2 -14.5t-8 -11.5q-5 -6 -12 -8t-15 -2h-108q-17 0 -30.5 -6t-22.5 -15q-11 -9 -16 -22.5t-5 -30.5q0 -36 21 -53q17 -21 53 -21h37q14 0 24 -10q13 -12 13 -27q0 17 10 27t24 10q-14 0 -24 10q-6 7 -8 13t-2 14h-74q-14 0 -27 10
q-10 10 -10 27q0 14 10 24q12 13 27 13h108q18 0 27 -13q6 -5 8 -10.5t2 -13.5v-37q0 -8 -2 -14t-8 -13q-10 -10 -27 -10q17 0 27 -10q6 -6 8 -12.5t2 -14.5zM1645 12q0 -6 -3 -8t-5 -3t-5 -1h-47q-3 0 -5 1t-5 3q-2 2 -2 8q0 -4 -4 -8t-8 -4t-6 1t-5 3q-2 2 -2 8t2 8
q3 2 5 3.5t6 1.5q5 0 8 -5q4 -4 4 -8q0 6 2 8q3 2 5 3.5t5 1.5h29l-19 34l-14 -30q-3 -6 -10 -6q-3 0 -5 1t-5 3q-2 2 -2 8v6l26 51q3 6 12 6q8 0 11 -6l37 -74v-6v0zM1055 584q0 -3 -2.5 -6t-5.5 -3l-7 9l9 6l6 -6v0zM1079 539h-6q-5 6 -8.5 12t-5.5 14l2 2q2 2 3.5 1
t4.5 -1l18 -22zM1055 541q-3 -2 -7.5 -2h-7.5h-6q-3 0 -8.5 1t-7.5 3v6q5 3 6 8t6 10l6 4l2 -4q3 -3 10 -12t7 -12v-2zM1536 12q0 -4 -4 -8t-8 -4t-8 4l-37 37q-4 4 -4 8q0 2 2 4q3 8 10 8h12q4 0 4 2q2 0 2 5q0 2 -2 4q0 2 -4 2h-37v-37q0 -6 -4 -8q-4 -4 -8 -4q5 0 8 -5
q4 -2 4 -8t-4 -8q-4 -4 -8 -4t-8 4t-4 8t4 8q3 5 8 5q-4 0 -8 4t-4 8v49q0 4 4 8t8 4h49q13 0 23 -10q5 -3 6.5 -8.5t1.5 -11.5q0 -9 -4 -17l-5.5 -5.5t-7.5 -4.5l19 -21q4 -2 4 -8zM1180 180q0 -8 -2 -14t-9 -12q-9 -11 -26 -11q-6 0 -13 3t-12 8q-10 10 -10 26v148
q0 6 2 12.5t8 11.5q5 6 12 8t13 2q-6 0 -13 3.5t-12 9.5q-10 8 -10 24q0 17 10 27q5 5 12 7.5t13 2.5q16 0 26 -10q7 -6 9 -12.5t2 -14.5t-2 -13.5t-9 -10.5q-10 -13 -26 -13q8 0 14.5 -2t11.5 -8q7 -5 9 -11.5t2 -12.5v-148v0zM1427 12q0 -4 -4 -8t-8 -4t-8 4q-4 2 -4 8
q0 -4 -4 -8t-8 -4h-13q-22 0 -37 14q-12 14 -12 35q0 8 1.5 15.5t6.5 13.5q6 9 23 16q5 2 9 3t9 1h37q4 0 8 -4t4 -8t-4 -8t-8 -4h-37q-12 0 -18 -6q-6 -7 -6 -19t6 -18t18 -6h13q5 0 8 -5q4 -4 4 -8q0 6 4 8q3 5 8 5q-4 0 -8 4q-4 2 -4 8h-25q-4 0 -8 4t-4 8t4 8t8 4h37
q4 0 8 -4t4 -8v-12q0 -4 -4 -8t-8 -4q5 0 8 -5q4 -4 4 -8zM1319 49q0 -20 -14 -35q-15 -14 -35 -14q-21 0 -35 14q-14 15 -14 35q0 21 14 35q8 6 16 10t19 4q20 0 35 -14q14 -14 14 -35zM1073 399q0 -14 -10 -24q-13 -13 -27 -13q-13 0 -26 13q-5 5 -8 10.5t-3 13.5
q0 -14 -10 -24q-13 -13 -26 -13v-182q0 -8 -2 -14t-9 -12q-9 -11 -26 -11q-16 0 -25 11q-12 12 -12 26v182h-72q-16 0 -26 13q-7 5 -9 10.5t-2 13.5q0 14 11 27q13 10 26 10h146q13 0 26 -10q10 -13 10 -27q0 8 3 14.5t8 12.5q13 10 26 10q14 0 27 -10q10 -13 10 -27z
M1210 68q0 -15 -8 -23t-22 -8h-13q-4 0 -8 4t-4 8t4 8t8 4h13q4 0 4 2q2 0 2 5q0 2 -2 4q0 2 -4 2h-37v-37q0 -6 -4 -8q-4 -4 -9 -4q6 0 9 -5q4 -2 4 -8t-4 -8q-4 -4 -9 -4q-4 0 -8 4t-4 8t4 8q3 5 8 5q-4 0 -8 4t-4 8v49q0 4 4 8t8 4h50q12 0 22 -10q5 -3 6.5 -8.5
t1.5 -11.5zM1108 86q0 -4 -4 -8q-2 -3 -4 -3.5t-4 -0.5h-4.5t-4.5 2q5 -3 5 -6q0 -4 -5 -11l-16 -16v-31q0 -4 -4 -8t-8 -4t-8 4q-4 2 -4 8v31l-33 35q-4 4 -4 8t4 8t8 4t8 -4l29 -28l10 12q2 2 10 2q4 0 6 -2q-2 2 -2 4v4q0 6 4 8q2 2 4 3t5 1q4 0 8 -4t4 -8zM999 86
q0 -4 -4 -8q-2 -3 -4 -3.5t-4 -0.5q-8 0 -10 4q-2 2 -2 8q0 -4 -4 -8q-2 -3 -4 -3.5t-4 -0.5v-62q0 -5 -5 -8q-4 -4 -8 -4q-3 0 -5 1t-5 3q-2 2 -2 8v62h-25q-3 0 -5 0.5t-5 3.5q-2 2 -2 8t2 8q3 2 5 3t5 1h50q4 0 8 -4t4 -8q0 6 2 8q4 4 10 4q4 0 8 -4t4 -8zM748 236
q0 -39 -27 -66q-28 -27 -66 -27h-90q-17 0 -26 11q-7 6 -9 12t-2 14q0 -14 -12 -26q-9 -11 -24 -11q-14 0 -27 11q-10 13 -10 26q0 15 10 25q12 12 27 12t24 -12q12 -9 12 -25q0 8 2 14t9 11q9 12 26 12h90q5 0 8.5 1t6.5 3q2 3 3 6.5t1 8.5q0 4 -4 12q-6 6 -15 6h-108
q-39 0 -66 27q-26 23 -26 65q0 37 26 64q27 26 66 26h164q13 0 26 -10q5 -6 8 -12.5t3 -14.5q0 -13 -11 -24q-13 -13 -26 -13h-164q-5 0 -8 -0.5t-7 -3.5q-4 -8 -4 -12q0 -18 19 -18h108q20 0 36 -7.5t30 -21.5q14 -12 20.5 -28.5t6.5 -34.5zM793 49q0 -6 -2 -8l-6 -3t-5 -1
h-12q-4 0 -8 4t-4 8t4 8t8 4h12q3 0 5 -1l6 -3q2 -2 2 -8zM817 12q0 -6 -2 -8q-3 -2 -5 -3t-5 -1q-4 0 -8 4t-4 8q0 -6 -2 -8l-6 -3t-5 -1h-12q-9 0 -18 3t-17 11q-12 14 -12 35q0 17 6 29q10 10 23 16q5 2 9 3t9 1h37q3 0 5 -1t5 -3q2 -2 2 -8t-2 -8q-3 -2 -5 -3t-5 -1h-37
q-10 0 -16 -6q-3 -4 -6 -8.5t-3 -10.5t3 -10.5t6 -7.5q6 -6 16 -6h12q3 0 5 -1.5t6 -3.5q2 -2 2 -8q0 4 4 8q3 5 8 5q3 0 5 -1.5t5 -3.5q2 -2 2 -8zM709 86q0 -4 -4 -8q-3 -4 -9 -4q-4 0 -6 2q0 -2 1 -3t1 -3q0 -3 -1 -5.5t-3 -5.5l-16 -16v-31q0 -4 -4 -8t-9 -4q-4 0 -8 4
t-4 8v31l-33 35q-4 4 -4 8t4 8t9 4q4 0 8 -4l28 -28l11 12q4 2 10 2q4 0 6 -2q-2 2 -2 4v4q0 4 4 8t8 4q3 0 5 -1t4 -3q4 -4 4 -8zM575 49q0 -4 -4 -8t-8 -4h-12q-4 0 -8 4q-4 2 -4 8t4 8q4 4 8 4h12q4 0 8 -4t4 -8zM600 12q0 -4 -4 -8t-8 -4t-8 4q-5 2 -5 8q0 -4 -4 -8
t-8 -4h-12q-23 0 -37 14q-12 14 -12 35q0 8 1.5 15.5t6.5 13.5q7 10 22 16q5 2 9.5 3t9.5 1h37q4 0 8 -4t4 -8t-4 -8t-8 -4h-37q-11 0 -19 -6q-6 -7 -6 -19t6 -18q8 -6 19 -6h12q5 0 8 -5q4 -4 4 -8q0 6 5 8q3 5 8 5t8 -5q4 -4 4 -8zM420 180q0 -8 -2 -14t-8 -12
q-11 -11 -25 -11h-147q-14 0 -27 11q-10 13 -10 26q0 -13 -11 -26q-13 -11 -26 -11q-14 0 -27 11q-10 13 -10 26q0 15 10 25q12 12 27 12q14 0 26 -12q11 -9 11 -25q0 15 10 25q12 12 27 12h88l-54 102l-45 -90q-9 -18 -32 -18q-14 0 -27 10q-10 13 -10 27q0 5 1 8t3 8
l80 154q9 18 32 18q24 0 33 -20l111 -219q2 -5 2 -8.5v-8.5zM395 49q0 -4 -4 -8t-8 -4h-12q-3 0 -5 1l-6 3q-2 2 -2 8t2 8l6 3t5 1h12q4 0 8 -4t4 -8zM418 12q0 -6 -2 -8q-4 -4 -10 -4q-5 0 -9 4q-2 2 -2 8q0 -4 -4 -8t-8 -4h-12q-23 0 -37 14q-12 14 -12 35q0 17 6 29
q10 10 22 16q6 2 11 3t10 1h35q6 0 10 -4q2 -2 2 -8t-2 -8q-4 -4 -10 -4h-35q-13 0 -19 -6q-6 -7 -6 -19t6 -18t19 -6h12q5 0 8 -5q4 -4 4 -8q0 6 2 8q3 5 9 5q7 0 10 -5q2 -2 2 -8zM309 12q0 -6 -4 -8q-4 -4 -8 -4t-8 4l-53 51v-18q0 -6 -3 -8t-5 -3t-5 -1q3 0 5 -1.5
t5 -3.5t3 -8t-3 -8t-5 -3t-5 -1q-4 0 -8 4t-4 8t4 8q3 5 8 5q-4 0 -8 4t-4 8v49q0 4 4 8t8 4q3 0 5 -1t5 -3l52 -53v45q0 4 4 8t8 4t8 -4q4 -2 4 -8v-74v0zM201 49q0 -20 -15 -35q-11 -14 -34 -14q-21 0 -35 14q-6 8 -10.5 16t-4.5 19t4.5 19t10.5 16q8 6 16.5 10t18.5 4
q23 0 34 -14q15 -14 15 -35zM1769 942q-3 0 -7 1t-7 1h-4h-2l-2 -4l8 -4q3 0 7 1t7 1v4zM1722 782q-4 -8 -4 -14q6 0 8.5 4.5t2.5 9.5v2v9zM1569 829l-19 -12q-5 -3 -6.5 -8t-3.5 -10q8 0 16 6t13 12l2 8zM1565 754l-2 -6v-5l6 5h4v2zM1417 842h-14h12l-6 -4l4 -2l4 4v2z
M1427 782l3 -4l6 4l2 4zM1294 49q0 10 -8 17q-5 8 -16 8t-19 -8q-6 -7 -6 -17q0 -9 6 -18q9 -6 19 -6t16 6q8 8 8 18zM176 49q0 10 -6 17q-8 8 -18 8q-12 0 -17 -8q-3 -4 -5.5 -8t-2.5 -9t2.5 -9l5.5 -9q6 -6 17 -6q6 0 9.5 1.5t8.5 4.5q6 9 6 18zM1282 49q0 -6 -4 -8
q-4 -4 -8 -4t-8 4l-3.5 3.5t-1.5 4.5t1.5 4.5l3.5 3.5q4 4 8 4t8 -4t4 -8zM164 49q0 -6 -2 -8q-4 -4 -10 -4q-5 0 -9 4q-2 2 -2 8t2 8q4 4 9 4q6 0 10 -4q2 -2 2 -8z" />
    <glyph glyph-name="ydieresis" unicode="&#xff;" horiz-adv-x="565" 
d="M500 508q0 34 -24 57t-58 23q-25 0 -60.5 -16t-73.5 -37.5l-74 -43.5t-60 -34q7 31 18.5 68t26 74.5t32 72t35.5 59.5q6 11 10 22t4 23q0 29 -21 51.5t-50 22.5q-27 0 -52.5 -26.5t-48 -68.5t-42 -93t-33 -100t-21.5 -90t-8 -62q0 -24 6 -45.5t19 -38t32 -26t45 -9.5
q23 0 48.5 8t51 20t49 25.5l42.5 24.5q-8 -17 -28 -56.5l-47.5 -93l-61 -116l-68.5 -125.5l-70 -121.5t-65.5 -103.5t-55.5 -72t-40 -27q-2 0 -6.5 4.5t-12 10t-18.5 10t-25 4.5q-29 0 -50 -22.5t-21 -51.5q0 -23 13 -42t33 -32t43.5 -20t43.5 -7q6 0 12 0.5t12 2.5
q41 7 77 32t66.5 59.5t55.5 73.5t43 74l54.5 97.5l77 138l85.5 156.5t79.5 153.5t58 129t22.5 83.5zM301 1030q0 23 -11.5 45t-30 39.5t-41 28.5t-44.5 11q-21 0 -41.5 -14t-36 -34.5t-25.5 -43.5t-10 -41q0 -23 9 -40t24 -28.5t34 -17.5t39 -6q24 0 48 5.5t43 18t31 31.5
t12 46zM649 1021q0 20 -10 41.5t-26.5 38.5t-36.5 28t-40 11t-43 -11.5t-42.5 -29t-32.5 -39.5t-13 -43q0 -24 10.5 -42t27.5 -30.5t38.5 -19t42.5 -6.5q24 0 46.5 6t40 19t28 32t10.5 45z" />
    <glyph glyph-name="Ydieresis" unicode="&#x178;" horiz-adv-x="741" 
d="M727 993l1 1q1 1 1 3q0 28 -23 48t-51 20t-51 -21q-14 -12 -24 -28.5t-21 -30.5l-42 -58.5t-55 -71.5t-64 -73.5t-69 -65.5t-70.5 -47t-68.5 -18q-11 0 -20 2.5t-18 5.5q-5 8 -7 18t-2 19q0 35 10 78t25.5 88t33.5 88l33.5 78l25.5 59.5t10 30.5q0 31 -21.5 52.5
t-52.5 21.5q-20 0 -33.5 -8.5t-26.5 -24.5q-16 -20 -33.5 -55.5t-33.5 -78t-30.5 -90t-25.5 -92t-17.5 -83t-6.5 -64.5q0 -91 49.5 -140.5t140.5 -49.5q50 0 97.5 18.5t91 48t82 66t69.5 72.5l-23 -126.5t-29.5 -137t-43.5 -132t-66.5 -112t-98 -78t-136.5 -29.5h-14
q-16 0 -34 -1.5t-33 -8t-24.5 -19t-9.5 -34.5q0 -28 9.5 -44.5t25 -25t36.5 -10.5t44 -2q99 0 179.5 36.5t141 98t101.5 142.5t61 171q22 100 41 201l37 201q10 45 19 90t14 90v12zM486 1378q0 23 -11.5 45t-30 39.5t-41 28.5t-44.5 11q-21 0 -41.5 -14t-36 -34.5
t-25.5 -43.5t-10 -41q0 -23 9 -40t24 -28.5t34 -17.5t39 -6q24 0 48 5.5t43 18t31 31.5t12 46zM834 1369q0 20 -10 41.5t-26.5 38.5t-36.5 28t-40 11t-43 -11.5t-42.5 -29t-32.5 -39.5t-13 -43q0 -24 10.5 -42t27.5 -30.5t38.5 -19t42.5 -6.5q24 0 46.5 6t40 19t28 32
t10.5 45z" />
    <glyph glyph-name="fraction" unicode="&#x2044;" horiz-adv-x="864" 
d="M125 174q0 6 -1 12t-1 13q0 48 33.5 127t88.5 176.5t125.5 208.5l143.5 222l143.5 216l125.5 192t88.5 149.5t33.5 88.5q0 22 -15.5 37.5t-37.5 15.5t-32 -12t-19 -31q-22 -52 -51 -104t-61 -103t-66 -100l-66 -96l-135.5 -205l-132.5 -205l-62 -95l-67.5 -109
t-62.5 -111.5t-46 -102.5q-14 -40 -23.5 -79.5t-9.5 -81.5q0 -28 11 -51t43 -23q21 0 37 15.5t16 35.5z" />
    <glyph glyph-name="guilsinglleft" unicode="&#x2039;" horiz-adv-x="473" 
d="M389 788q12 20 12 39t-8.5 36t-23.5 26q-22 12 -41 12q-23 0 -41 -12q-55 -40 -95.5 -66.5l-72 -47l-56 -37.5t-47.5 -38q-45 -45 -45 -92q0 -40 28 -78t73 -67l59.5 -38t36.5 -22t23.5 -12.5t21.5 -8.5t29.5 -10.5t48.5 -19.5q12 -6 24 -6q17 0 33 9.5t27 25.5
q6 9 8 19.5t2 19.5q0 18 -8 35t-25 26q-3 3 -7 5.5t-9 2.5q-34 9 -56.5 19t-41.5 22l-39 25.5t-49 30.5q-13 6 -21 14q2 6 3.5 13t6.5 12q40 32 79 53.5l73 39t59.5 33.5t38.5 37z" />
    <glyph glyph-name="guilsinglright" unicode="&#x203a;" horiz-adv-x="473" 
d="M356 700q-22 21 -46.5 38l-56 37.5l-72.5 47t-95 66.5q-18 12 -41 12q-20 0 -41 -12q-15 -9 -24 -26t-9 -36q0 -20 13 -39q13 -21 39 -37t59.5 -33t72 -39t78.5 -54q11 -11 11 -25q-7 -7 -21 -14q-29 -17 -49 -30.5l-39.5 -25.5t-41.5 -22t-56 -19q-5 0 -8.5 -2.5
t-8.5 -5.5q-15 -9 -23.5 -26t-8.5 -35q0 -19 10 -39q11 -16 27 -25.5t34 -9.5q14 0 23 6q31 13 48.5 19.5t29.5 10.5t21.5 8.5t23.5 12.5t36.5 22l59.5 38q45 29 72.5 67t27.5 78q0 48 -45 92z" />
    <glyph glyph-name="fi" unicode="&#xfb01;" horiz-adv-x="868" 
d="M606 1049q0 27 -19 50t-48 23q-56 0 -104 -30t-85 -76t-62 -100.5t-34 -102.5q-8 -38 -18.5 -76t-22.5 -75l-59 7t-56 15q-15 6 -30 6q-29 0 -48.5 -22.5t-19.5 -51.5t16 -46t39.5 -26t50 -13t48.5 -7q-9 -20 -24 -48t-32 -56.5t-35.5 -53.5t-35.5 -40q-27 -27 -27 -60
q0 -28 19.5 -50.5t48.5 -22.5q21 0 44 19t46 48.5t45.5 66t41 71l33 64l21.5 44.5q12 0 26 -1t29 -1q20 0 39.5 3t35 11.5t25 23.5t9.5 40q0 27 -19.5 49t-48.5 22q-11 0 -20.5 -2t-22.5 -2q11 34 20 68t15 69q11 58 31.5 92.5t45 54.5t50 30t46 20t33.5 24t13 42zM721 711
q0 31 -21.5 52t-52.5 21q-29 0 -49.5 -21t-22.5 -50q-4 -39 -17.5 -76.5l-28 -75.5t-26 -76.5t-11.5 -78.5q0 -35 19 -62t56 -27q15 0 28 6t23.5 16t16.5 23.5t6 28.5q0 42 12.5 81.5t27.5 79t27.5 79t12.5 80.5zM895 901q0 29 -21.5 50.5t-50.5 21.5q-6 0 -12 -0.5
t-12 -3.5q-24 26 -58 26q-29 0 -50 -21t-21 -50q0 -22 11.5 -42.5t30 -36.5t40.5 -26t43 -10q18 0 35.5 7t32 19.5t23.5 29.5t9 36z" />
    <glyph glyph-name="fl" unicode="&#xfb02;" horiz-adv-x="866" 
d="M606 1049q0 27 -19 50t-48 23q-56 0 -104 -30t-85 -76t-62 -100.5t-34 -102.5q-8 -38 -18.5 -76t-22.5 -75l-59 7t-56 15q-15 6 -30 6q-29 0 -48.5 -22.5t-19.5 -51.5t16 -46t39.5 -26t50 -13t48.5 -7q-9 -20 -24 -48t-32 -56.5t-35.5 -53.5t-35.5 -40q-27 -27 -27 -60
q0 -28 19.5 -50.5t48.5 -22.5q21 0 44 19t46 48.5t45.5 66t41 71l33 64l21.5 44.5q12 0 26 -1t29 -1q20 0 39.5 3t35 11.5t25 23.5t9.5 40q0 27 -19.5 49t-48.5 22q-11 0 -20.5 -2t-22.5 -2q11 34 20 68t15 69q11 58 31.5 92.5t45 54.5t50 30t46 20t33.5 24t13 42zM827 993
v2q0 15 -7 27.5t-18 21t-24.5 13t-27.5 4.5q-26 0 -45.5 -19.5t-22.5 -44.5q-5 -38 -21 -87.5t-37 -105l-44.5 -113t-43 -112t-32 -102.5t-12.5 -84q0 -13 4.5 -26.5t13.5 -24.5t21.5 -18t27.5 -7q14 0 28 4.5t25 13.5t18 21.5t7 28.5v12v-2q2 32 15.5 78t33 99l42.5 110.5
l44 112t36 103t19 83.5v12z" />
    <glyph glyph-name="daggerdbl" unicode="&#x2021;" horiz-adv-x="555" 
d="M481 541q0 34 -21 52.5t-50.5 27t-61.5 10t-55 0.5h-23q13 153 22 305t17 307q13 2 26 2h25q17 0 32.5 -0.5t31.5 -5.5q9 -3 17.5 -6.5t19.5 -3.5q15 0 28 6t23.5 16t16.5 23.5t6 28.5q0 33 -21 51t-51 26t-63 9.5t-56 1.5h-29q5 72 14 143.5t27 142.5q2 8 3 15t1 16
q0 29 -21 49.5t-50 20.5q-19 0 -33 -7.5t-27 -21.5q-10 -12 -17.5 -39.5t-13.5 -64t-10.5 -77t-7.5 -78.5t-5 -68.5t-3 -47.5q-29 -3 -57.5 -5.5t-57.5 -2.5q-11 0 -20.5 2t-20.5 2q-29 0 -51 -21.5t-22 -52.5q0 -24 10.5 -39t27 -23t37 -10.5t39.5 -2.5q55 0 107 6
q-8 -153 -17 -305.5t-24 -307.5q-29 -3 -58.5 -5.5t-60.5 -2.5q-9 0 -19.5 2t-19.5 2q-31 0 -52.5 -21t-21.5 -52q0 -25 11 -40t27.5 -23t37 -10.5t39.5 -2.5q50 0 98 6q-4 -32 -11 -73t-17.5 -82.5t-25 -80t-34.5 -65.5l-15.5 -24t-6.5 -27q0 -15 6 -28.5t15.5 -24
t22.5 -17t28 -6.5q28 0 52 23.5t43 55.5t32 67t20 57q17 58 27 118.5t16 122.5q14 0 26.5 1t26.5 1q16 0 32 -0.5t32 -5.5q9 -3 17.5 -6.5t19.5 -3.5q29 0 50 21.5t21 50.5z" />
    <glyph glyph-name="periodcentered" unicode="&#xb7;" horiz-adv-x="272" 
d="M209 743q0 19 -6.5 36t-18.5 29.5t-28 20t-35 7.5q-25 0 -47.5 -14t-38.5 -35t-25.5 -46.5t-9.5 -48.5q0 -19 6.5 -36.5t18.5 -30.5t28 -21t35 -8q26 0 48.5 14t38.5 36t25 47.5t9 49.5z" />
    <glyph glyph-name="quotesinglbase" unicode="&#x201a;" horiz-adv-x="326" 
d="M262 100v31q0 33 -2.5 71t-13 70.5t-32.5 54t-60 21.5q-29 0 -50.5 -21.5t-21.5 -52.5q0 -11 5.5 -18.5t12 -23t12 -45.5t5.5 -87q0 -38 -8 -70t-26 -55t-47 -36t-71 -13h-6q-19 0 -38 -1.5t-34 -8t-24.5 -21t-9.5 -40.5q0 -25 10.5 -39.5t27 -22t36.5 -10t38 -2.5
q73 0 128.5 24t93 66.5t56.5 101t19 127.5z" />
    <glyph glyph-name="quotedblbase" unicode="&#x201e;" horiz-adv-x="596" 
d="M528 100v31q0 33 -2.5 71t-13 70.5t-32.5 54t-60 21.5q-29 0 -50.5 -21.5t-21.5 -52.5q0 -11 5.5 -18.5t12 -23t12 -45.5t5.5 -87q0 -38 -8 -70t-26 -55t-47 -36t-71 -13h-6h-2q19 37 29 81t10 93v31q0 33 -2.5 71t-13 70.5t-32.5 54t-60 21.5q-29 0 -50.5 -21.5
t-21.5 -52.5q0 -11 5.5 -18.5t12 -23t12 -45.5t5.5 -87q0 -38 -8 -70t-26 -55t-47 -36t-71 -13h-6q-19 0 -38 -1.5t-34 -8t-24.5 -21t-9.5 -40.5q0 -25 10.5 -39.5t27 -22t36.5 -10t38 -2.5q97 0 162 41q6 -14 17.5 -22t26 -12.5t30.5 -5.5t30 -1q73 0 128.5 24t92.5 66.5
t56 101t20 127.5z" />
    <glyph glyph-name="perthousand" unicode="&#x2030;" horiz-adv-x="1421" 
d="M715 373q0 -17 -9 -37t-23.5 -37.5t-33 -29t-37.5 -11.5q-23 0 -44 15.5t-33 33.5v4v2q0 15 9 38.5t22.5 48t29 45t27.5 28.5q18 0 34.5 -9.5t29 -24t20.5 -32t8 -34.5zM336 1071q0 -18 -9.5 -38t-24 -37t-33 -28.5t-36.5 -11.5q-23 0 -44 15t-33 35v4q0 15 8.5 37.5
t21 46t27.5 43.5t27 30q8 0 15 -1t15 -1q14 -6 26 -16.5t21 -23.5t14 -27t5 -27zM1225 319q0 -18 -9 -38t-24 -37t-33.5 -28t-36.5 -11q-23 0 -44 15t-34 34v4v2q0 15 9.5 38.5t23 47.5t29 44.5t27.5 29.5q18 0 34.5 -9.5t29 -24t20.5 -32.5t8 -35zM860 373q0 47 -19 91.5
t-51.5 79.5t-75.5 56t-91 21q-46 0 -88.5 -33.5t-74.5 -82t-51.5 -102.5t-19.5 -96q0 -40 21 -75.5t53 -62.5t72 -42.5t77 -15.5q49 0 94 23t79 60.5t54.5 84t20.5 94.5zM872 1257q0 32 -19.5 56t-53.5 24q-37 0 -74 3t-74 3q-16 0 -48 -2l-72.5 -4.5t-84 -5.5l-84 -6
l-72.5 -5.5t-48 -2.5q-46 0 -88 -33t-74 -81t-51 -102t-19 -95q0 -40 21 -76t53 -63t72 -42.5t77 -15.5q50 0 94.5 23t79 60.5t54.5 84t20 94.5q0 31 -8.5 61t-23.5 58q60 0 119.5 4.5t119.5 7.5q-42 -72 -89 -141.5l-95 -138.5q-39 -57 -90.5 -112l-105 -110.5l-105.5 -113
t-92.5 -119t-65.5 -128.5t-25 -142q0 -19 4 -36t12.5 -30t22.5 -21t35 -8q29 0 51.5 21.5t22.5 50.5q0 46 18.5 96t49 101t69.5 102l78.5 98l77 89l65.5 75q16 18 47.5 57.5l70 90l79 107.5t73.5 109t54.5 94t21.5 64zM1370 319q0 47 -19 91t-51.5 78.5t-75.5 55.5t-91 21
q-46 0 -88.5 -33t-74.5 -81t-51.5 -101.5t-19.5 -95.5q0 -40 21 -76t53 -63t72 -42.5t77 -15.5q49 0 94 23t79 60.5t54.5 84.5t20.5 94z" />
    <glyph glyph-name="Acircumflex" unicode="&#xc2;" horiz-adv-x="1112" 
d="M721 1104q0 -81 -3 -159t-9 -159q-88 -45 -177.5 -85l-179.5 -78l41 90.5l55.5 117l65 128l68.5 124t66.5 104.5t58.5 70q5 -21 8 -37.5t4.5 -31.5t1.5 -30v-34v-20zM1067 872q0 15 -6 28t-16.5 23.5t-23.5 16.5t-28 6q-12 0 -29.5 -10t-36.5 -23l-37 -26.5t-30 -20.5
q3 57 5.5 114t2.5 114v32q0 41 -3.5 91.5t-18 95t-44 74.5t-81.5 30q-45 0 -88 -28.5t-80.5 -69t-66.5 -85.5t-46 -77h-2q-21 0 -36 -10t-27 -29q-16 -24 -40.5 -69l-53.5 -102.5l-61.5 -124.5l-63.5 -136l-59.5 -136t-50 -124t-34 -101t-12.5 -67q0 -40 22 -68t64 -28
q22 0 42 16.5t39 42.5t35.5 58t30.5 63t24.5 58l16.5 42h5q14 0 46.5 11t74.5 28.5l88 38.5l87.5 40.5l73.5 34.5l45 21q-3 -30 -7.5 -62.5l-9 -65.5t-8 -65t-3.5 -61q0 -30 21 -51.5t50 -21.5t48.5 17.5t25.5 45.5q9 40 14.5 83t9 86.5t6.5 87t7 83.5q13 8 34.5 19.5
l46 25.5t49 30t44.5 33.5t32.5 35.5t12.5 36zM1114 1518q0 14 -4 25t-12 22q-29 39 -65.5 67l-69 51.5t-55.5 44t-25 44.5v10q0 16 -6.5 31t-17.5 26t-25.5 18t-30.5 7q-43 0 -69.5 -18t-50.5 -45.5l-53.5 -60.5t-78.5 -63q-17 -11 -28 -28t-11 -37q0 -29 21.5 -50.5
t52.5 -21.5q29 0 50 9t40.5 25.5t41 40.5t52.5 54l24.5 -31t18 -21.5t19.5 -19t30 -24.5l40 -28.5l25 -17.5t23 -19.5l35 -34.5q12 -14 25.5 -21.5t31.5 -7.5q29 0 50.5 22.5t21.5 51.5z" />
    <glyph glyph-name="Ecircumflex" unicode="&#xca;" horiz-adv-x="535" 
d="M483 483q0 29 -22 50.5t-51 21.5q-17 0 -45.5 -9l-62 -20.5t-69 -20.5t-67.5 -9h-9.5t-9.5 2q3 28 17.5 59.5t35 64.5l43.5 67t42 66.5t32 62.5t13 56q0 40 -20 61t-48 34t-59 22t-53 25q11 21 39 47.5t61 52.5t65.5 48.5l53.5 37.5q32 24 32 62q0 29 -21 50t-50 21
q-19 0 -51 -16.5t-68.5 -43.5t-74 -61.5t-68 -70.5t-49.5 -71t-19 -62q0 -36 15.5 -62.5t40 -45t54.5 -31t58 -21.5q-21 -37 -50 -81.5t-54.5 -92t-43.5 -95t-18 -89.5q0 -38 13.5 -65t36.5 -44t53.5 -25t64.5 -8q30 0 65 5.5t70.5 14.5t69 21t61.5 25q22 9 34.5 26.5
t12.5 40.5zM583 1497q0 14 -4 25t-12 22q-29 39 -65.5 67l-69 51.5t-55.5 44t-25 44.5v10q0 16 -6.5 31t-17.5 26t-25.5 18t-30.5 7q-43 0 -69.5 -18t-50.5 -45.5l-53.5 -60.5t-78.5 -63q-17 -11 -28 -28t-11 -37q0 -29 21.5 -50.5t52.5 -21.5q29 0 50 9t40.5 25.5t41 40.5
t52.5 54l24.5 -31t18 -21.5t19.5 -19t30 -24.5l40 -28.5l25 -17.5t23 -19.5l35 -34.5q12 -14 25.5 -21.5t31.5 -7.5q29 0 50.5 22.5t21.5 51.5z" />
    <glyph glyph-name="Aacute" unicode="&#xc1;" horiz-adv-x="1112" 
d="M721 1104q0 -81 -3 -159t-9 -159q-88 -45 -177.5 -85l-179.5 -78l41 90.5l55.5 117l65 128l68.5 124t66.5 104.5t58.5 70q5 -21 8 -37.5t4.5 -31.5t1.5 -30v-34v-20zM1067 872q0 15 -6 28t-16.5 23.5t-23.5 16.5t-28 6q-12 0 -29.5 -10t-36.5 -23l-37 -26.5t-30 -20.5
q3 57 5.5 114t2.5 114v32q0 41 -3.5 91.5t-18 95t-44 74.5t-81.5 30q-45 0 -88 -28.5t-80.5 -69t-66.5 -85.5t-46 -77h-2q-21 0 -36 -10t-27 -29q-16 -24 -40.5 -69l-53.5 -102.5l-61.5 -124.5l-63.5 -136l-59.5 -136t-50 -124t-34 -101t-12.5 -67q0 -40 22 -68t64 -28
q22 0 42 16.5t39 42.5t35.5 58t30.5 63t24.5 58l16.5 42h5q14 0 46.5 11t74.5 28.5l88 38.5l87.5 40.5l73.5 34.5l45 21q-3 -30 -7.5 -62.5l-9 -65.5t-8 -65t-3.5 -61q0 -30 21 -51.5t50 -21.5t48.5 17.5t25.5 45.5q9 40 14.5 83t9 86.5t6.5 87t7 83.5q13 8 34.5 19.5
l46 25.5t49 30t44.5 33.5t32.5 35.5t12.5 36zM807 1909q-23 45 -68 45q-9 0 -18 -2t-19 -8q-34 -17 -62 -51t-51.5 -75t-43.5 -83.5t-39 -75.5q-6 -10 -9.5 -16.5t-5.5 -11t-4 -7t-4 -4.5q-3 -3 -8.5 -6.5t-19.5 -15.5q-31 -22 -31 -58q0 -11 2.5 -21.5t7.5 -21.5
q9 -17 24.5 -23.5t32.5 -6.5q13 0 23.5 2.5t21.5 7.5q24 12 44 37t38 57t34.5 68t34 69.5t37.5 61.5t44 45q18 8 31.5 27t13.5 40q0 15 -6 27z" />
    <glyph glyph-name="Edieresis" unicode="&#xcb;" horiz-adv-x="535" 
d="M483 483q0 29 -22 50.5t-51 21.5q-17 0 -45.5 -9l-62 -20.5t-69 -20.5t-67.5 -9h-9.5t-9.5 2q3 28 17.5 59.5t35 64.5l43.5 67t42 66.5t32 62.5t13 56q0 40 -20 61t-48 34t-59 22t-53 25q11 21 39 47.5t61 52.5t65.5 48.5l53.5 37.5q32 24 32 62q0 29 -21 50t-50 21
q-19 0 -51 -16.5t-68.5 -43.5t-74 -61.5t-68 -70.5t-49.5 -71t-19 -62q0 -36 15.5 -62.5t40 -45t54.5 -31t58 -21.5q-21 -37 -50 -81.5t-54.5 -92t-43.5 -95t-18 -89.5q0 -38 13.5 -65t36.5 -44t53.5 -25t64.5 -8q30 0 65 5.5t70.5 14.5t69 21t61.5 25q22 9 34.5 26.5
t12.5 40.5zM180 1562q0 23 -11.5 45t-30 39.5t-41 28.5t-44.5 11q-21 0 -41.5 -14t-36 -34.5t-25.5 -43.5t-10 -41q0 -23 9 -40t24 -28.5t34 -17.5t39 -6q24 0 48 5.5t43 18t31 31.5t12 46zM528 1553q0 20 -10 41.5t-26.5 38.5t-36.5 28t-40 11t-43 -11.5t-42.5 -29
t-32.5 -39.5t-13 -43q0 -24 10.5 -42t27.5 -30.5t38.5 -19t42.5 -6.5q24 0 46.5 6t40 19t28 32t10.5 45z" />
    <glyph glyph-name="Egrave" unicode="&#xc8;" horiz-adv-x="535" 
d="M483 483q0 29 -22 50.5t-51 21.5q-17 0 -45.5 -9l-62 -20.5t-69 -20.5t-67.5 -9h-9.5t-9.5 2q3 28 17.5 59.5t35 64.5l43.5 67t42 66.5t32 62.5t13 56q0 40 -20 61t-48 34t-59 22t-53 25q11 21 39 47.5t61 52.5t65.5 48.5l53.5 37.5q32 24 32 62q0 29 -21 50t-50 21
q-19 0 -51 -16.5t-68.5 -43.5t-74 -61.5t-68 -70.5t-49.5 -71t-19 -62q0 -36 15.5 -62.5t40 -45t54.5 -31t58 -21.5q-21 -37 -50 -81.5t-54.5 -92t-43.5 -95t-18 -89.5q0 -38 13.5 -65t36.5 -44t53.5 -25t64.5 -8q30 0 65 5.5t70.5 14.5t69 21t61.5 25q22 9 34.5 26.5
t12.5 40.5zM229 1394q12 23 12 43q0 36 -33 58q-14 12 -19.5 16t-9 7.5t-7.5 11t-15 26.5q-18 33 -38 75.5t-43 83.5t-51 75t-63 51q-9 6 -18.5 8t-17.5 2q-46 0 -68 -45q-6 -12 -6 -27q0 -21 12.5 -40t32.5 -27q24 -17 44 -45t37.5 -61.5t34 -69.5t34 -68t37.5 -57t44 -37
q22 -10 43 -10q19 0 34.5 6.5t23.5 23.5z" />
    <glyph glyph-name="Iacute" unicode="&#xcd;" horiz-adv-x="928" 
d="M852 1210h-2h2zM969 1268q0 34 -22.5 53t-54.5 28.5t-66 12t-58 2.5q-103 0 -206.5 -10.5t-207.5 -10.5h-4q-13 0 -33.5 0.5t-41 2.5t-37.5 6.5t-25 13.5q-11 15 -26.5 24t-32.5 9q-15 0 -28.5 -6t-23.5 -16.5t-16 -23.5t-6 -28q0 -29 15.5 -49.5t40 -35t55.5 -23
t62 -13.5t59.5 -6.5t47.5 -1.5q45 0 88 2.5t87 5.5q-27 -94 -63 -191.5t-76.5 -195l-83.5 -193.5l-83 -186l-36 -2l-19 2q0 29 -21.5 49.5t-50.5 20.5q-19 0 -37.5 -10.5t-32.5 -26.5t-23 -35t-9 -37q0 -38 21 -60t52 -32.5t65.5 -13t62.5 -2.5q37 0 88 4t108.5 11.5
t118 18.5t115.5 25t101.5 30.5t76.5 35.5q17 11 27 27t10 36q0 15 -6 28t-16 23.5t-23.5 16.5t-28.5 6q-9 0 -18 -2.5t-19 -7.5q-39 -20 -81 -34.5t-85 -24.5t-87 -17t-87 -12l77.5 176l86 201.5t77.5 203.5t52 181q22 0 43 1t41 1h10q17 0 36.5 -1t33.5 -8q19 -16 45 -16
q29 0 50.5 21.5t21.5 52.5zM889 1888q-23 45 -68 45q-9 0 -18 -2t-19 -8q-34 -17 -62 -51t-51.5 -75t-43.5 -83.5t-39 -75.5q-6 -10 -9.5 -16.5t-5.5 -11t-4 -7t-4 -4.5q-3 -3 -8.5 -6.5t-19.5 -15.5q-31 -22 -31 -58q0 -11 2.5 -21.5t7.5 -21.5q9 -17 24.5 -23.5t32.5 -6.5
q13 0 23.5 2.5t21.5 7.5q24 12 44 37t38 57t34.5 68t34 69.5t37.5 61.5t44 45q18 8 31.5 27t13.5 40q0 15 -6 27z" />
    <glyph glyph-name="Icircumflex" unicode="&#xce;" horiz-adv-x="928" 
d="M852 1210h-2h2zM969 1268q0 34 -22.5 53t-54.5 28.5t-66 12t-58 2.5q-103 0 -206.5 -10.5t-207.5 -10.5h-4q-13 0 -33.5 0.5t-41 2.5t-37.5 6.5t-25 13.5q-11 15 -26.5 24t-32.5 9q-15 0 -28.5 -6t-23.5 -16.5t-16 -23.5t-6 -28q0 -29 15.5 -49.5t40 -35t55.5 -23
t62 -13.5t59.5 -6.5t47.5 -1.5q45 0 88 2.5t87 5.5q-27 -94 -63 -191.5t-76.5 -195l-83.5 -193.5l-83 -186l-36 -2l-19 2q0 29 -21.5 49.5t-50.5 20.5q-19 0 -37.5 -10.5t-32.5 -26.5t-23 -35t-9 -37q0 -38 21 -60t52 -32.5t65.5 -13t62.5 -2.5q37 0 88 4t108.5 11.5
t118 18.5t115.5 25t101.5 30.5t76.5 35.5q17 11 27 27t10 36q0 15 -6 28t-16 23.5t-23.5 16.5t-28.5 6q-9 0 -18 -2.5t-19 -7.5q-39 -20 -81 -34.5t-85 -24.5t-87 -17t-87 -12l77.5 176l86 201.5t77.5 203.5t52 181q22 0 43 1t41 1h10q17 0 36.5 -1t33.5 -8q19 -16 45 -16
q29 0 50.5 21.5t21.5 52.5zM971 1538q0 14 -4 25t-12 22q-29 39 -65.5 67l-69 51.5t-55.5 44t-25 44.5v10q0 16 -6.5 31t-17.5 26t-25.5 18t-30.5 7q-43 0 -69.5 -18t-50.5 -45.5l-53.5 -60.5t-78.5 -63q-17 -11 -28 -28t-11 -37q0 -29 21.5 -50.5t52.5 -21.5q29 0 50 9
t40.5 25.5t41 40.5t52.5 54l24.5 -31t18 -21.5t19.5 -19t30 -24.5l40 -28.5l25 -17.5t23 -19.5l35 -34.5q12 -14 25.5 -21.5t31.5 -7.5q29 0 50.5 22.5t21.5 51.5z" />
    <glyph glyph-name="Idieresis" unicode="&#xcf;" horiz-adv-x="928" 
d="M852 1210h-2h2zM969 1268q0 34 -22.5 53t-54.5 28.5t-66 12t-58 2.5q-103 0 -206.5 -10.5t-207.5 -10.5h-4q-13 0 -33.5 0.5t-41 2.5t-37.5 6.5t-25 13.5q-11 15 -26.5 24t-32.5 9q-15 0 -28.5 -6t-23.5 -16.5t-16 -23.5t-6 -28q0 -29 15.5 -49.5t40 -35t55.5 -23
t62 -13.5t59.5 -6.5t47.5 -1.5q45 0 88 2.5t87 5.5q-27 -94 -63 -191.5t-76.5 -195l-83.5 -193.5l-83 -186l-36 -2l-19 2q0 29 -21.5 49.5t-50.5 20.5q-19 0 -37.5 -10.5t-32.5 -26.5t-23 -35t-9 -37q0 -38 21 -60t52 -32.5t65.5 -13t62.5 -2.5q37 0 88 4t108.5 11.5
t118 18.5t115.5 25t101.5 30.5t76.5 35.5q17 11 27 27t10 36q0 15 -6 28t-16 23.5t-23.5 16.5t-28.5 6q-9 0 -18 -2.5t-19 -7.5q-39 -20 -81 -34.5t-85 -24.5t-87 -17t-87 -12l77.5 176l86 201.5t77.5 203.5t52 181q22 0 43 1t41 1h10q17 0 36.5 -1t33.5 -8q19 -16 45 -16
q29 0 50.5 21.5t21.5 52.5zM568 1602q0 23 -11.5 45t-30 39.5t-41 28.5t-44.5 11q-21 0 -41.5 -14t-36 -34.5t-25.5 -43.5t-10 -41q0 -23 9 -40t24 -28.5t34 -17.5t39 -6q24 0 48 5.5t43 18t31 31.5t12 46zM916 1593q0 20 -10 41.5t-26.5 38.5t-36.5 28t-40 11t-43 -11.5
t-42.5 -29t-32.5 -39.5t-13 -43q0 -24 10.5 -42t27.5 -30.5t38.5 -19t42.5 -6.5q24 0 46.5 6t40 19t28 32t10.5 45z" />
    <glyph glyph-name="Igrave" unicode="&#xcc;" horiz-adv-x="928" 
d="M852 1210h-2h2zM969 1268q0 34 -22.5 53t-54.5 28.5t-66 12t-58 2.5q-103 0 -206.5 -10.5t-207.5 -10.5h-4q-13 0 -33.5 0.5t-41 2.5t-37.5 6.5t-25 13.5q-11 15 -26.5 24t-32.5 9q-15 0 -28.5 -6t-23.5 -16.5t-16 -23.5t-6 -28q0 -29 15.5 -49.5t40 -35t55.5 -23
t62 -13.5t59.5 -6.5t47.5 -1.5q45 0 88 2.5t87 5.5q-27 -94 -63 -191.5t-76.5 -195l-83.5 -193.5l-83 -186l-36 -2l-19 2q0 29 -21.5 49.5t-50.5 20.5q-19 0 -37.5 -10.5t-32.5 -26.5t-23 -35t-9 -37q0 -38 21 -60t52 -32.5t65.5 -13t62.5 -2.5q37 0 88 4t108.5 11.5
t118 18.5t115.5 25t101.5 30.5t76.5 35.5q17 11 27 27t10 36q0 15 -6 28t-16 23.5t-23.5 16.5t-28.5 6q-9 0 -18 -2.5t-19 -7.5q-39 -20 -81 -34.5t-85 -24.5t-87 -17t-87 -12l77.5 176l86 201.5t77.5 203.5t52 181q22 0 43 1t41 1h10q17 0 36.5 -1t33.5 -8q19 -16 45 -16
q29 0 50.5 21.5t21.5 52.5zM719 1476q12 23 12 43q0 36 -33 58q-14 12 -19.5 16t-9 7.5t-7.5 11t-15 26.5q-18 33 -38 75.5t-43 83.5t-51 75t-63 51q-9 6 -18.5 8t-17.5 2q-46 0 -68 -45q-6 -12 -6 -27q0 -21 12.5 -40t32.5 -27q24 -17 44 -45t37.5 -61.5t34 -69.5t34 -68
t37.5 -57t44 -37q22 -10 43 -10q19 0 34.5 6.5t23.5 23.5z" />
    <glyph glyph-name="Oacute" unicode="&#xd3;" horiz-adv-x="817" 
d="M623 829q0 -70 -31 -137t-82.5 -119.5t-118 -84t-137.5 -31.5q-31 0 -51.5 5t-33.5 17t-18.5 32t-5.5 50q0 33 5.5 68.5t14.5 71t20.5 70t23.5 65.5q9 -17 26 -27t37 -10q43 0 64 35l28 46.5t31.5 50t34.5 47.5t37 40h8q44 0 72.5 -14.5t45.5 -40t23.5 -60t6.5 -74.5z
M768 831q0 70 -17 130.5t-53 105.5t-91.5 70.5t-131.5 25.5q-12 0 -25.5 -0.5t-25.5 -3.5q0 3 1 5t1 5q0 29 -21 51.5t-53 22.5q-45 0 -89 -39t-83 -101t-72 -139t-57 -152.5t-37.5 -142.5t-13.5 -108q0 -122 66 -186t188 -64q102 0 195 43t164 115t113 166t42 196z
M766 1745q-23 45 -68 45q-9 0 -18 -2t-19 -8q-34 -17 -62 -51t-51.5 -75t-43.5 -83.5t-39 -75.5q-6 -10 -9.5 -16.5t-5.5 -11t-4 -7t-4 -4.5q-3 -3 -8.5 -6.5t-19.5 -15.5q-31 -22 -31 -58q0 -11 2.5 -21.5t7.5 -21.5q9 -17 24.5 -23.5t32.5 -6.5q13 0 23.5 2.5t21.5 7.5
q24 12 44 37t38 57t34.5 68t34 69.5t37.5 61.5t44 45q18 8 31.5 27t13.5 40q0 15 -6 27z" />
    <glyph glyph-name="Ocircumflex" unicode="&#xd4;" horiz-adv-x="817" 
d="M623 829q0 -70 -31 -137t-82.5 -119.5t-118 -84t-137.5 -31.5q-31 0 -51.5 5t-33.5 17t-18.5 32t-5.5 50q0 33 5.5 68.5t14.5 71t20.5 70t23.5 65.5q9 -17 26 -27t37 -10q43 0 64 35l28 46.5t31.5 50t34.5 47.5t37 40h8q44 0 72.5 -14.5t45.5 -40t23.5 -60t6.5 -74.5z
M768 831q0 70 -17 130.5t-53 105.5t-91.5 70.5t-131.5 25.5q-12 0 -25.5 -0.5t-25.5 -3.5q0 3 1 5t1 5q0 29 -21 51.5t-53 22.5q-45 0 -89 -39t-83 -101t-72 -139t-57 -152.5t-37.5 -142.5t-13.5 -108q0 -122 66 -186t188 -64q102 0 195 43t164 115t113 166t42 196z
M725 1355q0 14 -4 25t-12 22q-29 39 -65.5 67l-69 51.5t-55.5 44t-25 44.5v10q0 16 -6.5 31t-17.5 26t-25.5 18t-30.5 7q-43 0 -69.5 -18t-50.5 -45.5l-53.5 -60.5t-78.5 -63q-17 -11 -28 -28t-11 -37q0 -29 21.5 -50.5t52.5 -21.5q29 0 50 9t40.5 25.5t41 40.5t52.5 54
l24.5 -31t18 -21.5t19.5 -19t30 -24.5l40 -28.5l25 -17.5t23 -19.5l35 -34.5q12 -14 25.5 -21.5t31.5 -7.5q29 0 50.5 22.5t21.5 51.5z" />
    <glyph glyph-name="Ograve" unicode="&#xd2;" horiz-adv-x="817" 
d="M623 829q0 -70 -31 -137t-82.5 -119.5t-118 -84t-137.5 -31.5q-31 0 -51.5 5t-33.5 17t-18.5 32t-5.5 50q0 33 5.5 68.5t14.5 71t20.5 70t23.5 65.5q9 -17 26 -27t37 -10q43 0 64 35l28 46.5t31.5 50t34.5 47.5t37 40h8q44 0 72.5 -14.5t45.5 -40t23.5 -60t6.5 -74.5z
M768 831q0 70 -17 130.5t-53 105.5t-91.5 70.5t-131.5 25.5q-12 0 -25.5 -0.5t-25.5 -3.5q0 3 1 5t1 5q0 29 -21 51.5t-53 22.5q-45 0 -89 -39t-83 -101t-72 -139t-57 -152.5t-37.5 -142.5t-13.5 -108q0 -122 66 -186t188 -64q102 0 195 43t164 115t113 166t42 196z
M473 1374q12 23 12 43q0 36 -33 58q-14 12 -19.5 16t-9 7.5t-7.5 11t-15 26.5q-18 33 -38 75.5t-43 83.5t-51 75t-63 51q-9 6 -18.5 8t-17.5 2q-46 0 -68 -45q-6 -12 -6 -27q0 -21 12.5 -40t32.5 -27q24 -17 44 -45t37.5 -61.5t34 -69.5t34 -68t37.5 -57t44 -37
q22 -10 43 -10q19 0 34.5 6.5t23.5 23.5z" />
    <glyph glyph-name="Uacute" unicode="&#xda;" horiz-adv-x="596" 
d="M573 1044q0 31 -21 52.5t-52 21.5q-26 0 -47 -18q-17 -13 -32 -57t-31.5 -102.5t-37 -123t-48.5 -118.5t-65.5 -90t-88.5 -36q-7 15 -7 35q0 43 10.5 96t27 107t36 105.5t37.5 91.5q8 13 8 32q0 29 -21.5 50.5t-50.5 21.5q-43 0 -65 -39q-15 -24 -30 -60t-29 -78
t-26 -87.5t-21 -88.5t-14 -81t-5 -66q0 -37 7.5 -70t25 -58.5t46.5 -40.5t71 -15q62 0 111 24t88.5 64.5t69.5 92.5t52.5 108.5t39.5 113t30 105.5q2 8 7.5 24l11 33t9.5 31.5t4 19.5zM684 1704q-23 45 -68 45q-9 0 -18 -2t-19 -8q-34 -17 -62 -51t-51.5 -75t-43.5 -83.5
t-39 -75.5q-6 -10 -9.5 -16.5t-5.5 -11t-4 -7t-4 -4.5q-3 -3 -8.5 -6.5t-19.5 -15.5q-31 -22 -31 -58q0 -11 2.5 -21.5t7.5 -21.5q9 -17 24.5 -23.5t32.5 -6.5q13 0 23.5 2.5t21.5 7.5q24 12 44 37t38 57t34.5 68t34 69.5t37.5 61.5t44 45q18 8 31.5 27t13.5 40q0 15 -6 27z
" />
    <glyph glyph-name="Ucircumflex" unicode="&#xdb;" horiz-adv-x="596" 
d="M573 1044q0 31 -21 52.5t-52 21.5q-26 0 -47 -18q-17 -13 -32 -57t-31.5 -102.5t-37 -123t-48.5 -118.5t-65.5 -90t-88.5 -36q-7 15 -7 35q0 43 10.5 96t27 107t36 105.5t37.5 91.5q8 13 8 32q0 29 -21.5 50.5t-50.5 21.5q-43 0 -65 -39q-15 -24 -30 -60t-29 -78
t-26 -87.5t-21 -88.5t-14 -81t-5 -66q0 -37 7.5 -70t25 -58.5t46.5 -40.5t71 -15q62 0 111 24t88.5 64.5t69.5 92.5t52.5 108.5t39.5 113t30 105.5q2 8 7.5 24l11 33t9.5 31.5t4 19.5zM704 1294q0 14 -4 25t-12 22q-29 39 -65.5 67l-69 51.5t-55.5 44t-25 44.5v10
q0 16 -6.5 31t-17.5 26t-25.5 18t-30.5 7q-43 0 -69.5 -18t-50.5 -45.5l-53.5 -60.5t-78.5 -63q-17 -11 -28 -28t-11 -37q0 -29 21.5 -50.5t52.5 -21.5q29 0 50 9t40.5 25.5t41 40.5t52.5 54l24.5 -31t18 -21.5t19.5 -19t30 -24.5l40 -28.5l25 -17.5t23 -19.5l35 -34.5
q12 -14 25.5 -21.5t31.5 -7.5q29 0 50.5 22.5t21.5 51.5z" />
    <glyph glyph-name="Ugrave" unicode="&#xd9;" horiz-adv-x="596" 
d="M573 1044q0 31 -21 52.5t-52 21.5q-26 0 -47 -18q-17 -13 -32 -57t-31.5 -102.5t-37 -123t-48.5 -118.5t-65.5 -90t-88.5 -36q-7 15 -7 35q0 43 10.5 96t27 107t36 105.5t37.5 91.5q8 13 8 32q0 29 -21.5 50.5t-50.5 21.5q-43 0 -65 -39q-15 -24 -30 -60t-29 -78
t-26 -87.5t-21 -88.5t-14 -81t-5 -66q0 -37 7.5 -70t25 -58.5t46.5 -40.5t71 -15q62 0 111 24t88.5 64.5t69.5 92.5t52.5 108.5t39.5 113t30 105.5q2 8 7.5 24l11 33t9.5 31.5t4 19.5zM371 1292q12 23 12 43q0 36 -33 58q-14 12 -19.5 16t-9 7.5t-7.5 11t-15 26.5
q-18 33 -38 75.5t-43 83.5t-51 75t-63 51q-9 6 -18.5 8t-17.5 2q-46 0 -68 -45q-6 -12 -6 -27q0 -21 12.5 -40t32.5 -27q24 -17 44 -45t37.5 -61.5t34 -69.5t34 -68t37.5 -57t44 -37q22 -10 43 -10q19 0 34.5 6.5t23.5 23.5z" />
    <glyph glyph-name="dotlessi" unicode="&#x131;" horiz-adv-x="274" 
d="M229 711q0 31 -21 52t-52 21q-29 0 -49.5 -21t-22.5 -50q-4 -39 -17.5 -76.5l-28.5 -75.5t-26.5 -76.5t-11.5 -78.5q0 -35 19.5 -62t56.5 -27q15 0 28 6t23.5 16t16.5 23.5t6 28.5q0 42 12.5 81.5t27 79t27 79t12.5 80.5z" />
    </font>
</defs>
</svg>
